<svg xmlns="http://www.w3.org/2000/svg" width="52.499" height="51.41" viewBox="0 0 52.499 51.41">
  <g id="clock_4_" data-name="clock(4)" transform="translate(0 -5.311)">
    <path id="Path_28724" data-name="Path 28724" d="M206.314,83.786a.769.769,0,0,0-.769.769v1.087a.769.769,0,0,0,1.538,0V84.555A.769.769,0,0,0,206.314,83.786Z" transform="translate(-184.469 -70.428)" fill="#fff"/>
    <path id="Path_28725" data-name="Path 28725" d="M289.212,123.087l.769-.769a.769.769,0,0,0-1.087-1.088l-.769.769a.769.769,0,1,0,1.087,1.088Z" transform="translate(-258.379 -103.831)" fill="#fff"/>
    <path id="Path_28726" data-name="Path 28726" d="M323.867,212.392a.769.769,0,0,0,0-1.538H322.78a.769.769,0,1,0,0,1.538Z" transform="translate(-288.993 -184.467)" fill="#fff"/>
    <path id="Path_28727" data-name="Path 28727" d="M208.629,331.175v1.087a.769.769,0,0,0,1.538,0v-1.087a.769.769,0,1,0-1.538,0Z" transform="translate(-187.237 -291.761)" fill="#fff"/>
    <path id="Path_28728" data-name="Path 28728" d="M115.918,295.291a.769.769,0,0,0,1.088,0l.769-.769a.769.769,0,1,0-1.088-1.088l-.769.769A.769.769,0,0,0,115.918,295.291Z" transform="translate(-103.83 -258.379)" fill="#fff"/>
    <path id="Path_28729" data-name="Path 28729" d="M80.332,212.392a.769.769,0,0,0,0-1.538H79.245a.769.769,0,1,0,0,1.538Z" transform="translate(-70.429 -184.467)" fill="#fff"/>
    <path id="Path_28730" data-name="Path 28730" d="M116.687,123.086A.769.769,0,1,0,117.775,122l-.769-.769a.769.769,0,1,0-1.087,1.088Z" transform="translate(-103.831 -103.831)" fill="#fff"/>
    <path id="Path_28731" data-name="Path 28731" d="M172.837,150.24h-2.968a.769.769,0,0,0,0,1.538h3.737a.769.769,0,0,0,.769-.769v-7.278a.769.769,0,0,0-1.538,0Z" transform="translate(-151.761 -123.537)" fill="#fff"/>
    <path id="Path_28732" data-name="Path 28732" d="M43.55,29.618a22.076,22.076,0,0,0,.14-2.462A21.753,21.753,0,0,0,37.7,12.126a.769.769,0,1,0-1.116,1.058,20.222,20.222,0,0,1,5.571,13.972c0,.655-.033,1.316-.1,1.975a13.991,13.991,0,0,0-3.333-.461c.045-.5.07-1.011.07-1.513a16.948,16.948,0,1,0-32.981,5.5.769.769,0,0,0,1.455-.5,15.411,15.411,0,1,1,29.988-5,15.557,15.557,0,0,1-.081,1.571A14.047,14.047,0,0,0,24.449,42.344,15.416,15.416,0,0,1,8.492,34.852a.769.769,0,1,0-1.332.769A16.964,16.964,0,0,0,24.5,43.9a13.925,13.925,0,0,0,.686,3.291A20.307,20.307,0,1,1,21.845,6.849a20.1,20.1,0,0,1,12.544,4.336.769.769,0,0,0,.951-1.209A21.623,21.623,0,0,0,21.845,5.311a21.845,21.845,0,1,0,3.927,43.336,14.026,14.026,0,0,0,20.764,5.524.769.769,0,1,0-.885-1.258,12.5,12.5,0,1,1,2.164-1.934A.769.769,0,1,0,48.965,52,14.026,14.026,0,0,0,43.55,29.618Z" transform="translate(0 0)" fill="#fff"/>
    <path id="Path_28733" data-name="Path 28733" d="M317.917,299.353a2.31,2.31,0,0,0-3.263,0l-3.362,3.363-3.362-3.363a2.307,2.307,0,0,0-3.263,3.263l3.363,3.363-3.362,3.363a2.307,2.307,0,1,0,3.263,3.263l3.362-3.363,3.362,3.363a2.307,2.307,0,1,0,3.263-3.263l-3.362-3.363,3.362-3.363A2.306,2.306,0,0,0,317.917,299.353Zm-1.088,2.175-3.906,3.906a.769.769,0,0,0,0,1.088l3.906,3.906a.769.769,0,0,1-1.088,1.087l-3.906-3.906a.769.769,0,0,0-1.088,0l-3.906,3.906a.769.769,0,1,1-1.087-1.087l3.906-3.906a.769.769,0,0,0,0-1.088l-3.906-3.906a.769.769,0,0,1,1.088-1.087l3.906,3.906a.769.769,0,0,0,1.088,0l3.906-3.906a.769.769,0,1,1,1.087,1.087Z" transform="translate(-272.82 -263.285)" fill="#fff"/>
  </g>
</svg>
