<svg xmlns="http://www.w3.org/2000/svg" width="28" height="28" viewBox="0 0 28 28">
  <g id="Group_20236" data-name="Group 20236" transform="translate(-554 -49)">
    <path id="Path_1485" data-name="Path 1485" d="M14,28A14,14,0,1,1,28,14,14.015,14.015,0,0,1,14,28ZM14,1.75A12.25,12.25,0,1,0,26.25,14,12.263,12.263,0,0,0,14,1.75Zm0,0" transform="translate(554 49)" fill="#bcd38b"/>
    <path id="Path_1486" data-name="Path 1486" d="M246.963,117.29a.864.864,0,0,1-.615-.255l-6.093-6.093a.871.871,0,0,1-.255-.615V102.2a.87.87,0,1,1,1.741,0v7.763l5.838,5.838a.871.871,0,0,1-.615,1.487Zm0,0" transform="translate(327.056 -46.819)" fill="#bcd38b"/>
  </g>
</svg>
