<svg xmlns="http://www.w3.org/2000/svg" width="59" height="59" viewBox="0 0 59 59">
  <g id="Group_20284" data-name="Group 20284" transform="translate(-170.417 -691.667)">
    <path id="Path_1485" data-name="Path 1485" d="M29.5,59A29.5,29.5,0,1,1,59,29.5,29.533,29.533,0,0,1,29.5,59Zm0-55.312A25.813,25.813,0,1,0,55.313,29.5,25.841,25.841,0,0,0,29.5,3.687Zm0,0" transform="translate(170.417 691.667)" fill="#fff"/>
    <path id="Path_1486" data-name="Path 1486" d="M254.673,134.957a1.82,1.82,0,0,1-1.3-.538L240.538,121.58a1.835,1.835,0,0,1-.538-1.3V103.166a1.834,1.834,0,0,1,3.668,0v16.358l12.3,12.3a1.835,1.835,0,0,1-1.3,3.133Zm0,0" transform="translate(-42.072 601.95)" fill="#fff"/>
  </g>
</svg>
