<svg xmlns="http://www.w3.org/2000/svg" width="29.292" height="29.292" viewBox="0 0 29.292 29.292">
  <g id="Group_20245" data-name="Group 20245" transform="translate(-831.967 -5570.25)">
    <path id="Path_1485" data-name="Path 1485" d="M14.646,29.292A14.646,14.646,0,1,1,29.292,14.646,14.662,14.662,0,0,1,14.646,29.292Zm0-27.461A12.815,12.815,0,1,0,27.461,14.646,12.829,12.829,0,0,0,14.646,1.831Zm0,0" transform="translate(831.967 5570.25)" fill="#fff"/>
    <path id="Path_1486" data-name="Path 1486" d="M247.285,118.026a.9.9,0,0,1-.644-.267l-6.374-6.374a.911.911,0,0,1-.267-.643v-8.5a.911.911,0,0,1,1.821,0v8.121l6.107,6.107a.911.911,0,0,1-.644,1.555Zm0,0" transform="translate(605.626 5474.685)" fill="#fff"/>
  </g>
</svg>
