<svg xmlns="http://www.w3.org/2000/svg" width="47.245" height="56" viewBox="0 0 47.245 56">
  <g id="dentist_4_" data-name="dentist(4)" transform="translate(-40.026 0)">
    <g id="Group_7331" data-name="Group 7331" transform="translate(40.026 0)">
      <g id="Group_7330" data-name="Group 7330" transform="translate(0 0)">
        <path id="Path_84883" data-name="Path 84883" d="M161.394,132.91a.82.82,0,0,0,1.067-.455c3.61-8.968-4.134-17.17-12.028-12.487-7.632-4.527-15.762,3.212-12.028,12.487a11.81,11.81,0,0,0,3.763,5.017c-.5,5.085,1.513,10.682,3.745,10.684.789,0,1.283-.63,1.5-1.4.436-1.522-.07-2.634.626-4.778a2.541,2.541,0,0,1,1.531-1.608h0c2.634-.755,3.594,1.51,3.664,4.268a7.931,7.931,0,0,0,.242,2.218c.46,1.446,1.788,1.814,2.954.486,1.463-1.666,2.668-5.752,2.264-9.867a11.416,11.416,0,0,0,2.407-2.516.82.82,0,0,0-1.342-.944c-1.709,2.427-2.871,2.232-2.748,3.184.561,4.333-.894,8.216-1.956,9.208-.3-.86-.066-1.813-.311-3.424h0c-.267-1.918-1.193-3.647-2.993-4.187-2.114-.636-5.011.076-5.634,4.167h0c-.245,1.6-.02,2.613-.314,3.445-1.063-.993-2.517-4.877-1.956-9.209a.821.821,0,0,0-.346-.78,10.1,10.1,0,0,1-3.577-4.573c-3.173-7.883,3.62-14.493,10.052-10.223.856.568,1.217-.72,3.818-1.212,5.913-1.081,9.574,5.391,7.141,11.435A.82.82,0,0,0,161.394,132.91Z" transform="translate(-126.811 -105.635)" fill="#616161"/>
        <path id="Path_84884" data-name="Path 84884" d="M110.779,61.451a.82.82,0,0,0,.82-.82v-24a.82.82,0,0,0-.643-.8c-20.741-4.582-19.489-4.343-19.75-4.285l-19.4,4.285a.82.82,0,0,0-.643.8V66.285c0,5.1,5.46,8.727,10.041,10.874,4.086,1.914,9.828,3.574,10.363,3.447,7.483-1.772,20.028-6.6,20.028-14.321V63.256a.82.82,0,1,0-1.641,0v3.029c0,6.644-12.1,11.107-18.576,12.679-6.483-1.57-18.575-6.043-18.575-12.679V37.292l18.576-4.1,18.576,4.1V60.631A.82.82,0,0,0,110.779,61.451Z" transform="translate(-67.761 -28.077)" fill="#616161"/>
        <path id="Path_84885" data-name="Path 84885" d="M85.292,4.724,72.034,1.795a.82.82,0,0,0-.354,1.6L84.938,6.326a.877.877,0,0,1,.692.862v31.02c0,5.943-5.73,9.976-11.058,12.472-4.737,2.219-10.584,3.771-11.108,3.66-4.872-1.04-13.583-4.019-18.236-8.573a10.5,10.5,0,0,1-3.562-7.56V7.188a.888.888,0,0,1,.692-.862l21.1-4.661c.267-.059-.057-.1,5.539,1.139a.82.82,0,0,0,.354-1.6C63.788-.027,63.83-.1,63.1.063L42,4.724a2.508,2.508,0,0,0-1.979,2.464v31.02a12.078,12.078,0,0,0,4.055,8.732c4.688,4.588,13.32,7.782,19.042,9.005a2.529,2.529,0,0,0,1.052,0,57.581,57.581,0,0,0,11.093-3.779c6.048-2.833,12-7.313,12-13.958V7.188A2.508,2.508,0,0,0,85.292,4.724Z" transform="translate(-40.026 0)" fill="#616161"/>
      </g>
    </g>
  </g>
</svg>
