<svg xmlns="http://www.w3.org/2000/svg" width="57.789" height="58.25" viewBox="0 0 57.789 58.25">
  <g id="dentist_3_" data-name="dentist(3)" transform="translate(-2.023)">
    <path id="Path_84880" data-name="Path 84880" d="M113.767,354.823a.856.856,0,0,0-1.174.292l-2.19,3.638a4.818,4.818,0,0,0-.64,1.795c0,.012,0,.025,0,.038l-.683,6.781,0,.016a3.674,3.674,0,0,1-7.315.1l0-.017-1.1-8.586,0-.012a2.674,2.674,0,0,0-.705-1.465l-.024-.025a2.691,2.691,0,0,0-4.619,1.449l0,.012-1.162,8.66,0,.017a3.7,3.7,0,0,1-3.762,3.259h-.043a3.671,3.671,0,0,1-3.55-3.374l0-.016-.1-.976a.856.856,0,1,0-1.7.171l.1.968a5.381,5.381,0,0,0,5.2,4.937h.043l.162,0a5.418,5.418,0,0,0,5.352-4.77L97,359.071a.979.979,0,0,1,.236-.5.98.98,0,0,1,1.443-.022l.024.025a.974.974,0,0,1,.256.529l1.1,8.571a5.416,5.416,0,0,0,5.355,4.8l.143,0a5.377,5.377,0,0,0,5.223-4.937l.68-6.754a3.116,3.116,0,0,1,.411-1.142L114.059,356A.855.855,0,0,0,113.767,354.823Z" transform="translate(-73.49 -314.236)" fill="#616161"/>
    <path id="Path_84881" data-name="Path 84881" d="M59.812,15.221a15.221,15.221,0,0,0-30.436-.4l-4.934,1.072-5.685-1.272a13.238,13.238,0,0,0-13.08,4.428l-.139.166A13.688,13.688,0,0,0,4.288,35.09l.5.824a7.5,7.5,0,0,1-2.013,1.519,1.412,1.412,0,0,0,.031,2.51,6.688,6.688,0,0,1,3.064,3.064,1.4,1.4,0,0,0,1.246.77h.009a1.413,1.413,0,0,0,1.258-.763c.1-.2.217-.394.336-.58C9.78,44.206,10.5,45.4,10.5,45.4a3.118,3.118,0,0,1,.411,1.143l.217,2.154a.855.855,0,0,0,.85.77q.043,0,.087,0a.856.856,0,0,0,.765-.937l-.219-2.174c0-.013,0-.025,0-.038a4.817,4.817,0,0,0-.64-1.795s-.855-1.424-2.087-3.473A7.273,7.273,0,0,1,11.5,39.928a1.412,1.412,0,0,0,.045-2.49,7.923,7.923,0,0,1-3.17-3.125,1.413,1.413,0,0,0-2.5.033l-.02.037L5.753,34.2a11.976,11.976,0,0,1,1.1-13.891l.139-.166a11.533,11.533,0,0,1,11.4-3.857L24.252,17.6a.855.855,0,0,0,.368,0l4.811-1.045A15.1,15.1,0,0,0,32.15,23.99a.856.856,0,0,0,1.4-.987,13.412,13.412,0,0,1-2.46-7.487c0-.01,0-.02,0-.031,0-.088-.005-.176-.005-.264A13.509,13.509,0,1,1,45.619,28.691h-.005q-.506.038-1.023.038a13.515,13.515,0,0,1-8.724-3.2.856.856,0,1,0-1.106,1.306,15.229,15.229,0,0,0,9.83,3.6h.07a11.5,11.5,0,0,1-1.4,3.522l-2.277,3.783a.856.856,0,1,0,1.466.882l2.277-3.783a13.194,13.194,0,0,0,1.7-4.514A15.242,15.242,0,0,0,59.812,15.221ZM7.144,35.594a9.559,9.559,0,0,0,3.107,3.067,8.745,8.745,0,0,0-2.028,1.624.84.84,0,0,0-.077.082,8.806,8.806,0,0,0-1.018,1.38,8.388,8.388,0,0,0-3.075-3.072,8.947,8.947,0,0,0,2.421-2.108A.835.835,0,0,0,6.53,36.5a8.646,8.646,0,0,0,.615-.9Z" fill="#616161"/>
    <path id="Path_84882" data-name="Path 84882" d="M302.1,48.368h-4.585a1.761,1.761,0,0,0-1.759,1.759V54.02h-3.893a1.761,1.761,0,0,0-1.759,1.759v4.585a1.761,1.761,0,0,0,1.759,1.759h3.893v3.893a1.761,1.761,0,0,0,1.759,1.759H302.1a1.761,1.761,0,0,0,1.759-1.759V62.122h3.893a1.761,1.761,0,0,0,1.759-1.759V55.778a1.761,1.761,0,0,0-1.759-1.759H303.86V50.127A1.761,1.761,0,0,0,302.1,48.368Zm5.652,7.363a.048.048,0,0,1,.047.047v4.585a.048.048,0,0,1-.047.047H303a.856.856,0,0,0-.856.856v4.749a.048.048,0,0,1-.048.047h-4.585a.047.047,0,0,1-.047-.047V61.267a.856.856,0,0,0-.856-.856h-4.749a.048.048,0,0,1-.048-.047V55.778a.048.048,0,0,1,.048-.047h4.749a.856.856,0,0,0,.856-.856V50.127a.048.048,0,0,1,.047-.047H302.1a.048.048,0,0,1,.048.047v4.749a.856.856,0,0,0,.856.856h4.749Z" transform="translate(-255.218 -42.85)" fill="#616161"/>
  </g>
</svg>
