<svg xmlns="http://www.w3.org/2000/svg" width="18.897" height="20.35" viewBox="0 0 18.897 20.35">
  <g id="Group_20252" data-name="Group 20252" transform="translate(-12.436 -12.317)">
    <g id="Group_20190" data-name="Group 20190" transform="translate(12.436 25.399)">
      <g id="Group_20189" data-name="Group 20189">
        <path id="Path_89535" data-name="Path 89535" d="M35.236,307.2a.727.727,0,0,0-.727.727v4.361a.727.727,0,0,1-.727.727H19.246a.727.727,0,0,1-.727-.727v-4.361a.727.727,0,0,0-1.454,0v4.361a2.18,2.18,0,0,0,2.18,2.18H33.782a2.18,2.18,0,0,0,2.18-2.18v-4.361A.727.727,0,0,0,35.236,307.2Z" transform="translate(-17.066 -307.2)" fill="#bcd38b"/>
      </g>
    </g>
    <g id="Group_20192" data-name="Group 20192" transform="translate(17.532 12.317)">
      <g id="Group_20191" data-name="Group 20191">
        <path id="Path_89536" data-name="Path 89536" d="M145.225,12.569a.727.727,0,0,0-1.01,0l-2.395,2.393V.727a.727.727,0,0,0-1.454,0V14.962l-2.393-2.393a.727.727,0,0,0-1.028,1.028l3.634,3.634a.727.727,0,0,0,1.028,0h0l3.634-3.634A.727.727,0,0,0,145.225,12.569Z" transform="translate(-136.742)" fill="#bcd38b"/>
      </g>
    </g>
  </g>
</svg>
