<svg xmlns="http://www.w3.org/2000/svg" width="29.475" height="22.106" viewBox="0 0 29.475 22.106">
  <g id="Group_7519" data-name="Group 7519" transform="translate(-556.5 -390)">
    <g id="Group_7516" data-name="Group 7516" transform="translate(556.5 326)">
      <g id="Group_7386" data-name="Group 7386" transform="translate(0 64)">
        <path id="Path_87002" data-name="Path 87002" d="M7.131,65.794c4.045,3.426,11.144,9.453,13.23,11.333a1.232,1.232,0,0,0,1.783,0c2.088-1.881,9.186-7.909,13.232-11.335a.614.614,0,0,0,.086-.847A2.439,2.439,0,0,0,33.534,64H8.972a2.438,2.438,0,0,0-1.927.946A.614.614,0,0,0,7.131,65.794Z" transform="translate(-6.516 -64)" fill="#fff"/>
        <path id="Path_87003" data-name="Path 87003" d="M29.119,126.469a.611.611,0,0,0-.655.089c-4.486,3.8-10.212,8.678-12.013,10.3a2.487,2.487,0,0,1-3.428,0c-1.92-1.73-8.35-7.2-12.012-10.3A.614.614,0,0,0,0,127.026v15.443a2.459,2.459,0,0,0,2.456,2.456H27.019a2.459,2.459,0,0,0,2.456-2.456V127.026A.614.614,0,0,0,29.119,126.469Z" transform="translate(0 -122.819)" fill="#fff"/>
      </g>
    </g>
  </g>
</svg>
