<svg xmlns="http://www.w3.org/2000/svg" width="32.475" height="29.877" viewBox="0 0 32.475 29.877">
  <g id="Group_7520" data-name="Group 7520" transform="translate(-922.5 -353.361)">
    <path id="Path_1369" data-name="Path 1369" d="M201,.806V12.5h16.935V.806A.806.806,0,0,0,217.129,0H201.806A.806.806,0,0,0,201,.806Zm4.052,2.1h4.457a.951.951,0,1,1,0,1.9h-4.457a.951.951,0,0,1,0-1.9Zm0,4.766h8.83a.951.951,0,0,1,0,1.9h-8.83a.951.951,0,0,1,0-1.9Z" transform="translate(734.249 353.361)" fill="#fff"/>
    <path id="Path_1370" data-name="Path 1370" d="M176.98,227H159.537A2.374,2.374,0,0,0,157,229.167v11.1a2.374,2.374,0,0,0,2.537,2.167H176.98a2.374,2.374,0,0,0,2.537-2.167v-11.1A2.374,2.374,0,0,0,176.98,227Zm-13.161,11.781H162.55a.823.823,0,1,1,0-1.625h1.269a.823.823,0,1,1,0,1.625Zm0-3.25H162.55a.823.823,0,1,1,0-1.625h1.269a.823.823,0,1,1,0,1.625Zm0-3.25H162.55a.823.823,0,1,1,0-1.625h1.269a.823.823,0,1,1,0,1.625Zm5.074,6.5h-1.269a.823.823,0,1,1,0-1.625h1.269a.823.823,0,1,1,0,1.625Zm0-3.25h-1.269a.823.823,0,1,1,0-1.625h1.269a.823.823,0,1,1,0,1.625Zm0-3.25h-1.269a.823.823,0,1,1,0-1.625h1.269a.823.823,0,1,1,0,1.625Zm5.074,6.5H172.7a.823.823,0,1,1,0-1.625h1.269a.823.823,0,1,1,0,1.625Zm0-3.25H172.7a.823.823,0,1,1,0-1.625h1.269a.823.823,0,1,1,0,1.625Zm0-3.25H172.7a.823.823,0,1,1,0-1.625h1.269a.823.823,0,1,1,0,1.625Z" transform="translate(775.458 140.801)" fill="#fff"/>
    <path id="Path_1371" data-name="Path 1371" d="M4.222,227H1.941A2.063,2.063,0,0,0,0,229.167v11.1a2.063,2.063,0,0,0,1.941,2.167H4.222a2.063,2.063,0,0,0,1.941-2.167v-11.1A2.063,2.063,0,0,0,4.222,227Z" transform="translate(922.5 140.801)" fill="#fff"/>
  </g>
</svg>
