<svg xmlns="http://www.w3.org/2000/svg" width="55.462" height="50" viewBox="0 0 55.462 50">
  <g id="Group_20240" data-name="Group 20240" transform="translate(-744 -2644)">
    <path id="Path_28703" data-name="Path 28703" d="M26.707,65.565H4.81a3.184,3.184,0,0,1-3.18-3.18v-25.1H7.054a.815.815,0,1,0,0-1.631H1.631V33.374a3.184,3.184,0,0,1,3.18-3.18H8.867v.939a2.5,2.5,0,0,0,5,0v-.939h2.04v.939a2.5,2.5,0,0,0,5,0v-.939h2.04v.939a2.5,2.5,0,0,0,5,0v-.939h2.04v.939a2.5,2.5,0,0,0,5,0v-.939h2.04v.939a2.5,2.5,0,0,0,5,0v-.939h4.056a3.184,3.184,0,0,1,3.18,3.18v2.281H10.529a.815.815,0,1,0,0,1.631H49.262V47.872a.815.815,0,0,0,1.631,0v-14.5a4.816,4.816,0,0,0-4.81-4.81H42.025v-.939a2.5,2.5,0,1,0-5,0v.939h-2.04v-.939a2.5,2.5,0,1,0-5,0v.939h-2.04v-.939a2.5,2.5,0,0,0-5,0v.939h-2.04v-.939a2.5,2.5,0,0,0-5,0v.939h-2.04v-.939a2.5,2.5,0,0,0-5,0v.939H4.81A4.816,4.816,0,0,0,0,33.373V62.385A4.816,4.816,0,0,0,4.81,67.2h21.9a.815.815,0,0,0,0-1.631ZM38.656,27.624a.869.869,0,1,1,1.739,0v3.508a.869.869,0,1,1-1.739,0Zm-7.04,0a.869.869,0,1,1,1.739,0v3.508a.869.869,0,1,1-1.739,0Zm-7.04,0a.869.869,0,0,1,1.739,0v3.508a.869.869,0,0,1-1.739,0Zm-7.04,0a.869.869,0,1,1,1.739,0v3.508a.869.869,0,1,1-1.739,0Zm-7.04,0a.869.869,0,0,1,1.739,0v3.508a.869.869,0,0,1-1.739,0Z" transform="translate(744 2618.876)" fill="#bcd38b"/>
    <path id="Path_28704" data-name="Path 28704" d="M274.984,236.34a13.574,13.574,0,0,0-11.7,6.737.815.815,0,0,0,1.41.819,11.835,11.835,0,1,1-1.235,3.02.815.815,0,0,0-1.58-.4,13.521,13.521,0,1,0,13.1-10.174Z" transform="translate(510.959 2430.621)" fill="#bcd38b"/>
    <path id="Path_28705" data-name="Path 28705" d="M379.964,268.984v-.707a.815.815,0,1,0-1.631,0v.707a.815.815,0,1,0,1.631,0Z" transform="translate(406.794 2402.882)" fill="#bcd38b"/>
    <path id="Path_28706" data-name="Path 28706" d="M319.017,294.707a.815.815,0,0,0,.577-1.392l-.5-.5a.815.815,0,0,0-1.153,1.153l.5.5A.813.813,0,0,0,319.017,294.707Z" transform="translate(460.835 2380.497)" fill="#bcd38b"/>
    <path id="Path_28707" data-name="Path 28707" d="M294.108,354.84a.815.815,0,0,0,0-1.631H293.4a.815.815,0,0,0,0,1.631Z" transform="translate(483.22 2326.456)" fill="#bcd38b"/>
    <path id="Path_28708" data-name="Path 28708" d="M317.94,411.133a.815.815,0,0,0,1.153,0l.5-.5a.815.815,0,0,0-1.153-1.153l-.5.5A.815.815,0,0,0,317.94,411.133Z" transform="translate(460.835 2276.515)" fill="#bcd38b"/>
    <path id="Path_28709" data-name="Path 28709" d="M378.333,433.266v.707a.815.815,0,1,0,1.631,0v-.707a.815.815,0,1,0-1.631,0Z" transform="translate(406.794 2255.828)" fill="#bcd38b"/>
    <path id="Path_28710" data-name="Path 28710" d="M434.6,410.634l.5.5a.815.815,0,0,0,1.153-1.153l-.5-.5a.815.815,0,0,0-1.153,1.153Z" transform="translate(356.853 2276.514)" fill="#bcd38b"/>
    <path id="Path_28711" data-name="Path 28711" d="M459.1,354.84a.815.815,0,0,0,0-1.631h-.707a.815.815,0,0,0,0,1.631Z" transform="translate(336.167 2326.456)" fill="#bcd38b"/>
    <path id="Path_28712" data-name="Path 28712" d="M435.182,294.707a.813.813,0,0,0,.577-.239l.5-.5a.815.815,0,1,0-1.153-1.153l-.5.5a.815.815,0,0,0,.576,1.392Z" transform="translate(356.852 2380.497)" fill="#bcd38b"/>
    <path id="Path_28713" data-name="Path 28713" d="M345.631,315.531a.815.815,0,1,0-1.212,1.09l1.865,2.074a2.877,2.877,0,1,0,5.1.39l1.5-1.227a.815.815,0,0,0-1.032-1.262l-1.5,1.227a2.872,2.872,0,0,0-2.858-.219Zm4.35,4.67a1.247,1.247,0,1,1-2.084-.922l0,0,0-.005a1.245,1.245,0,0,1,2.074.931Z" transform="translate(437.208 2360.279)" fill="#bcd38b"/>
    <path id="Path_28714" data-name="Path 28714" d="M52,164.859a1.891,1.891,0,0,0-1.889-1.889H47.694a1.891,1.891,0,0,0-1.889,1.889v2.418a1.891,1.891,0,0,0,1.889,1.889h2.418A1.891,1.891,0,0,0,52,167.277Zm-1.631,2.418a.259.259,0,0,1-.258.258H47.694a.259.259,0,0,1-.258-.258v-2.418a.259.259,0,0,1,.258-.258h2.418a.259.259,0,0,1,.258.258Z" transform="translate(703.174 2496.015)" fill="#bcd38b"/>
    <path id="Path_28715" data-name="Path 28715" d="M131.522,164.859a1.891,1.891,0,0,0-1.889-1.889h-2.418a1.891,1.891,0,0,0-1.889,1.889v2.418a1.891,1.891,0,0,0,1.889,1.889h2.418a1.891,1.891,0,0,0,1.889-1.889Zm-1.631,2.418a.259.259,0,0,1-.258.258h-2.418a.259.259,0,0,1-.258-.258v-2.418a.259.259,0,0,1,.258-.258h2.418a.259.259,0,0,1,.258.258Z" transform="translate(632.298 2496.015)" fill="#bcd38b"/>
    <path id="Path_28716" data-name="Path 28716" d="M206.736,162.97a1.891,1.891,0,0,0-1.889,1.889v2.418a1.891,1.891,0,0,0,1.889,1.889h2.418a1.891,1.891,0,0,0,1.889-1.889v-2.418a1.891,1.891,0,0,0-1.889-1.889Zm2.676,1.889v2.418a.259.259,0,0,1-.258.258h-2.418a.259.259,0,0,1-.258-.258v-2.418a.259.259,0,0,1,.258-.258h2.418A.259.259,0,0,1,209.412,164.859Z" transform="translate(561.421 2496.015)" fill="#bcd38b"/>
    <path id="Path_28717" data-name="Path 28717" d="M286.257,162.97a1.891,1.891,0,0,0-1.889,1.889v2.418a1.891,1.891,0,0,0,1.889,1.889h2.418a1.891,1.891,0,0,0,1.889-1.889v-2.418a1.891,1.891,0,0,0-1.889-1.889Zm2.676,1.889v2.418a.259.259,0,0,1-.258.258h-2.418a.259.259,0,0,1-.258-.258v-2.418a.259.259,0,0,1,.258-.258h2.418A.259.259,0,0,1,288.933,164.859Z" transform="translate(490.545 2496.015)" fill="#bcd38b"/>
    <path id="Path_28718" data-name="Path 28718" d="M365.779,162.97a1.891,1.891,0,0,0-1.889,1.889v2.418a1.891,1.891,0,0,0,1.889,1.889H368.2a1.891,1.891,0,0,0,1.889-1.889v-2.418a1.891,1.891,0,0,0-1.889-1.889Zm2.676,1.889v2.418a.259.259,0,0,1-.258.258h-2.418a.259.259,0,0,1-.258-.258v-2.418a.259.259,0,0,1,.258-.258H368.2A.259.259,0,0,1,368.455,164.859Z" transform="translate(419.667 2496.015)" fill="#bcd38b"/>
    <path id="Path_28719" data-name="Path 28719" d="M52,240.62a1.891,1.891,0,0,0-1.889-1.889H47.694a1.891,1.891,0,0,0-1.889,1.889v2.418a1.891,1.891,0,0,0,1.889,1.889h2.418A1.891,1.891,0,0,0,52,243.038Zm-1.631,2.418a.259.259,0,0,1-.258.258H47.694a.259.259,0,0,1-.258-.258V240.62a.259.259,0,0,1,.258-.258h2.418a.259.259,0,0,1,.258.258Z" transform="translate(703.174 2428.49)" fill="#bcd38b"/>
    <path id="Path_28720" data-name="Path 28720" d="M131.522,240.62a1.891,1.891,0,0,0-1.889-1.889h-2.418a1.891,1.891,0,0,0-1.889,1.889v2.418a1.891,1.891,0,0,0,1.889,1.889h2.418a1.891,1.891,0,0,0,1.889-1.889Zm-1.631,2.418a.259.259,0,0,1-.258.258h-2.418a.259.259,0,0,1-.258-.258V240.62a.259.259,0,0,1,.258-.258h2.418a.259.259,0,0,1,.258.258Z" transform="translate(632.298 2428.49)" fill="#bcd38b"/>
    <path id="Path_28721" data-name="Path 28721" d="M211.043,240.62a1.891,1.891,0,0,0-1.889-1.889h-2.418a1.891,1.891,0,0,0-1.889,1.889v2.418a1.891,1.891,0,0,0,1.889,1.889h2.418a1.891,1.891,0,0,0,1.889-1.889Zm-1.631,2.418a.259.259,0,0,1-.258.258h-2.418a.259.259,0,0,1-.258-.258V240.62a.259.259,0,0,1,.258-.258h2.418a.259.259,0,0,1,.258.258Z" transform="translate(561.421 2428.49)" fill="#bcd38b"/>
    <path id="Path_28722" data-name="Path 28722" d="M50.112,314.492H47.694a1.891,1.891,0,0,0-1.889,1.889V318.8a1.891,1.891,0,0,0,1.889,1.889h2.418A1.891,1.891,0,0,0,52,318.8v-2.418A1.891,1.891,0,0,0,50.112,314.492Zm.258,4.307a.259.259,0,0,1-.258.258H47.694a.259.259,0,0,1-.258-.258v-2.418a.259.259,0,0,1,.258-.258h2.418a.259.259,0,0,1,.258.258Z" transform="translate(703.174 2360.964)" fill="#bcd38b"/>
    <path id="Path_28723" data-name="Path 28723" d="M129.633,314.492h-2.418a1.891,1.891,0,0,0-1.889,1.889V318.8a1.891,1.891,0,0,0,1.889,1.889h2.418a1.891,1.891,0,0,0,1.889-1.889v-2.418A1.891,1.891,0,0,0,129.633,314.492Zm.258,4.307a.259.259,0,0,1-.258.258h-2.418a.259.259,0,0,1-.258-.258v-2.418a.259.259,0,0,1,.258-.258h2.418a.259.259,0,0,1,.258.258Z" transform="translate(632.298 2360.964)" fill="#bcd38b"/>
  </g>
</svg>
