<svg xmlns="http://www.w3.org/2000/svg" width="55.878" height="51.878" viewBox="0 0 55.878 51.878">
  <g id="Group_20238" data-name="Group 20238" transform="translate(-186.722 -2681.789)">
    <path id="Path_28690" data-name="Path 28690" d="M75.768,56.2c-.783-2.724-1.4-5.092-1.842-7.038a22.117,22.117,0,0,0-3.206-7.435,10.625,10.625,0,0,1,.48-12.459,5.722,5.722,0,0,1,.776,1.793l.34,1.389a1.1,1.1,0,0,0,2.136,0l.34-1.389a6.3,6.3,0,0,1,3.773-4.224.818.818,0,0,0,.123-.067,1.153,1.153,0,0,0,.328-1.59q.332-.018.664-.016a10.627,10.627,0,0,1,5.563,1.622,6.372,6.372,0,0,0,6.737,0,10.521,10.521,0,0,1,4.379-1.547.818.818,0,0,0-.194-1.625A12.146,12.146,0,0,0,91.108,25.4a4.727,4.727,0,0,1-5,0,12.282,12.282,0,0,0-9.172-1.583,5.819,5.819,0,0,1-2.147-3.263l-.34-1.389a1.1,1.1,0,0,0-2.136,0l-.34,1.389A6.3,6.3,0,0,1,68.2,24.778a.818.818,0,0,0-.123.067,1.156,1.156,0,0,0,0,1.924.809.809,0,0,0,.123.067,7.624,7.624,0,0,1,1.9,1.183,12.267,12.267,0,0,0-.741,14.615,20.487,20.487,0,0,1,2.971,6.887c.446,1.976,1.074,4.375,1.866,7.129a.818.818,0,0,0,1.573-.452ZM73.383,21.57a7.645,7.645,0,0,0,3.592,4.238,7.645,7.645,0,0,0-3.592,4.238,7.645,7.645,0,0,0-3.591-4.238,7.646,7.646,0,0,0,3.591-4.238Z" transform="translate(126.771 2663.462)" fill="#bcd38b"/>
    <path id="Path_28691" data-name="Path 28691" d="M178.671,83.425l-1.246-.009a12.863,12.863,0,0,1-3.568-.485A12.294,12.294,0,0,0,164.411,68.3a.818.818,0,1,0-.343,1.6,10.659,10.659,0,0,1,8.246,12.408,5.183,5.183,0,0,1-1.233-.873,6.324,6.324,0,0,1-.6-.7A1.834,1.834,0,0,0,169,80h0a1.84,1.84,0,0,0-1.484.742,6.592,6.592,0,0,1-.609.7c-.726.726-2.516,1.949-6.345,1.977l-1.246.009a1.385,1.385,0,0,0-1.372,1.381V93.18a12.469,12.469,0,0,0,4.824,9.85l1.8,1.4c-.658,2.16-1.4,4.5-2.2,6.959a2.452,2.452,0,0,1-4.716-.192c-1.407-5.9-2.473-10.9-3.168-14.844a1.656,1.656,0,0,0-1.654-1.388h0a1.656,1.656,0,0,0-1.654,1.388c-.7,3.95-1.761,8.945-3.168,14.844a2.452,2.452,0,0,1-4.716.192c-.848-2.6-1.624-5.057-2.307-7.311a.818.818,0,0,0-1.566.475c.686,2.265,1.466,4.736,2.318,7.344a4.088,4.088,0,0,0,7.863-.321c1.415-5.931,2.487-10.957,3.188-14.94,0-.019.007-.029.006-.027a.1.1,0,0,1,.071,0,.1.1,0,0,1,.009.031c.7,3.98,1.773,9.007,3.188,14.94a4,4,0,0,0,3.81,3.136q.092,0,.183,0a4,4,0,0,0,3.87-2.819c.733-2.246,1.414-4.391,2.028-6.393l.917.712a3.473,3.473,0,0,0,4.26,0l4.1-3.18a12.47,12.47,0,0,0,4.824-9.851V84.807A1.385,1.385,0,0,0,178.671,83.425Zm-.265,9.755a10.833,10.833,0,0,1-4.191,8.558l-4.1,3.18a1.836,1.836,0,0,1-2.253,0l-4.1-3.18a10.833,10.833,0,0,1-4.191-8.558V85.06l.993-.007c4.412-.032,6.586-1.553,7.49-2.456a8.268,8.268,0,0,0,.761-.876.215.215,0,0,1,.175-.088h0a.207.207,0,0,1,.171.086,7.975,7.975,0,0,0,.757.878c.727.727,2.913,2.423,7.49,2.456l.993.007Z" transform="translate(62.557 2618.955)" fill="#bcd38b"/>
    <path id="Path_28692" data-name="Path 28692" d="M351.819,215.552a17.186,17.186,0,0,1-3.955-.9,11.2,11.2,0,0,1-2.129-1.024,1.8,1.8,0,0,0-1.905,0,11.214,11.214,0,0,1-2.129,1.025,17.184,17.184,0,0,1-3.955.9,1.175,1.175,0,0,0-1.043,1.169v5.625a9.577,9.577,0,0,0,3.73,7.616l3.629,2.817a1.176,1.176,0,0,0,1.443,0l3.629-2.817a9.617,9.617,0,0,0,3.535-5.674.818.818,0,0,0-1.6-.326,7.981,7.981,0,0,1-2.935,4.707l-3.347,2.6-3.347-2.6a7.952,7.952,0,0,1-3.1-6.323v-5.218a18.546,18.546,0,0,0,3.923-.939,12.845,12.845,0,0,0,2.441-1.177.149.149,0,0,1,.16,0,12.84,12.84,0,0,0,2.441,1.177,18.53,18.53,0,0,0,3.923.939v2.981a.818.818,0,1,0,1.636,0v-3.388A1.175,1.175,0,0,0,351.819,215.552Z" transform="translate(-113.234 2489.719)" fill="#bcd38b"/>
    <path id="Path_28693" data-name="Path 28693" d="M381.916,258.737l-4.077,5.174-1.982-2.588a.818.818,0,1,0-1.3.995l2.622,3.424a.818.818,0,0,0,.644.321h.006a.818.818,0,0,0,.642-.312l4.729-6a.818.818,0,1,0-1.285-1.013Z" transform="translate(-146.807 2449.567)" fill="#bcd38b"/>
    <path id="Path_28694" data-name="Path 28694" d="M6.239,265.925a.81.81,0,0,0-.123-.067A2.715,2.715,0,0,1,4.445,264l-.171-.7h0a.96.96,0,0,0-1.865,0l-.171.7a2.715,2.715,0,0,1-1.672,1.855.818.818,0,0,0-.123.067.988.988,0,0,0,0,1.645.822.822,0,0,0,.123.068,2.715,2.715,0,0,1,1.672,1.855l.171.7a.96.96,0,0,0,1.865,0l.171-.7a2.715,2.715,0,0,1,1.672-1.855,1.042,1.042,0,0,0,.563-.89A.986.986,0,0,0,6.239,265.925Zm-2.9,2a4.227,4.227,0,0,0-1.073-1.177,4.225,4.225,0,0,0,1.073-1.177,4.227,4.227,0,0,0,1.073,1.177,4.227,4.227,0,0,0-1.073,1.177Z" transform="translate(186.72 2445.874)" fill="#bcd38b"/>
    <path id="Path_28695" data-name="Path 28695" d="M167.511,133.13a2.715,2.715,0,0,1-1.672-1.855l-.171-.7a.96.96,0,0,0-1.865,0l-.171.7a2.715,2.715,0,0,1-1.672,1.855.823.823,0,0,0-.123.068.988.988,0,0,0,0,1.645.809.809,0,0,0,.123.067,2.715,2.715,0,0,1,1.672,1.855l.171.7a.96.96,0,0,0,1.865,0l.171-.7a2.715,2.715,0,0,1,1.672-1.855,1.042,1.042,0,0,0,.563-.89A1.075,1.075,0,0,0,167.511,133.13Zm-2.776,2.067a4.227,4.227,0,0,0-1.073-1.177,4.227,4.227,0,0,0,1.073-1.177,4.225,4.225,0,0,0,1.073,1.177A4.227,4.227,0,0,0,164.735,135.2Z" transform="translate(42.94 2564.116)" fill="#bcd38b"/>
  </g>
</svg>
