<svg xmlns="http://www.w3.org/2000/svg" width="49.147" height="60.5" viewBox="0 0 49.147 60.5">
  <g id="Group_20240" data-name="Group 20240" transform="translate(-496.344 -2217.5)">
    <path id="Path_84869" data-name="Path 84869" d="M368.774,242.864a.887.887,0,0,0-.879-.893l-1.322-.01a.886.886,0,0,0-.013,1.772l1.322.01h.006A.886.886,0,0,0,368.774,242.864Zm0,0" transform="translate(173.816 2004.13)" fill="#bcd38b"/>
    <path id="Path_84870" data-name="Path 84870" d="M361.92,212.059a.88.88,0,0,0,.436-.116l1.15-.653a.886.886,0,1,0-.875-1.541l-1.15.652a.887.887,0,0,0,.439,1.658Zm0,0" transform="translate(177.914 2032.637)" fill="#bcd38b"/>
    <path id="Path_84871" data-name="Path 84871" d="M361.067,270.339l1.14.67a.886.886,0,0,0,.9-1.528l-1.14-.67a.886.886,0,1,0-.9,1.528Zm0,0" transform="translate(178.27 1980.561)" fill="#bcd38b"/>
    <path id="Path_84872" data-name="Path 84872" d="M2.636,243.744h.007l1.322-.01a.886.886,0,0,0-.006-1.772H3.952l-1.322.01a.886.886,0,0,0,.006,1.772Zm0,0" transform="translate(494.742 2004.13)" fill="#bcd38b"/>
    <path id="Path_84873" data-name="Path 84873" d="M8.3,211.29l1.15.653a.886.886,0,0,0,.875-1.541l-1.15-.653A.886.886,0,1,0,8.3,211.29Zm0,0" transform="translate(489.363 2032.637)" fill="#bcd38b"/>
    <path id="Path_84874" data-name="Path 84874" d="M9.915,268.813l-1.14.67a.886.886,0,1,0,.9,1.528l1.14-.67a.886.886,0,0,0-.9-1.528Zm0,0" transform="translate(488.933 1980.559)" fill="#bcd38b"/>
    <path id="Path_84875" data-name="Path 84875" d="M49.388,11.319a.887.887,0,0,0-1.253,0l-2.244,2.244a19.4,19.4,0,0,0-3.51-.521c-5.112-.277-10.287,1.55-14.961,5.286q-1.759,1.4-3.508,2.555l-2.475-2.475,1.7-1.7,1.481,1.482a.886.886,0,0,0,1.253-1.254l-1.481-1.481,1.7-1.7,1.481,1.482a.886.886,0,0,0,1.254-1.253L27.35,12.494l1.7-1.7,1.482,1.481a.886.886,0,0,0,1.253-1.253L30.307,9.537l1.7-1.7,2.9,2.9a.886.886,0,0,0,1.253-1.253l-2.9-2.9L38.33,1.514A.886.886,0,1,0,37.077.26L22.04,15.3l-.021,0a19.72,19.72,0,0,1-3.792-.7,9.577,9.577,0,0,0-12.15,7.946.886.886,0,1,0,1.758.23,7.805,7.805,0,0,1,9.9-6.474,21.377,21.377,0,0,0,2.714.6L15.338,22a3.586,3.586,0,0,0,0,5.067L16.4,28.129l-3.748,3.748a2.2,2.2,0,0,0,0,3.118l.373.373L11.2,37.2c-.408-1.876-.736-3.225-.981-4.031l-.01-.032L8.172,26.26a.886.886,0,1,0-1.7.5l2.036,6.885c0,.006,0,.012.005.018l0,.011c.173.568.4,1.457.667,2.64a4.648,4.648,0,0,0-3.337.476l-4.4,2.451A1.843,1.843,0,0,0,.5,40.854V58.66A1.843,1.843,0,0,0,2.341,60.5H45.053a1.843,1.843,0,0,0,1.841-1.841v-10a.886.886,0,0,0-1.772,0v10a.068.068,0,0,1-.068.068H2.341a.068.068,0,0,1-.068-.068V40.854a.068.068,0,0,1,.035-.06l4.4-2.451a2.894,2.894,0,0,1,2.909.037l.02.011.064.3L6.653,41.742a.886.886,0,0,0,1.253,1.253l2.225-2.225q.289,1.424.613,3.084c.688,3.526,1.346,7.094,1.778,9.465a3.757,3.757,0,0,0,3.529,3.092,3.7,3.7,0,0,0,3.779-3.133l1.678-10.864a2.215,2.215,0,0,1,4.379,0l1.678,10.863a3.7,3.7,0,0,0,7.3.1c.62-3.411,1.87-10.162,2.9-14.987.015-.007.03-.014.045-.023a2.9,2.9,0,0,1,2.884-.023l4.4,2.452a.069.069,0,0,1,.035.06V44.8a.886.886,0,1,0,1.772,0V40.854a1.843,1.843,0,0,0-.945-1.608l-4.4-2.451a4.653,4.653,0,0,0-3.338-.475c.254-1.114.482-2.029.666-2.636.005-.015.01-.03.014-.047L41,26.49a9.489,9.489,0,0,0-.022-5.51l8.408-8.408a.886.886,0,0,0,0-1.254Zm-32.8,11.933,3.59-3.59,2.19,2.19a32.155,32.155,0,0,1-6.289,2.942A1.808,1.808,0,0,1,16.592,23.251Zm-2.684,9.879,3.748-3.748,2.611,2.611-3.748,3.748a.432.432,0,0,1-.611,0l-2-2a.432.432,0,0,1,0-.611Zm25.4-7.143-2.117,7.158v0l0,.011c-.959,3.151-2.959,13.819-4.065,19.9a1.926,1.926,0,0,1-3.8-.052L27.639,42.143a3.988,3.988,0,0,0-7.882,0L18.079,53.008a1.926,1.926,0,0,1-1.969,1.632A1.975,1.975,0,0,1,14.267,53c-.433-2.377-1.093-5.952-1.782-9.487q-.463-2.369-.851-4.247l2.646-2.646.373.373a2.2,2.2,0,0,0,3.118,0l3.748-3.748,1.064,1.064a3.583,3.583,0,0,0,5.067,0l3.083-3.083a.886.886,0,0,0-1.253-1.253L26.4,33.057a1.811,1.811,0,0,1-2.56,0l-6.74-6.74a39.772,39.772,0,0,0,11.428-6.6c4.391-3.508,9.022-5.158,13.758-4.9a17.521,17.521,0,0,1,2.11.247L32.376,27.078a.886.886,0,0,0,1.254,1.254l5.885-5.885a7.771,7.771,0,0,1-.211,3.541Zm0,0" transform="translate(495.844 2217.499)" fill="#bcd38b"/>
    <path id="Path_84876" data-name="Path 84876" d="M178.564,214.691h-.017a.886.886,0,0,0,0,1.772h.017a.886.886,0,0,0,0-1.772Zm0,0" transform="translate(339.618 2028.178)" fill="#bcd38b"/>
    <path id="Path_84877" data-name="Path 84877" d="M251.215,173.476a.886.886,0,0,0-.882-.89h-.013a.886.886,0,1,0-.008,1.772h.017A.886.886,0,0,0,251.215,173.476Zm0,0" transform="translate(276.329 2065.308)" fill="#bcd38b"/>
    <path id="Path_84878" data-name="Path 84878" d="M261.137,200.746a.885.885,0,0,0-.878-.894h-.021a.886.886,0,0,0-.008,1.772h.021A.886.886,0,0,0,261.137,200.746Zm0,0" transform="translate(267.58 2041.263)" fill="#bcd38b"/>
  </g>
</svg>
