<svg xmlns="http://www.w3.org/2000/svg" width="39.25" height="30.314" viewBox="0 0 39.25 30.314">
  <g id="Group_20270" data-name="Group 20270" transform="translate(-1153 -16864.336)">
    <g id="Group_20269" data-name="Group 20269">
      <path id="Path_87040" data-name="Path 87040" d="M39.249,70.723c-.062-6.1-1.074-9.718-3.183-11.372-1.869-1.466-4.288-1.14-6.187-.692a44.907,44.907,0,0,1-20.508,0,8.055,8.055,0,0,0-5.188.091.575.575,0,0,0,.468,1.05,7.022,7.022,0,0,1,4.456-.023,46.06,46.06,0,0,0,21.036,0c2.448-.577,4.056-.43,5.213.478,1.511,1.185,2.386,3.817,2.656,8.014a3.165,3.165,0,0,0-4.215.315,3.759,3.759,0,0,0-6.4-.988,4.326,4.326,0,0,0-7.768-.56,4.326,4.326,0,0,0-7.768.56,3.76,3.76,0,0,0-6.4.988,3.166,3.166,0,0,0-4.216-.315c.217-3.414.832-5.776,1.863-7.184a.575.575,0,1,0-.928-.68C.763,62.332.053,65.7,0,70.717q0,.032,0,.064v7.155a3.167,3.167,0,0,0,4.2,3V82.34a6.252,6.252,0,0,0,7.178,6.184,60.523,60.523,0,0,1,11.4-.488.575.575,0,0,0,.055-1.149,61.6,61.6,0,0,0-11.624.5A5.1,5.1,0,0,1,5.345,82.34v-2.1l.108-.107a3.76,3.76,0,0,0,6.4.988,4.325,4.325,0,0,0,7.768.56,4.325,4.325,0,0,0,7.768-.56,3.758,3.758,0,0,0,6.4-.988l.108.107v2.1a5.1,5.1,0,0,1-5.857,5.047c-.915-.138-1.891-.254-2.9-.343a.575.575,0,0,0-.1,1.145c.985.087,1.937.2,2.829.334a6.252,6.252,0,0,0,7.178-6.184V80.935a3.172,3.172,0,0,0,4.2-3C39.25,77.9,39.25,70.766,39.249,70.723ZM8.946,81.355a2.61,2.61,0,0,1-2.607-2.607V74.934h5.215c0,4.055.01,3.845-.013,4.08A2.611,2.611,0,0,1,8.946,81.355ZM1.169,70.509a2,2,0,0,1,.361-.9,2.02,2.02,0,0,1,3.659,1.176v3H1.15c0-3.12-.011-3.053.019-3.275Zm7.777-3.146a2.61,2.61,0,0,1,2.607,2.607v3.814H6.338V69.971a2.61,2.61,0,0,1,2.607-2.607Zm6.931-1.347A3.177,3.177,0,0,1,19.05,69.19v4.594H12.7V69.19A3.177,3.177,0,0,1,15.877,66.016ZM12.7,74.934H19.05v4.594a3.173,3.173,0,1,1-6.347,0Zm7.5,4.594V74.934h6.347v4.594a3.173,3.173,0,0,1-6.347,0ZM30.3,67.363a2.61,2.61,0,0,1,2.607,2.607v3.814H27.7V69.971A2.61,2.61,0,0,1,30.3,67.363ZM27.7,74.934h5.215v3.814a2.607,2.607,0,1,1-5.215,0V74.934Zm6.365-4.153a2.019,2.019,0,0,1,3.994-.423,24.529,24.529,0,0,1,.045,3.426H34.061ZM26.547,69.19v4.594H20.2V69.19a3.173,3.173,0,0,1,6.347,0ZM1.15,77.937v-3H5.189c0,3.137.195,3.8-.75,4.572A2.021,2.021,0,0,1,1.15,77.937Zm36.95,0a2.019,2.019,0,0,1-4.037.08c0-.081,0-.742,0-3.083H38.1Z" transform="translate(1153 16806.055)" fill="#bcd38b"/>
    </g>
  </g>
</svg>
