<svg xmlns="http://www.w3.org/2000/svg" width="37.287" height="50.802" viewBox="0 0 37.287 50.802">
  <g id="Group_20262" data-name="Group 20262" transform="translate(-1154.915 -11370)">
    <g id="Group_20261" data-name="Group 20261">
      <path id="Path_87034" data-name="Path 87034" d="M41.351,42.382a15.353,15.353,0,0,0-5.574-2.69c-.88-1.531-.406-1.328-2.944-1.328V35.328a6.7,6.7,0,0,0,1.6-.93,12.688,12.688,0,0,0,5.744-6.057c.533-1.167.22-.973.694-.973a4.652,4.652,0,0,0,2.115-8.789V15.525a.846.846,0,0,0,.846-.846V12.988a11,11,0,0,0-11-11c-8.391,0-11.25-.55-14.888,2.072a.846.846,0,0,0-.195,1.176c.99,1.379,1.929-1.556,6.623-1.556h8.459A9.3,9.3,0,0,1,39.98,7.067a9.482,9.482,0,0,1,2.157,6.767c-10.151,0-9.178.059-9.085-.127a5.075,5.075,0,1,0-8.9,0c.093.169,1.007.118-9.085.118a10.624,10.624,0,0,1,.313-3.231.846.846,0,0,0-1.624-.457,15.031,15.031,0,0,0-.381,4.542.846.846,0,0,0,.846.846v3.062a4.652,4.652,0,0,0,2.419,8.78,12.688,12.688,0,0,0,6.15,7.055,6.97,6.97,0,0,0,1.582.905v3.037c-2.5,0-2.072-.2-2.944,1.328a15.387,15.387,0,0,0-11,10.7l-.44,1.269a.846.846,0,1,0,1.624.474l.364-1.277a13.729,13.729,0,0,1,8.18-9l-1.6,2.851a.846.846,0,0,0,.271,1.125l1.836,1.227-1.692,2.605c-.271.414-.127.609.381,2.453a.846.846,0,0,0,1.633-.44l-.381-1.4,1.971-2.986a.846.846,0,0,0-.245-1.167l-1.878-1.252,2.715-4.813h1.4c3.384,12.764,3.172,12.122,3.434,12.392a.846.846,0,0,0,1.362-.279c.127-.313,1.523-5.659,3.265-12.155h1.4l2.749,4.813c-3.054,2.03-2.91,1.218-.152,5.405-.271.973-.846,2.157.211,2.436a.846.846,0,0,0,.846-.237c.22-.237.161-.195.694-2.123.127-.5-.118-.685-1.827-3.29l1.836-1.227a.846.846,0,0,0,.271-1.125l-1.633-2.851a14.059,14.059,0,0,1,3.248,1.819C41.292,44.531,42.357,43.186,41.351,42.382ZM28.6,48.616l-1.2-4.509a4.145,4.145,0,0,0,2.4,0ZM38.627,27.664A10.768,10.768,0,0,1,37.1,30.1c-.33.414,0,.135,0-1.04V25.143l2.538-2.961A11.665,11.665,0,0,1,38.627,27.664Zm2.411-1.988a14.381,14.381,0,0,0,.254-2.538c0-3.384-.1-2.817.3-3.282a2.952,2.952,0,0,1-.558,5.82Zm.254-7.613a7.444,7.444,0,0,1-4.8-2.538h4.8Zm-6.953-2.538A9.389,9.389,0,0,0,39.6,19.4c0,.262.414-.3-3.773,4.585h-1.3a.846.846,0,0,0,0,1.692h.846V29.06a4.8,4.8,0,0,1-2.089,4.035,11.064,11.064,0,0,1-8.577.321c-3.333-1.117-2.868-4.644-2.868-7.74h9.3a.846.846,0,1,0,0-1.692H21.379l-3.629-4.229c3.7,0,6.615-.271,10.151-2.368,1.277-.753,1.438-1.049,1.929-1.176a4.466,4.466,0,0,0,1.235-.474C31.564,15.458,30.887,15.525,34.338,15.525ZM28.6,7.912A3.384,3.384,0,1,1,25.22,11.3,3.384,3.384,0,0,1,28.6,7.912Zm-2.808,7.613c.981.66,1.21.44.888.617-4,2.233-7.308,1.92-10.768,1.92V15.525ZM15.644,19.856c.423.491.3-.093.3,3.282a14.286,14.286,0,0,0,.254,2.538,2.952,2.952,0,0,1-.592-5.82Zm1.962,4.128c-.042-.533,0-.575,0-1.827l2.538,2.961a33.036,33.036,0,0,0,.118,5.143,10.853,10.853,0,0,1-2.656-6.276ZM31.141,35.742c0,4,.211,2.538-.736,6.065a2.6,2.6,0,0,1-3.612,0c-.914-3.443-.727-2.039-.727-6.04a44.077,44.077,0,0,0,5.075,0Z" transform="translate(1144.955 11368.057)" fill="#bcd38b"/>
      <path id="Path_87035" data-name="Path 87035" d="M53.132,59.432c-.846-2.791-1.277-4.3-3.189-6.716a.871.871,0,1,0-1.4,1.032,13.3,13.3,0,0,1,1.852,2.986c1.142,2.335.761,3.781,1.895,3.781a.846.846,0,0,0,.846-1.083Z" transform="translate(1139.036 11360.287)" fill="#bcd38b"/>
      <path id="Path_87036" data-name="Path 87036" d="M17.63,8.5l.068-.144a.848.848,0,1,0-1.32-1.066C15.3,8.688,17.088,9.483,17.63,8.5Z" transform="translate(1144.019 11367.281)" fill="#bcd38b"/>
    </g>
  </g>
</svg>
