<svg xmlns="http://www.w3.org/2000/svg" width="48.582" height="45.396" viewBox="0 0 48.582 45.396">
  <g id="Group_20265" data-name="Group 20265" transform="translate(-1142.912 -13191.334)">
    <path id="Path_87033" data-name="Path 87033" d="M72.905,64.223H63.763a8.609,8.609,0,0,0,.981-5h0a8.716,8.716,0,0,0-13.492-6.294,8.709,8.709,0,0,0-4.779-1.449v-1.6a3.982,3.982,0,1,0-1.593,0v1.73a8.714,8.714,0,0,0-7.12,7.609,8.607,8.607,0,0,0,.981,5H30.395a3.039,3.039,0,0,0-3.036,3.035V82.767A3.039,3.039,0,0,0,30.395,85.8h12.1a.8.8,0,0,0,0-1.593h-12.1a1.444,1.444,0,0,1-1.443-1.442V67.258a1.444,1.444,0,0,1,1.443-1.442h9.442a6.52,6.52,0,0,1,1.13,1.885,12.781,12.781,0,0,1,.942,3.731,24.062,24.062,0,0,0,1.281,8.607,2.884,2.884,0,0,0,2.359,1.756.749.749,0,0,0,.128.026c.022,0,.04-.011.061-.012.057,0,.112.012.17.012a2.953,2.953,0,0,0,2.956-2.943v-7.1A2.7,2.7,0,0,1,51.252,69.1a2.7,2.7,0,0,1,2.389,2.673v7.1A2.953,2.953,0,0,0,56.6,81.82c.058,0,.113-.009.17-.012.021,0,.039.012.061.012a.748.748,0,0,0,.128-.026,2.884,2.884,0,0,0,2.359-1.756A24.066,24.066,0,0,0,60.6,71.432a12.789,12.789,0,0,1,.942-3.732,6.523,6.523,0,0,1,1.13-1.884H72.906a1.444,1.444,0,0,1,1.443,1.442V82.767a1.444,1.444,0,0,1-1.443,1.442H57.624a.8.8,0,0,0-1.593,0H46.474a.8.8,0,1,0-1.593,0V86.6a.8.8,0,1,0,1.593,0v-.8h9.557v.8a.8.8,0,0,0,1.593,0v-.8H72.906a3.039,3.039,0,0,0,3.036-3.035V67.258A3.04,3.04,0,0,0,72.905,64.223ZM43.287,45.981a2.389,2.389,0,1,1,2.389,2.389A2.392,2.392,0,0,1,43.287,45.981Zm1.377,33.454A22.916,22.916,0,0,1,43.5,71.421a13.761,13.761,0,0,0-1.041-4.275,8.179,8.179,0,0,0-1.472-2.44,7.008,7.008,0,0,1-1.643-5.319,7.112,7.112,0,0,1,5.535-6.155V79.774A1.187,1.187,0,0,1,44.664,79.435Zm10.57-.558v-7.1a4.288,4.288,0,0,0-3.905-4.266.747.747,0,0,0-.154,0,4.288,4.288,0,0,0-3.905,4.266v7.1a1.349,1.349,0,0,1-.8,1.225V65.892a4.779,4.779,0,1,1,9.557,0V80.1A1.349,1.349,0,0,1,55.234,78.877Zm6.282-14.172a8.184,8.184,0,0,0-1.472,2.44A13.762,13.762,0,0,0,59,71.421a22.911,22.911,0,0,1-1.163,8.014,1.188,1.188,0,0,1-.216.339V65.892a6.363,6.363,0,0,0-11.15-4.2V53.073a7.125,7.125,0,0,1,4.164,1.369.8.8,0,0,0,.47.154H51.4a.794.794,0,0,0,.47-.154,7.123,7.123,0,0,1,11.292,4.944h0a7.008,7.008,0,0,1-1.642,5.318Z" transform="translate(1115.553 13149.335)" fill="#bcd38b"/>
  </g>
</svg>
