<svg xmlns="http://www.w3.org/2000/svg" width="50.057" height="50.081" viewBox="0 0 50.057 50.081">
  <g id="Group_20259" data-name="Group 20259" transform="translate(-1144.306 -9486)">
    <path id="Path_87041" data-name="Path 87041" d="M41.558,218.726a2.057,2.057,0,0,0-1.025.249,13.643,13.643,0,0,0,.742-4.244,5.788,5.788,0,0,0-8.7-4.891,2.774,2.774,0,0,1-2.707,0,5.69,5.69,0,0,0-3.137-.785,5.789,5.789,0,0,0-4.836,2.98,5.779,5.779,0,0,0-7.973-2.2,2.617,2.617,0,0,1-2.706,0,5.816,5.816,0,0,0-4.83-.46.734.734,0,0,0,.491,1.382,4.331,4.331,0,0,1,3.606.348l.02.011a4.054,4.054,0,0,0,3.968.085,3.8,3.8,0,0,0,2.374,1.838,2.315,2.315,0,0,1,1.757,1.884c.306,1.149.863,2.364,2.184,2.557-.972,3.805-3.2,7.3-3.793,11.2-.235,1.536-1.049.961-1.429-.177s-.665-2.287-1-3.429a2.046,2.046,0,0,0-3.99,0c-.333,1.142-.621,2.3-1,3.429s-1.194,1.714-1.429.177c-.725-4.748-4.277-9.023-4.168-13.918a4.28,4.28,0,0,1,.447-1.816.734.734,0,0,0-1.315-.651,5.736,5.736,0,0,0-.6,2.434,13.272,13.272,0,0,0,.679,4.038,2.241,2.241,0,0,0-2.338,1.4c-.487.915-.731,4.032-.727,9.266,0,1.915,1.021,3.606,3.03,5.025,3.2,2.264,9,3.768,15.891,4.127,5.962.31,12.307-.073,17.978-2.076a.734.734,0,0,0-.489-1.383c-4.48,1.582-10.989,2.328-17.414,1.994-6.626-.344-12.137-1.751-15.121-3.86-1.6-1.129-2.409-2.417-2.41-3.828,0-5.551.3-8.089.555-8.575.55-1.034,1.486-.773,1.811.147,1.057,2.992,2.32,5.161,2.738,7.9.461,3.019,3.375,2.745,4.271.067.384-1.147.677-2.323,1.015-3.483.219-.751.954-.751,1.173,0,.339,1.16.632,2.337,1.015,3.483.893,2.668,3.812,2.935,4.271-.067a31.7,31.7,0,0,1,2.25-6.632,1.275,1.275,0,0,1,2.4-.02,31.807,31.807,0,0,1,2.258,6.652c.461,3.019,3.375,2.745,4.271.067.384-1.147.677-2.323,1.015-3.483.219-.751.954-.751,1.173,0,.338,1.161.632,2.337,1.015,3.483.893,2.668,3.812,2.935,4.271-.067a29.166,29.166,0,0,1,1.867-5.668c.337-.844,1.461-3.091,2.544-3.042.2.008.448.254.681.676.13.236.556,1.551.549,8.565,0,1.467-.875,2.8-2.6,3.959a.734.734,0,0,0,.819,1.217c2.152-1.449,3.244-3.19,3.246-5.175.007-7.938-.53-8.91-.733-9.276a2.342,2.342,0,0,0-1.909-1.432Zm-7.318-7.069c.043.7-.557,1-1.18.833-1.685-.454-2.328.11-3.609,1.233-.73.641-1.176-.477-.976-1.064a3.275,3.275,0,0,0,.165-1.8,5.985,5.985,0,0,0,2.835.813c1.057-.072,1.87-.727,2.858-1a2.9,2.9,0,0,0-.094.981Zm-13.169,4.385c-.726-.051-.956-1.041-1.088-1.611a3.519,3.519,0,0,0-2.651-2.769,2.438,2.438,0,0,1-1.51-1.024,4.32,4.32,0,0,1,5.335,4.124A7.859,7.859,0,0,1,21.072,216.042Zm.843,3.89h-.022a2.838,2.838,0,0,0-.334.021q.177-.509.334-1.013.156.5.334,1.013a2.8,2.8,0,0,0-.311-.021Zm13.726,8.749c-.235,1.537-1.049.96-1.429-.177-.2-.587-.484-1.609-.715-2.43-.107-.381-.206-.731-.284-1a2.042,2.042,0,0,0-3.99,0c-.333,1.142-.621,2.3-1,3.429s-1.195,1.713-1.429.177a30.017,30.017,0,0,0-1.954-5.99c-1.113-2.793-2.264-5.68-2.214-7.928a4.338,4.338,0,0,1,4.02-4.234,1.177,1.177,0,0,1,.445,1.643A2.349,2.349,0,0,0,27.857,215a2.1,2.1,0,0,0,2.563-.172c1.238-1.086,1.354-1.163,2.26-.919a2.311,2.311,0,0,0,3.026-2.339c-.032-.527.244-1.044.838-.918a4.345,4.345,0,0,1,3.266,4.114c.046,2.06-.917,4.657-1.934,7.225l0,0-.278.7a30.02,30.02,0,0,0-1.954,5.99Z" transform="translate(1144.184 9297.399)" fill="#bcd38b"/>
    <path id="Path_87042" data-name="Path 87042" d="M204.9,189.928a.73.73,0,0,0,.467-.168l1.386-1.147a.734.734,0,0,0-.935-1.13l-1.386,1.147A.748.748,0,0,0,204.9,189.928Z" transform="translate(960.078 9317.01)" fill="#bcd38b"/>
    <path id="Path_87043" data-name="Path 87043" d="M182.171,173.119a.789.789,0,0,0,.8-.661l.166-1.739a.734.734,0,0,0-1.46-.139l-.166,1.739A.734.734,0,0,0,182.171,173.119Z" transform="translate(980.539 9332.683)" fill="#bcd38b"/>
    <path id="Path_87044" data-name="Path 87044" d="M330.158,16.961l-4.515-2.239,1.57-3.167A.734.734,0,0,0,325.9,10.9l-1.57,3.167L320.347,12.1a61.182,61.182,0,0,0,4.72-4.821l4.44,2.2a.734.734,0,0,0,.652-1.314l-4.293-2.129a1.99,1.99,0,0,0-1.051-2.2L317.488.2a2.009,2.009,0,0,0-2.647.891l-2.651,5.346a4.985,4.985,0,0,0,1.334,6.355l-2.562,5.167a.734.734,0,0,0,1.314.652l2.556-5.154a5,5,0,0,0,4.142-.4l10.531,5.221A.735.735,0,0,0,330.158,16.961Zm-15.35-5.107a3.429,3.429,0,0,1-1.3-4.767l2.651-5.346a.514.514,0,0,1,.681-.229l7.325,3.632c.6,0,.131.76.067.884l-3.968,4.155C318.177,12.256,316.6,12.74,314.808,11.854Z" transform="translate(863.815 9486)" fill="#bcd38b"/>
  </g>
</svg>
