<svg xmlns="http://www.w3.org/2000/svg" width="29.891" height="40.75" viewBox="0 0 29.891 40.75">
  <g id="Group_20272" data-name="Group 20272" transform="translate(-1162.281 -18018.5)">
    <path id="Path_87037" data-name="Path 87037" d="M27.621,2.5c-4.307,1.519-5.209-.848-9.258-.482a9.048,9.048,0,0,0-4.551,1.757.678.678,0,0,0-.136.95c.76,1.031,1.424-1.045,4.809-1.357a7.766,7.766,0,0,1,3.269.4,9.408,9.408,0,0,0,6.308,0c7.515-2.645,13.6,6.559,8.614,12.751-.956,1.194-1.553,4.416-1.994,5.7a2.232,2.232,0,0,1-2.1,1.472H29.656a.678.678,0,0,0,0,1.357h1.357l-.176,2.53-11.938-1L18.8,25.046h8.139a.678.678,0,0,0,0-1.357H17.237a2.218,2.218,0,0,1-2.1-1.465c-.448-1.282-1.045-4.5-2.035-5.7a8.214,8.214,0,0,1-1.424-7.583.678.678,0,0,0-1.289-.407,9.557,9.557,0,0,0,1.655,8.818c.678.875,1.357,4.07,1.777,5.291a3.6,3.6,0,0,0,3.622,2.4l.095,1.418-.719-.061a.68.68,0,1,0-.109,1.357l.916.075.136,2.035-.943-.075a.68.68,0,1,0-.109,1.357l1.146.095L18,33.233l-.488-.047a.681.681,0,1,0-.122,1.357l.678.061a3.026,3.026,0,0,0,.549,2.035l-.421-.061a.682.682,0,1,0-.136,1.357l1.357.142c2.408,4.605,2.272,4.605,2.815,4.605,5.365,0,5.684.156,5.955-.359.631-1.2,1.146-2.177,1.655-3.154l1.106.122a.682.682,0,0,0,.136-1.357l-.563-.061c.9-1.7.983-1.879,1.072-2.035l.78.061a.679.679,0,0,0,.061-1.357l-.678-.061.142-2.035,1.153.061a.679.679,0,1,0,.054-1.357l-1.133-.095.136-2.035.943.095a.679.679,0,0,0,.054-1.357l-.9-.075.17-2.638a3.588,3.588,0,0,0,3.581-2.374c.421-1.2,1.072-4.416,1.777-5.291C43.574,10.124,36.392-.592,27.621,2.5Zm-.441,38.824H22.636l-1.614-3.086,7.366.78Zm3.2-6.966-7.461-.678a.681.681,0,1,0-.122,1.357l7.332.678c-.387.726-.733,1.357-1.065,2.035l-8.818-.922c-.909-1.736-.746-1.3-.8-2.076l.766.068a.679.679,0,0,0,.061-1.357l-.922-.081-.136-1.994,11.293.936Zm.231-3.391-11.476-.977-.142-2.035,11.761.977Z" transform="translate(1152.323 18016.547)" fill="#bcd38b"/>
    <path id="Path_87038" data-name="Path 87038" d="M22.109,7.469a13.959,13.959,0,0,0,6.62,1.811,13.959,13.959,0,0,0,6.62-1.811.678.678,0,0,0-.678-1.153,12.84,12.84,0,0,1-5.942,1.608,12.84,12.84,0,0,1-5.915-1.608.678.678,0,0,0-.705,1.153Z" transform="translate(1148.503 18015.166)" fill="#bcd38b"/>
    <path id="Path_87039" data-name="Path 87039" d="M13.148,8.627a.678.678,0,1,0-.678-.678A.678.678,0,0,0,13.148,8.627Z" transform="translate(1151.515 18014.836)" fill="#bcd38b"/>
  </g>
</svg>
