<svg xmlns="http://www.w3.org/2000/svg" width="41.938" height="51.625" viewBox="0 0 41.938 51.625">
  <g id="Group_20283" data-name="Group 20283" transform="translate(-1153 -7403.652)">
    <path id="Path_84869" data-name="Path 84869" d="M368.32,242.732a.757.757,0,0,0-.75-.762l-1.128-.008a.756.756,0,0,0-.011,1.512l1.128.008h.006A.756.756,0,0,0,368.32,242.732Zm0,0" transform="translate(824.142 7186.088)" fill="#bcd38b"/>
    <path id="Path_84870" data-name="Path 84870" d="M361.789,211.7a.751.751,0,0,0,.372-.1l.981-.557a.756.756,0,1,0-.746-1.315l-.982.556a.757.757,0,0,0,.374,1.414Zm0,0" transform="translate(828.321 7215.156)" fill="#bcd38b"/>
    <path id="Path_84871" data-name="Path 84871" d="M361,270.1l.973.572a.756.756,0,0,0,.766-1.3l-.973-.571a.756.756,0,1,0-.766,1.3Zm0,0" transform="translate(828.683 7162.056)" fill="#bcd38b"/>
    <path id="Path_84872" data-name="Path 84872" d="M2.506,243.482h.006l1.128-.009a.756.756,0,0,0-.006-1.512H3.629L2.5,241.97a.756.756,0,0,0,.006,1.512Zm0,0" transform="translate(1151.376 7186.088)" fill="#bcd38b"/>
    <path id="Path_84873" data-name="Path 84873" d="M8.233,211.047l.982.557a.756.756,0,1,0,.746-1.315l-.982-.557a.756.756,0,1,0-.746,1.315Zm0,0" transform="translate(1145.891 7215.157)" fill="#bcd38b"/>
    <path id="Path_84874" data-name="Path 84874" d="M9.683,268.795l-.973.571a.756.756,0,1,0,.766,1.3l.972-.572a.756.756,0,1,0-.766-1.3Zm0,0" transform="translate(1145.453 7162.054)" fill="#bcd38b"/>
    <path id="Path_84875" data-name="Path 84875" d="M42.217,9.659a.757.757,0,0,0-1.069,0l-1.915,1.915a16.556,16.556,0,0,0-3-.444,18.823,18.823,0,0,0-12.767,4.51q-1.5,1.2-2.994,2.18l-2.112-2.112,1.454-1.454,1.264,1.264a.756.756,0,0,0,1.069-1.07l-1.264-1.264,1.454-1.454L23.606,13a.756.756,0,1,0,1.07-1.069l-1.264-1.264,1.453-1.453,1.264,1.264A.756.756,0,0,0,27.2,9.4L25.935,8.138l1.454-1.454,2.47,2.47a.756.756,0,0,0,1.069-1.069l-2.47-2.47,4.324-4.323A.756.756,0,1,0,31.712.222L18.88,13.053l-.018,0a16.827,16.827,0,0,1-3.236-.6A8.172,8.172,0,0,0,5.258,19.231a.756.756,0,1,0,1.5.2A6.66,6.66,0,0,1,15.206,13.9a18.241,18.241,0,0,0,2.316.509l-4.359,4.359a3.06,3.06,0,0,0,0,4.324L14.07,24l-3.2,3.2a1.881,1.881,0,0,0,0,2.661l.318.318L9.627,31.743C9.28,30.142,9,28.991,8.79,28.3l-.008-.027L7.047,22.409a.756.756,0,1,0-1.45.429l1.738,5.875,0,.015,0,.009c.148.485.339,1.243.569,2.253a3.967,3.967,0,0,0-2.847.406L1.307,33.489A1.572,1.572,0,0,0,.5,34.861V50.056a1.573,1.573,0,0,0,1.571,1.571H38.518a1.573,1.573,0,0,0,1.571-1.571V41.524a.756.756,0,0,0-1.512,0v8.532a.058.058,0,0,1-.058.058H2.071a.058.058,0,0,1-.058-.058V34.861a.058.058,0,0,1,.03-.051L5.8,32.719a2.47,2.47,0,0,1,2.482.032l.017.009.054.258-2.6,2.6A.756.756,0,0,0,6.82,36.689l1.9-1.9q.247,1.215.523,2.631c.587,3.009,1.149,6.053,1.517,8.077a3.206,3.206,0,0,0,3.011,2.639A3.158,3.158,0,0,0,17,45.463l1.432-9.271a1.89,1.89,0,0,1,3.736,0l1.432,9.27a3.156,3.156,0,0,0,6.225.084c.529-2.91,1.6-8.671,2.47-12.789.013-.006.026-.012.039-.02a2.473,2.473,0,0,1,2.461-.02l3.756,2.092a.059.059,0,0,1,.03.051v3.37a.756.756,0,0,0,1.512,0v-3.37a1.573,1.573,0,0,0-.807-1.372L35.526,31.4a3.971,3.971,0,0,0-2.848-.406c.217-.951.411-1.731.568-2.249,0-.013.008-.026.012-.04l1.8-6.1a8.1,8.1,0,0,0-.019-4.7l7.175-7.175a.756.756,0,0,0,0-1.07ZM14.231,19.841l3.064-3.064,1.869,1.869A27.439,27.439,0,0,1,13.8,21.156,1.543,1.543,0,0,1,14.231,19.841Zm-2.29,8.43,3.2-3.2L17.367,27.3l-3.2,3.2a.369.369,0,0,1-.521,0l-1.706-1.706a.369.369,0,0,1,0-.521Zm21.671-6.1L31.8,28.284v0l0,.009c-.818,2.689-2.525,11.792-3.469,16.98a1.644,1.644,0,0,1-3.242-.044l-1.432-9.271a3.4,3.4,0,0,0-6.726,0L15.5,45.232a1.644,1.644,0,0,1-1.68,1.392,1.685,1.685,0,0,1-1.573-1.4c-.369-2.028-.933-5.079-1.521-8.1Q10.332,35.11,10,33.508l2.258-2.258.318.318a1.881,1.881,0,0,0,2.661,0l3.2-3.2.908.908a3.058,3.058,0,0,0,4.324,0L26.3,26.647a.756.756,0,0,0-1.069-1.069L22.6,28.208a1.545,1.545,0,0,1-2.184,0l-5.751-5.751a33.938,33.938,0,0,0,9.752-5.636c3.747-2.994,7.7-4.4,11.74-4.182a14.951,14.951,0,0,1,1.8.211L27.7,23.106a.756.756,0,0,0,1.07,1.07l5.022-5.022a6.631,6.631,0,0,1-.18,3.022Zm0,0" transform="translate(1152.5 7403.651)" fill="#bcd38b"/>
    <path id="Path_84876" data-name="Path 84876" d="M178.431,214.691h-.015a.756.756,0,0,0,0,1.512h.015a.756.756,0,0,0,0-1.512Zm0,0" transform="translate(993.203 7210.609)" fill="#bcd38b"/>
    <path id="Path_84877" data-name="Path 84877" d="M250.953,173.345a.756.756,0,0,0-.753-.76h-.011a.756.756,0,1,0-.007,1.512h.014A.756.756,0,0,0,250.953,173.345Zm0,0" transform="translate(928.67 7248.469)" fill="#bcd38b"/>
    <path id="Path_84878" data-name="Path 84878" d="M260.875,200.615a.756.756,0,0,0-.749-.763h-.018a.756.756,0,0,0-.007,1.513h.018A.756.756,0,0,0,260.875,200.615Zm0,0" transform="translate(919.749 7223.952)" fill="#bcd38b"/>
  </g>
</svg>
