<svg xmlns="http://www.w3.org/2000/svg" width="47.579" height="50.912" viewBox="0 0 47.579 50.912">
  <g id="Group_20257" data-name="Group 20257" transform="translate(-1156.032 -5183)">
    <path id="Path_84865" data-name="Path 84865" d="M269.487,183.669a7.274,7.274,0,0,1-3.949-1.159.748.748,0,1,1,.812-1.257,5.8,5.8,0,0,0,6.193.051.748.748,0,1,1,.791,1.27,7.272,7.272,0,0,1-3.847,1.1Z" transform="translate(915.621 5019.933)" fill="#bcd38b"/>
    <path id="Path_84866" data-name="Path 84866" d="M25.3,1.133H21.44a2.592,2.592,0,0,0-4.735,1.46v9.132a6.349,6.349,0,0,0,1.872,4.519l2.629,2.629a1.2,1.2,0,0,1,.353.852v9.848a.748.748,0,1,0,1.5,0V19.726a2.682,2.682,0,0,0-.791-1.91l-2.629-2.629A4.863,4.863,0,0,1,18.2,11.726V2.593a1.1,1.1,0,0,1,2.194,0v9.132a2.682,2.682,0,0,0,.791,1.91l2.629,2.629a4.863,4.863,0,0,1,1.434,3.461V48.174a1.1,1.1,0,1,1-2.194,0V32.566a.748.748,0,0,0-1.5,0V48.174a2.593,2.593,0,1,0,5.186,0V19.726a6.349,6.349,0,0,0-1.872-4.519l-2.3-2.3H25.3a2.278,2.278,0,0,0,2.275-2.275V3.408A2.278,2.278,0,0,0,25.3,1.133Zm0,10.273H21.978V2.629H25.3a.78.78,0,0,1,.779.779v.1h-.8a.748.748,0,1,0,0,1.5h.8V6.434h-.8a.748.748,0,1,0,0,1.5h.8V9.357h-.8a.748.748,0,1,0,0,1.5h.769A.78.78,0,0,1,25.3,11.406Z" transform="translate(1139.327 5183)" fill="#bcd38b"/>
    <path id="Path_84867" data-name="Path 84867" d="M272.543,181.3a5.8,5.8,0,0,1-6.193-.051.748.748,0,1,0-.812,1.257,7.305,7.305,0,0,0,7.8.064.748.748,0,0,0-.791-1.27Z" transform="translate(915.621 5019.933)" fill="#bcd38b"/>
    <path id="Path_84868" data-name="Path 84868" d="M179.783,134.307a3.5,3.5,0,0,0-5.859-2.58,3.489,3.489,0,0,0-.632-.012,9.293,9.293,0,0,0-10.134-.033,3.5,3.5,0,0,1-3.789,0,9.321,9.321,0,0,0-13.1,12.531,37.659,37.659,0,0,1,2.52,5.189,3.5,3.5,0,0,0-1.146,6.3,3.682,3.682,0,0,0,3.5,3.132l.637,5.632a4.113,4.113,0,0,0,4.09,3.654h.015a4.115,4.115,0,0,0,3.986-3.088c.005-.02.01-.041.013-.062l1.053-6.2a.443.443,0,0,1,.466-.394h0a.443.443,0,0,1,.466.4l1.029,6.183c0,.02.008.041.013.061a4.116,4.116,0,0,0,8.081-.55l.687-6.115a36.179,36.179,0,0,1,.637-3.809.748.748,0,1,0-1.46-.325,37.648,37.648,0,0,0-.664,3.968L169.5,164.3a2.62,2.62,0,0,1-5.136.378l-1.023-6.15a1.94,1.94,0,0,0-1.939-1.646h0a1.94,1.94,0,0,0-1.941,1.64l-1.047,6.169a2.619,2.619,0,0,1-2.53,1.937h-.015a2.618,2.618,0,0,1-2.6-2.326l-.637-5.633c0-.024-.006-.048-.009-.072A3.7,3.7,0,0,0,154.9,154.3a3.5,3.5,0,0,0-4.625-5.209,39.144,39.144,0,0,0-2.713-5.636,7.824,7.824,0,0,1,11-10.52,5,5,0,0,0,5.413,0,7.8,7.8,0,0,1,7.48-.539,3.494,3.494,0,0,0,.131,5.7,3.693,3.693,0,0,0,4.271,3.083,7.729,7.729,0,0,1-.809,2.136,41.011,41.011,0,0,0-3.4,7.928.748.748,0,1,0,1.43.44,39.518,39.518,0,0,1,3.28-7.638,9.222,9.222,0,0,0,1.118-3.477.752.752,0,0,0,0-.092,3.694,3.694,0,0,0,1.364-3.782,3.473,3.473,0,0,0,.948-2.394Zm-29.9,16.516c.061.009.125.021.19.037a.748.748,0,0,0,.747-.244,2,2,0,1,1,2.763,2.867.748.748,0,0,0-.235.86,2.2,2.2,0,1,1-4.25.884.748.748,0,0,0-.408-.639,2,2,0,0,1,.907-3.786,2.025,2.025,0,0,1,.286.021Zm27.637-14.941a.748.748,0,0,0-.235.86,2.2,2.2,0,1,1-4.25.884.748.748,0,0,0-.408-.639,2,2,0,0,1,1.193-3.765c.061.009.125.021.19.037a.748.748,0,0,0,.747-.244,2,2,0,1,1,2.763,2.867Z" transform="translate(1023.828 5065.791)" fill="#bcd38b"/>
  </g>
</svg>
