<svg xmlns="http://www.w3.org/2000/svg" width="44.569" height="44.925" viewBox="0 0 44.569 44.925">
  <g id="Group_20254" data-name="Group 20254" transform="translate(-1150.765 -3352.156)">
    <path id="Path_84880" data-name="Path 84880" d="M107.181,354.8a.66.66,0,0,0-.906.225l-1.689,2.806a3.716,3.716,0,0,0-.494,1.384c0,.01,0,.019,0,.029l-.527,5.23v.013a2.834,2.834,0,0,1-5.642.074v-.013l-.849-6.622v-.009a2.063,2.063,0,0,0-.544-1.13l-.018-.019a2.076,2.076,0,0,0-3.563,1.118v.01l-.9,6.679,0,.013a2.85,2.85,0,0,1-2.9,2.513h-.034a2.831,2.831,0,0,1-2.738-2.6v-.013l-.076-.753a.66.66,0,1,0-1.313.132l.075.747a4.15,4.15,0,0,0,4.012,3.807H89.1l.125,0a4.179,4.179,0,0,0,4.128-3.679l.895-6.667a.755.755,0,0,1,.736-.64.746.746,0,0,1,.56.236l.018.02a.751.751,0,0,1,.2.408l.848,6.61a4.177,4.177,0,0,0,4.13,3.7l.111,0a4.147,4.147,0,0,0,4.028-3.808l.525-5.209a2.4,2.4,0,0,1,.317-.881l1.688-2.805A.66.66,0,0,0,107.181,354.8Z" transform="translate(1073.087 3028.663)" fill="#bcd38b"/>
    <path id="Path_84881" data-name="Path 84881" d="M46.592,11.739a11.739,11.739,0,0,0-23.474-.308l-3.805.827-4.385-.981A10.21,10.21,0,0,0,4.84,14.691l-.107.128A10.556,10.556,0,0,0,3.77,27.063l.384.635A5.782,5.782,0,0,1,2.6,28.87a1.089,1.089,0,0,0,.024,1.936,5.158,5.158,0,0,1,2.363,2.363,1.079,1.079,0,0,0,.961.594h.007a1.09,1.09,0,0,0,.97-.589c.081-.155.168-.3.259-.447.822,1.366,1.373,2.285,1.373,2.286a2.4,2.4,0,0,1,.317.882l.167,1.661a.66.66,0,0,0,.656.594q.033,0,.067,0a.66.66,0,0,0,.59-.723l-.169-1.676c0-.01,0-.019,0-.029a3.715,3.715,0,0,0-.494-1.384s-.659-1.1-1.61-2.679a5.609,5.609,0,0,1,1.254-.86,1.089,1.089,0,0,0,.035-1.921,6.11,6.11,0,0,1-2.445-2.41A1.09,1.09,0,0,0,5,26.489l-.015.028L4.9,26.38a9.237,9.237,0,0,1,.845-10.713l.107-.128a8.9,8.9,0,0,1,8.788-2.975l4.527,1.013a.659.659,0,0,0,.284,0l3.71-.806a11.645,11.645,0,0,0,2.1,5.73.66.66,0,0,0,1.078-.761,10.343,10.343,0,0,1-1.9-5.774c0-.008,0-.016,0-.024,0-.068,0-.136,0-.2A10.419,10.419,0,1,1,35.646,22.128h0q-.391.029-.789.03a10.423,10.423,0,0,1-6.729-2.465.66.66,0,1,0-.853,1.007,11.745,11.745,0,0,0,7.581,2.777h.054a8.867,8.867,0,0,1-1.076,2.716l-1.756,2.918a.66.66,0,1,0,1.131.68l1.756-2.918a10.175,10.175,0,0,0,1.308-3.482A11.756,11.756,0,0,0,46.592,11.739ZM5.973,27.452a7.373,7.373,0,0,0,2.4,2.366A6.744,6.744,0,0,0,6.805,31.07a.648.648,0,0,0-.06.063A6.792,6.792,0,0,0,5.96,32.2a6.469,6.469,0,0,0-2.371-2.369A6.9,6.9,0,0,0,5.456,28.2a.644.644,0,0,0,.043-.053,6.668,6.668,0,0,0,.474-.7Z" transform="translate(1148.742 3352.156)" fill="#bcd38b"/>
    <path id="Path_84882" data-name="Path 84882" d="M299.357,48.368h-3.536a1.358,1.358,0,0,0-1.356,1.356v3h-3a1.358,1.358,0,0,0-1.356,1.356v3.536a1.358,1.358,0,0,0,1.356,1.356h3v3a1.358,1.358,0,0,0,1.356,1.356h3.536a1.358,1.358,0,0,0,1.356-1.356v-3h3a1.358,1.358,0,0,0,1.356-1.356V54.083a1.358,1.358,0,0,0-1.356-1.356h-3v-3A1.358,1.358,0,0,0,299.357,48.368Zm4.359,5.679a.037.037,0,0,1,.037.037v3.536a.037.037,0,0,1-.037.037h-3.662a.66.66,0,0,0-.66.66v3.662a.037.037,0,0,1-.037.037h-3.536a.037.037,0,0,1-.037-.037V58.316a.66.66,0,0,0-.66-.66h-3.662a.037.037,0,0,1-.037-.037V54.083a.037.037,0,0,1,.037-.037h3.662a.66.66,0,0,0,.66-.66V49.724a.037.037,0,0,1,.037-.037h3.536a.037.037,0,0,1,.037.037v3.662a.66.66,0,0,0,.66.66h3.662Z" transform="translate(886.006 3308.044)" fill="#bcd38b"/>
  </g>
</svg>
