<svg xmlns="http://www.w3.org/2000/svg" width="37.398" height="47.715" viewBox="0 0 37.398 47.715">
  <g id="Group_20267" data-name="Group 20267" transform="translate(-1157.333 -15389.63)">
    <path id="path18171-0" d="M11.641,284.5c-3.406-.03-6.816,2.309-8.471,5.847-1.58,3.566-1.6,8.529.509,14.415,2.136,5.953,3.276,9.638,4.407,11.961.965,2.026,2.492,3.35,4.594,3.368a4.221,4.221,0,0,0,3.64-2.043,17.619,17.619,0,0,0,1.606-4.464.787.787,0,1,0-1.534-.348,14.643,14.643,0,0,1-1.37,3.986,2.463,2.463,0,0,1-2.342,1.331c-1.744-.015-2.612-1.284-3.212-2.5-1.024-2.1-2.2-5.83-4.34-11.807-2.017-5.623-1.918-10.189-.551-13.272,2.017-4.32,8.03-6.72,11.65-2.592.289.331.8.867,1.128,1.2A17.171,17.171,0,0,1,14.583,289c-1.032-.375-1.38,1.191-.584,1.424,2.2.809,7.243,1.6,9.563-.322a10.208,10.208,0,0,0,1.68-1.726,5.373,5.373,0,0,1,4.693-2.165,8.712,8.712,0,0,1,6.956,4.757c1.366,3.084,1.466,7.649-.551,13.272-2.144,5.977-3.316,9.7-4.34,11.807-.687,1.515-1.758,2.493-3.212,2.5-3.46,0-3.6-6.11-4.869-8.7-1.73-2.954-5.137-2.633-6.367,0-.385,1.068,1.052,1.408,1.432.584a1.967,1.967,0,0,1,3.574.134c1.485,3.033,1.214,9.521,6.23,9.521,2.5,0,3.721-1.594,4.594-3.368,1.131-2.323,2.271-6.008,4.407-11.961,2.112-5.886,2.089-10.849.509-14.415-2.607-5.445-10.219-8.149-14.216-2.981-1.963,2.827-4.7,2.33-6.695,0a7.478,7.478,0,0,0-5.745-2.867Z" transform="translate(1155.298 15117.255)" fill="#bcd38b"/>
    <path id="path4537" d="M11.177,282.133a.769.769,0,1,0,1.107,1.068l.977-1.016c.431-.476.719-.323,1.016.023l2.652,2.76a.769.769,0,0,0,.715.216l1.823-.387a.6.6,0,0,1,.738.784l-.914,3.986H8.218l-.989-4.16c-.094-.549.344-.738.813-.611l1.823.386a.77.77,0,0,0,.324-1.5l-1.811-.38a2.041,2.041,0,0,0-2.618,2.43l1.1,4.775a.769.769,0,0,0,.75.6H19.9a.769.769,0,0,0,.75-.6l1.045-4.554a2.171,2.171,0,0,0-2.6-2.646l-1.363.29-2.317-2.413c-1.147-1.125-2.285-1.122-3.273-.062-.333.338-.669.694-.975,1.016Z" transform="translate(1162.278 15109.302)" fill="#bcd38b"/>
  </g>
</svg>
