<svg xmlns="http://www.w3.org/2000/svg" width="48.742" height="47.967" viewBox="0 0 48.742 47.967">
  <g id="Group_20276" data-name="Group 20276" transform="translate(-1143.5 -19918.844)">
    <path id="Path_87015" data-name="Path 87015" d="M11.861,32.845a.827.827,0,1,0-.658.967A.827.827,0,0,0,11.861,32.845Z" transform="translate(1139.957 19911.182)" fill="#bcd38b"/>
    <path id="Path_87016" data-name="Path 87016" d="M31.29,47.975l-.325-1.316a2.86,2.86,0,0,0-5.557,0l-1.47,6.02a2.6,2.6,0,0,1-5.069-.089c-.479-2.307-1.17-5.687-1.722-8.384-1.007-4.793-3.014-6.28-3.948-7.921a.815.815,0,1,0-1.414.812c1.032,1.8,2.843,3.022,3.769,7.441.552,2.705,1.259,6.06,1.722,8.375a4.224,4.224,0,0,0,8.237.122l1.47-6.02a1.186,1.186,0,0,1,1.2-.91c1.186,0,1.243,1.1,1.527,2.258a.812.812,0,0,0,1.576-.39Z" transform="translate(1139.684 19910.488)" fill="#bcd38b"/>
    <path id="Path_87017" data-name="Path 87017" d="M45.487,25.651a4.476,4.476,0,0,1,2.713-.934.812.812,0,1,0,0-1.625,4.46,4.46,0,0,1-4.468-4.468.812.812,0,1,0-1.625,0,4.7,4.7,0,0,1-.138,1.121,10.918,10.918,0,0,0-6.263-2.705c-4.874-.422-5.922,2.331-11.056.561a11.073,11.073,0,0,0-14.541,9.05.819.819,0,1,0,1.625.2,9.44,9.44,0,0,1,12.4-7.717,11.527,11.527,0,0,0,7.555,0,9.367,9.367,0,0,1,9.57,2.145,4.444,4.444,0,0,1-3.615,1.812.812.812,0,1,0,0,1.625,4.476,4.476,0,0,1,4.468,4.468.812.812,0,1,0,1.625,0,4.492,4.492,0,0,1,.357-1.738,9.155,9.155,0,0,1-2.1,6.613,15.159,15.159,0,0,0-3.063,6.653c-1.852,9.082-1.69,9.107-2.624,9.862a2.6,2.6,0,0,1-4.167-1.4l-.39-1.625a.812.812,0,0,0-1.576.39l.39,1.625a4.232,4.232,0,0,0,6.767,2.275c1.535-1.243,1.4-2.023,3.193-10.8A13.5,13.5,0,0,1,43.245,35.1,10.926,10.926,0,0,0,45.487,25.651Zm-2.567.5A6.117,6.117,0,0,0,40.678,23.9a7.709,7.709,0,0,0,1.275-.967c1.625-1.625.26-1.69,1.942,0s1.625.276,0,1.942A5.825,5.825,0,0,0,42.92,26.146Z" transform="translate(1139.98 19914.029)" fill="#bcd38b"/>
    <path id="Path_87018" data-name="Path 87018" d="M30.109,24.888a16.718,16.718,0,0,0,7.929-2.169.812.812,0,0,0-.812-1.381,15.435,15.435,0,0,1-7.116,1.925,15.435,15.435,0,0,1-7.084-1.925.812.812,0,0,0-.812,1.381A16.718,16.718,0,0,0,30.109,24.888Z" transform="translate(1137.762 19913.225)" fill="#bcd38b"/>
    <path id="Path_87019" data-name="Path 87019" d="M5.249,31H2.812a.812.812,0,1,0,0,1.625H5.249a.812.812,0,1,0,0-1.625Z" transform="translate(1141.5 19911.402)" fill="#bcd38b"/>
    <path id="Path_87020" data-name="Path 87020" d="M60.249,31H57.812a.812.812,0,0,0,0,1.625h2.437a.812.812,0,1,0,0-1.625Z" transform="translate(1131.18 19911.402)" fill="#bcd38b"/>
    <path id="Path_87021" data-name="Path 87021" d="M32.625,5.249V2.812a.812.812,0,1,0-1.625,0V5.249a.812.812,0,1,0,1.625,0Z" transform="translate(1136.059 19916.844)" fill="#bcd38b"/>
    <path id="Path_87022" data-name="Path 87022" d="M8.42,44.1l-2.1,1.219a.815.815,0,1,0,.812,1.414l2.1-1.219A.815.815,0,0,0,8.42,44.1Z" transform="translate(1140.767 19908.963)" fill="#bcd38b"/>
    <path id="Path_87023" data-name="Path 87023" d="M54.327,19.343c.292,0,.195,0,2.51-1.324a.815.815,0,1,0-.812-1.414L53.9,17.823a.812.812,0,0,0,.422,1.519Z" transform="translate(1131.838 19914.123)" fill="#bcd38b"/>
    <path id="Path_87024" data-name="Path 87024" d="M17.823,9.232a.815.815,0,0,0,1.414-.812l-1.219-2.1a.815.815,0,1,0-1.414.812Z" transform="translate(1138.78 19916.111)" fill="#bcd38b"/>
    <path id="Path_87025" data-name="Path 87025" d="M45.518,9.232l1.219-2.1a.815.815,0,0,0-1.414-.812L44.1,8.42a.815.815,0,0,0,1.414.812Z" transform="translate(1133.62 19916.111)" fill="#bcd38b"/>
    <path id="Path_87026" data-name="Path 87026" d="M6.3,18.018c2.315,1.324,2.226,1.324,2.51,1.324a.812.812,0,0,0,.406-1.519L7.108,16.6A.815.815,0,1,0,6.3,18.018Z" transform="translate(1140.771 19914.123)" fill="#bcd38b"/>
    <path id="Path_87027" data-name="Path 87027" d="M56.838,45.323,54.718,44.1a.815.815,0,1,0-.812,1.414l2.1,1.219a.819.819,0,1,0,.829-1.414Z" transform="translate(1131.837 19908.963)" fill="#bcd38b"/>
  </g>
</svg>
