<svg xmlns="http://www.w3.org/2000/svg" width="37.689" height="44.674" viewBox="0 0 37.689 44.674">
  <g id="Group_20278" data-name="Group 20278" transform="translate(-1153.667 -20959.156)">
    <g id="Group_7331" data-name="Group 7331" transform="translate(1153.667 20959.156)">
      <g id="Group_7330" data-name="Group 7330" transform="translate(0 0)">
        <path id="Path_84883" data-name="Path 84883" d="M156.555,130.018a.654.654,0,0,0,.851-.363c2.88-7.154-3.3-13.7-9.595-9.962-6.088-3.611-12.574,2.562-9.595,9.962a9.421,9.421,0,0,0,3,4c-.4,4.056,1.207,8.521,2.987,8.523.629,0,1.023-.5,1.2-1.119.348-1.214-.056-2.1.5-3.812a2.027,2.027,0,0,1,1.221-1.283h0c2.1-.6,2.867,1.2,2.923,3.4a6.325,6.325,0,0,0,.193,1.769c.367,1.153,1.426,1.447,2.356.388,1.167-1.329,2.128-4.589,1.806-7.871a9.107,9.107,0,0,0,1.92-2.007.654.654,0,0,0-1.07-.753c-1.363,1.936-2.29,1.781-2.192,2.54.448,3.457-.713,6.554-1.56,7.346a25.058,25.058,0,0,1-.248-2.732h0a3.742,3.742,0,0,0-2.388-3.34c-1.687-.508-4,.06-4.495,3.324h0a26.069,26.069,0,0,1-.25,2.748c-.848-.792-2.008-3.89-1.56-7.346a.655.655,0,0,0-.276-.622,8.057,8.057,0,0,1-2.854-3.648c-2.531-6.288,2.888-11.561,8.019-8.155.683.453.971-.574,3.046-.967,4.717-.862,7.637,4.3,5.7,9.122A.654.654,0,0,0,156.555,130.018Z" transform="translate(-128.967 -108.259)" fill="#bcd38b"/>
        <path id="Path_84884" data-name="Path 84884" d="M102.767,55.4a.654.654,0,0,0,.654-.654V35.6a.654.654,0,0,0-.513-.639C86.363,31.305,87.361,31.5,87.153,31.542L71.68,34.961a.654.654,0,0,0-.513.639V59.254c0,4.067,4.356,6.962,8.01,8.674a36.04,36.04,0,0,0,8.267,2.75c5.97-1.413,15.977-5.264,15.977-11.424V56.838a.654.654,0,0,0-1.309,0v2.417c0,5.3-9.653,8.861-14.819,10.114-5.172-1.252-14.818-4.82-14.818-10.114V36.125l14.818-3.274,14.818,3.274V54.743A.654.654,0,0,0,102.767,55.4Z" transform="translate(-68.45 -28.775)" fill="#bcd38b"/>
        <path id="Path_84885" data-name="Path 84885" d="M76.136,3.768,65.56,1.432a.654.654,0,0,0-.282,1.278L75.854,5.046a.7.7,0,0,1,.552.688V30.48c0,4.741-4.571,7.958-8.821,9.949a37.074,37.074,0,0,1-8.861,2.92c-3.886-.83-10.836-3.206-14.547-6.839a8.38,8.38,0,0,1-2.841-6.031V5.734a.709.709,0,0,1,.552-.688L58.718,1.328c.213-.047-.045-.077,4.418.909A.654.654,0,0,0,63.419.959c-4.438-.98-4.4-1.037-4.983-.909L41.6,3.768a2,2,0,0,0-1.579,1.965V30.48a9.635,9.635,0,0,0,3.235,6.966c3.74,3.66,10.626,6.208,15.191,7.184a2.018,2.018,0,0,0,.839,0,45.935,45.935,0,0,0,8.85-3.015c4.824-2.26,9.575-5.834,9.575-11.135V5.734A2,2,0,0,0,76.136,3.768Z" transform="translate(-40.026 0)" fill="#bcd38b"/>
      </g>
    </g>
  </g>
</svg>
