<svg xmlns="http://www.w3.org/2000/svg" width="48.948" height="48.43" viewBox="0 0 48.948 48.43">
  <g id="Group_20274" data-name="Group 20274" transform="translate(-1146 -19052.572)">
    <path id="Path_87028" data-name="Path 87028" d="M42.208,39.125c6,6.013,6.348,6.9,8.433,6.9a3.723,3.723,0,0,0,2.5-6.516c-6.739-6.73-7.028-7.26-9.019-8.256V11.583A5.585,5.585,0,0,0,38.541,6c-7.083,0-6.627,0-6.869.074s-.223.121-1.126,1.024A6.581,6.581,0,0,0,21.991,8.13a.931.931,0,0,0,0,1.322l1.517,1.517A.935.935,0,0,0,24.83,9.647l-.838-.856a4.654,4.654,0,0,1,6.571,6.581l-3.118-3.127a.935.935,0,1,0-1.322,1.322c4.2,4.2,3.947,4.077,4.468,4.077,1.4,0,4.738-5.194,1.331-9.308l.484-.475h6.134a3.723,3.723,0,0,1,3.723,3.723V30.571c-1.806-.493-1.415-.372-15.74-.372l2.225-2.792h9.792a.931.931,0,1,0,0-1.862H28.3c-.605,0-.419,0-4.068,4.533-1.75-.391-2.038-1.005-7.055-6.032.428-2.439-1.35-3.584-3.658-5.9a3.723,3.723,0,0,0-5.268,0L6.279,20.118a2.792,2.792,0,0,0,0,3.956l.67.67a.935.935,0,1,0,1.322-1.322l-.67-.67a.931.931,0,0,1,0-1.312l1.973-1.973a1.862,1.862,0,0,1,2.625,0L14.833,22.1a1.862,1.862,0,0,1,.437,1.936c-.2.577-.447.707-2.4,2.662a.931.931,0,0,1-1.312,0l-.67-.67a.935.935,0,1,0-1.322,1.322,4.421,4.421,0,0,0,1.722,1.322c6.078,6.087,7.139,7.688,10.509,8.61v1.294A3.723,3.723,0,0,0,25.519,42.3h6.1L37.2,47.884H31.094a.931.931,0,0,0,0,1.862H45.987a2.792,2.792,0,0,1,2.792,2.792H17.132a2.792,2.792,0,0,1,2.792-2.792h2.792a.931.931,0,1,0,0-1.862H19.924a4.654,4.654,0,0,0-4.654,4.654H12.478a.931.931,0,1,0,0,1.862H51.572a.931.931,0,0,0,0-1.862h-.931a4.654,4.654,0,0,0-4.179-4.654l-6.125-6.115A3.723,3.723,0,0,0,42.208,39.125Zm-2.392,8.759L34.231,42.3H38.2l5.585,5.585Zm-1.275-7.446H25.509a1.862,1.862,0,0,1-1.862-1.862v-.931c.605.056.074,0,10.239,0a.931.931,0,1,0,0-1.862c-14.437,0-11.784,1.08-20.226-7.353a33.507,33.507,0,0,0,2.681-2.588c4.272,4.282,5.51,6.218,8.917,6.218,15.619,0,15.5-.2,17.536.642,2.187,1.08,1.424.549,9.029,8.154a1.936,1.936,0,0,1,.168,2.625,1.862,1.862,0,0,1-2.709.084c-7.1-7.1-6.9-7.781-11.672-7.781a.931.931,0,1,0,0,1.862,7.53,7.53,0,0,1,2.792.289v.642A1.862,1.862,0,0,1,38.541,40.438Z" transform="translate(1140.542 19046.602)" fill="#bcd38b"/>
    <path id="Path_87029" data-name="Path 87029" d="M28.862,52.862a.931.931,0,1,0,0-1.862h-.931a.931.931,0,1,0,0,1.862Z" transform="translate(1139.052 19043.486)" fill="#bcd38b"/>
  </g>
</svg>
