<svg xmlns="http://www.w3.org/2000/svg" width="47.729" height="49.491" viewBox="0 0 47.729 49.491">
  <g id="Group_20251" data-name="Group 20251" transform="translate(-1146.667 -1373.589)">
    <path id="Path_84886" data-name="Path 84886" d="M109.687,178.238H88.742a.726.726,0,1,1,0-1.452h20.945a.726.726,0,1,1,0,1.452Zm0,0" transform="translate(1075.475 1213.892)" fill="#bcd38b"/>
    <path id="Path_84887" data-name="Path 84887" d="M109.687,210.28H88.742a.726.726,0,1,1,0-1.452h20.945a.726.726,0,1,1,0,1.452Zm0,0" transform="translate(1075.475 1184.947)" fill="#bcd38b"/>
    <path id="Path_84888" data-name="Path 84888" d="M92.161,242.323H88.741a.726.726,0,0,1,0-1.452h3.419a.726.726,0,1,1,0,1.452Zm0,0" transform="translate(1093.001 1156.001)" fill="#bcd38b"/>
    <path id="Path_84889" data-name="Path 84889" d="M97.492,274.366h-8.75a.726.726,0,1,1,0-1.452h8.75a.726.726,0,1,1,0,1.452Zm0,0" transform="translate(1087.67 1127.055)" fill="#bcd38b"/>
    <path id="Path_84890" data-name="Path 84890" d="M97.492,306.406h-8.75a.726.726,0,0,1,0-1.452h8.75a.726.726,0,0,1,0,1.452Zm0,0" transform="translate(1087.67 1098.113)" fill="#bcd38b"/>
    <path id="Path_84891" data-name="Path 84891" d="M88.016,369.765a.726.726,0,0,1,.726-.726h14.236a.726.726,0,1,1,0,1.452H88.742A.726.726,0,0,1,88.016,369.765Zm0,0" transform="translate(1082.185 1040.222)" fill="#bcd38b"/>
    <path id="Path_84892" data-name="Path 84892" d="M177.974,29.586a2.771,2.771,0,1,1-2.771,2.771A2.774,2.774,0,0,1,177.974,29.586Zm0,4.09a1.319,1.319,0,1,0-1.319-1.319A1.32,1.32,0,0,0,177.974,33.676Zm0,0" transform="translate(996.716 1346.863)" fill="#bcd38b"/>
    <path id="Path_84893" data-name="Path 84893" d="M.5,26.053A5.888,5.888,0,0,1,3.666,22.4a5.891,5.891,0,0,1,4.3.054l.126.045c.074.026.149.049.224.072V8.522A3.622,3.622,0,0,1,11.933,4.9h10.5a5.631,5.631,0,0,1,11.168,0h10.5a3.622,3.622,0,0,1,3.618,3.618V45.873a3.622,3.622,0,0,1-3.618,3.618H11.934a3.622,3.622,0,0,1-3.618-3.618V41.1a2.338,2.338,0,0,1-.8.951,2.292,2.292,0,0,1-2.409,0,2.471,2.471,0,0,1-.952-1.689c-.011-.048-.022-.1-.033-.141a15.339,15.339,0,0,0-1.747-3.934c-.166-.3-.338-.6-.507-.915a15.193,15.193,0,0,1-1.729-4.59A9.658,9.658,0,0,1,.5,26.052Zm36.775-19.7H32.927A.726.726,0,0,1,32.2,5.63a4.179,4.179,0,0,0-8.357,0,.726.726,0,0,1-.726.726H18.771v5.473h18.5ZM9.767,45.874a2.168,2.168,0,0,0,2.166,2.166H44.111a2.168,2.168,0,0,0,2.166-2.166V8.522a2.168,2.168,0,0,0-2.166-2.166H38.725v2.3h2.519a2.687,2.687,0,0,1,2.684,2.684V40.365a.809.809,0,0,1-.217.518l-2.275,2.233-1.575,1.545-.549.539c-.044.043-.087.089-.133.13a1.174,1.174,0,0,1-.881.227H34.873a.726.726,0,0,1,0-1.452h3.053V41.323a1.686,1.686,0,0,1,1.684-1.684h2.866V11.34a1.234,1.234,0,0,0-1.232-1.232H38.725v1.963a1.211,1.211,0,0,1-1.21,1.21H18.53a1.211,1.211,0,0,1-1.21-1.21V10.108H14.8a1.234,1.234,0,0,0-1.232,1.232v4.178a.726.726,0,1,1-1.452,0V11.34A2.687,2.687,0,0,1,14.8,8.656H17.32v-2.3H11.934A2.168,2.168,0,0,0,9.768,8.522v14.32a6.7,6.7,0,0,0,2.349-.242V18.858a.726.726,0,1,1,1.452,0v3.308a5.5,5.5,0,0,1,3.3.235,5.2,5.2,0,0,1,1.385.883H31.785a.726.726,0,0,1,0,1.452H19.431a7.41,7.41,0,0,1,.6,1.317c.037.108.072.217.105.328h6.2a.726.726,0,0,1,0,1.452H20.447a9.975,9.975,0,0,1,.077,1.645H26.34a.726.726,0,1,1,0,1.452H20.359a12.19,12.19,0,0,1-.443,1.645H38.495a.726.726,0,1,1,0,1.452H19.332c-.2.433-.421.879-.673,1.343-.056.1-.111.2-.167.3H21a.726.726,0,0,1,0,1.452H17.685A12.6,12.6,0,0,0,16.4,40.218c-.011.046-.022.093-.033.141a2.472,2.472,0,0,1-.952,1.689,2.359,2.359,0,0,1-1.852.256v.568A1.234,1.234,0,0,0,14.8,44.105H31.558a.726.726,0,1,1,0,1.452H14.8a2.687,2.687,0,0,1-2.684-2.684V40.867a6.448,6.448,0,0,1-.3-2.269,5.074,5.074,0,0,0-.167-1.355,2.779,2.779,0,0,0-.447-.978.888.888,0,0,0-.191-.174,1.3,1.3,0,0,0-1.242-.134Zm31.659-4.783H39.61a.235.235,0,0,0-.232.232V43.1l1.106-1.086ZM1.571,30.523a13.792,13.792,0,0,0,1.576,4.155c.164.3.334.6.5.9a16.464,16.464,0,0,1,1.892,4.3c.012.05.024.1.036.154.067.292.159.692.311.787a.86.86,0,0,0,.822.028c.56-.381.56-1.644.56-2.251a6.5,6.5,0,0,1,.218-1.738,4.179,4.179,0,0,1,.7-1.481A2.3,2.3,0,0,1,8.69,34.9a2.755,2.755,0,0,1,3.151,0,2.314,2.314,0,0,1,.507.475,4.185,4.185,0,0,1,.7,1.481,6.583,6.583,0,0,1,.219,1.739c0,.607,0,1.87.56,2.251a.859.859,0,0,0,.822-.028c.151-.1.244-.5.311-.787.012-.053.024-.1.036-.155.608-2.532,2.293-4.448,3.186-6.832q.011-.03.025-.059c1.325-2.763,1.457-7.8-1.916-9.257a4.509,4.509,0,0,0-3.223.083l-.154.055a8.15,8.15,0,0,1-5.294,0l-.154-.055a4.509,4.509,0,0,0-3.223-.084c-2.344,1.013-3.125,4.256-2.67,6.792Zm0,0" transform="translate(1146.667 1373.589)" fill="#bcd38b"/>
  </g>
</svg>
