<svg xmlns="http://www.w3.org/2000/svg" width="16.53" height="15.8" viewBox="0 0 16.53 15.8">
  <g id="Group_20238" data-name="Group 20238" transform="translate(-11.496 -10.712)">
    <path id="Path_88259" data-name="Path 88259" d="M2-.668a1.847,1.847,0,1,0-.047,3.684h.023A1.848,1.848,0,1,0,2-.668Zm0,0" transform="translate(11.496 11.38)" fill="#fff"/>
    <path id="Path_88260" data-name="Path 88260" d="M8.109,198.313h3.543v10.661H8.109Zm0,0" transform="translate(3.596 -182.462)" fill="#fff"/>
    <path id="Path_88261" data-name="Path 88261" d="M227.952,188.625a4.439,4.439,0,0,0-3.193,1.8v-1.546h-3.544v10.661h3.543v-5.953a2.428,2.428,0,0,1,.117-.865,1.94,1.94,0,0,1,1.818-1.3c1.282,0,1.8.978,1.8,2.411v5.7h3.543v-6.113c0-3.275-1.748-4.8-4.079-4.8Zm0,0" transform="translate(-204.005 -173.024)" fill="#fff"/>
  </g>
</svg>
