<svg xmlns="http://www.w3.org/2000/svg" width="53.857" height="54.372" viewBox="0 0 53.857 54.372">
  <g id="money" transform="translate(-2.42 0.001)">
    <path id="Path_28696" data-name="Path 28696" d="M448.815,133.783l-.107-.558a2.331,2.331,0,0,0-2.884-1.816l-2.4.632a2.338,2.338,0,0,0-1.7,2.693l.043.224a2.34,2.34,0,0,0,2.291,1.893,2.3,2.3,0,0,0,.28-.017l2.463-.3a2.331,2.331,0,0,0,2.009-2.753Zm-1.695.873a.73.73,0,0,1-.507.3l-2.463.3a.74.74,0,0,1-.813-.593h0l-.043-.224a.739.739,0,0,1,.536-.851l2.4-.632a.746.746,0,0,1,.19-.025.738.738,0,0,1,.722.6l.107.558A.729.729,0,0,1,447.12,134.655Z" transform="translate(-392.578 -117.373)" fill="#fff"/>
    <path id="Path_28697" data-name="Path 28697" d="M412.65,54.606a2.332,2.332,0,0,0,.364-3.389l-.372-.43a2.332,2.332,0,0,0-3.406-.131L407.474,52.4a2.338,2.338,0,0,0-.122,3.18l.15.173h0a2.338,2.338,0,0,0,3.164.34Zm-3.942.108h0l-.15-.173a.739.739,0,0,1,.039-1.006l1.762-1.747a.729.729,0,0,1,.518-.214h.029a.73.73,0,0,1,.529.255l.372.43a.737.737,0,0,1-.115,1.071l-1.984,1.49A.739.739,0,0,1,408.708,54.714Z" transform="translate(-361.388 -44.668)" fill="#fff"/>
    <path id="Path_28698" data-name="Path 28698" d="M342.662,6.927l.216.075a2.313,2.313,0,0,0,.76.129,2.34,2.34,0,0,0,2.15-1.416l.973-2.282A2.332,2.332,0,0,0,345.382.314l-.537-.187a2.332,2.332,0,0,0-3.015,1.589l-.652,2.394A2.339,2.339,0,0,0,342.662,6.927Zm.054-2.4.652-2.394a.739.739,0,0,1,.71-.544.737.737,0,0,1,.243.042l.537.187a.737.737,0,0,1,.436.985l-.973,2.282a.739.739,0,0,1-.92.407h0l-.216-.075A.74.74,0,0,1,342.716,4.53Z" transform="translate(-302.679 0)" fill="#fff"/>
    <path id="Path_28699" data-name="Path 28699" d="M42.919,47.929l-.762-.058A68.033,68.033,0,0,0,29.271,35.428a3.023,3.023,0,0,0-3.778.167c-2.322,2.051-4.628,4.158-6.855,6.262a.8.8,0,0,0,1.1,1.159c2.214-2.092,4.507-4.187,6.815-6.226a1.421,1.421,0,0,1,1.775-.08A66.448,66.448,0,0,1,42.332,50.719a1.419,1.419,0,0,1-.081,1.774C36.37,59.152,30.1,65.6,23.6,71.657q-.436-.178-.882-.383c2.437-2.266,4.844-4.586,7.165-6.907,2.968-2.968,5.912-6.05,8.75-9.162a.8.8,0,0,0-.064-1.137c-.047-.041-.085-.077-.126-.119a2.958,2.958,0,0,1,0-4.184,2.986,2.986,0,0,1,.55-.432.8.8,0,0,0,.195-1.191,65.844,65.844,0,0,0-8.29-8.292.8.8,0,0,0-1.191.195,2.989,2.989,0,0,1-.434.551,2.958,2.958,0,0,1-4.184,0c-.045-.045-.086-.091-.128-.137a.8.8,0,0,0-1.127-.052c-3.122,2.849-6.2,5.792-9.161,8.749-2.656,2.656-5.306,5.42-7.887,8.226-.051-.078-.1-.156-.149-.233q-.174-.277-.332-.546c3.585-3.888,7.329-7.721,11.138-11.4a.8.8,0,0,0-1.108-1.147q-1.794,1.733-3.566,3.51c-1.819.1-3.658.22-5.473.364a4.486,4.486,0,0,0-4.1,3.99,134.319,134.319,0,0,0,0,28.9,4.486,4.486,0,0,0,4.1,3.99c5.912.466,11.869.7,17.821.7,4.726,0,9.448-.147,14.14-.442a.8.8,0,0,0-.1-1.591,225.384,225.384,0,0,1-31.736-.256,2.89,2.89,0,0,1-2.637-2.557h0c-.21-2.4,2.458-6.766,6.8-11.113a.8.8,0,0,0-1.128-1.126A33.1,33.1,0,0,0,4.39,76.3a132.839,132.839,0,0,1,0-19.88c.076.148.154.3.236.447.2.362.421.741.663,1.126.228.362.48.741.749,1.126a37.334,37.334,0,0,0,2.919,3.618c.071.079.144.158.218.238l.061.067a48.886,48.886,0,0,0,5.955,5.433,38.213,38.213,0,0,0,5.766,3.711,25.388,25.388,0,0,0,2.533,1.138c.464.178.931.337,1.389.475a.8.8,0,0,0,.457,0A31.539,31.539,0,0,0,35.2,68.347c.8-.618,1.588-1.275,2.355-1.953A47.792,47.792,0,0,0,41.29,62.71a30.2,30.2,0,0,0,4.539-6.287,132.71,132.71,0,0,1,0,19.88,33.1,33.1,0,0,0-6.069-7.878.8.8,0,1,0-1.128,1.126c4.338,4.344,7.006,8.7,6.8,11.108a2.889,2.889,0,0,1-2.64,2.563l-.466.036a.8.8,0,0,0,.058,1.592l.06,0,.476-.036a4.484,4.484,0,0,0,4.1-3.99,134.179,134.179,0,0,0,0-28.9,4.485,4.485,0,0,0-4.1-3.99ZM7.425,49.519c1.217-.1,2.444-.182,3.67-.258Q8.26,52.148,5.522,55.1a6.416,6.416,0,0,1-.735-3.025A2.89,2.89,0,0,1,7.425,49.519ZM14.65,66q-.872-.732-1.713-1.51l.005-.006a1.145,1.145,0,0,1,1.954.809A1.134,1.134,0,0,1,14.65,66Zm1.239,1a2.737,2.737,0,0,0-.2-3.648,2.742,2.742,0,0,0-3.873,0l-.031.033q-.71-.7-1.376-1.421l-.061-.066c-.069-.075-.137-.149-.207-.226a36.93,36.93,0,0,1-2.423-2.946c2.643-2.88,5.36-5.719,8.085-8.443,2.768-2.767,5.646-5.524,8.564-8.2a4.553,4.553,0,0,0,6.036-.359q.055-.055.109-.112a64.3,64.3,0,0,1,6.918,6.919q-.057.053-.111.108a4.554,4.554,0,0,0-.359,6.036c-2.667,2.909-5.424,5.787-8.2,8.565-2.447,2.447-4.989,4.891-7.562,7.273a37.425,37.425,0,0,1-5.03-3.3L15.89,67ZM40.109,61.64A46.161,46.161,0,0,1,36.5,65.2c-.742.656-1.508,1.291-2.277,1.888a31.108,31.108,0,0,1-8.738,4.995C31.731,66.2,37.77,59.975,43.446,53.548a3.021,3.021,0,0,0,.169-3.777l-.068-.09a2.894,2.894,0,0,1,1.886,2.4c.176,2.078-1.863,5.739-5.324,9.557Z" transform="translate(0 -31.142)" fill="#fff"/>
    <path id="Path_28700" data-name="Path 28700" d="M125.156,176.974a9.055,9.055,0,0,0,2.694-5.926,7.512,7.512,0,0,0-2.153-5.783c-3.079-3.079-8.331-2.836-11.708.541a9.055,9.055,0,0,0-2.694,5.925,7.4,7.4,0,0,0,7.51,7.942A9.037,9.037,0,0,0,125.156,176.974Zm-12.269-5.16a7.465,7.465,0,0,1,2.229-4.88c2.755-2.755,7-3,9.454-.541a5.937,5.937,0,0,1,1.688,4.574,7.66,7.66,0,0,1-7.453,7.116,5.81,5.81,0,0,1-5.919-6.269Z" transform="translate(-97.292 -145.771)" fill="#fff"/>
    <path id="Path_28701" data-name="Path 28701" d="M246.492,140.535a2.737,2.737,0,1,0-1.936-.8A2.73,2.73,0,0,0,246.492,140.535Zm-.809-3.546a1.144,1.144,0,1,1,0,1.618A1.14,1.14,0,0,1,245.683,136.989Z" transform="translate(-215.683 -120.706)" fill="#fff"/>
    <path id="Path_28702" data-name="Path 28702" d="M158.082,208.685a1.406,1.406,0,0,1-.355,1.768,2.964,2.964,0,0,1-1.537,1,.813.813,0,0,0-.583.883.8.8,0,0,0,1.018.651,4.164,4.164,0,0,0,1.652-.86l.159.159a.8.8,0,0,0,1.113.014.825.825,0,0,0-.01-1.165l-.18-.18a2.84,2.84,0,0,0-.005-3.228,2.4,2.4,0,0,0-3.231-.486,9.323,9.323,0,0,1-2.1.935.337.337,0,0,1-.352-.158.806.806,0,0,1,.031-.895,2.386,2.386,0,0,1,.883-.872.791.791,0,0,0,.407-.8l0-.025a.783.783,0,0,0-1.149-.577,3.826,3.826,0,0,0-.364.225l-.11-.11a.819.819,0,0,0-1.133-.041.8.8,0,0,0-.018,1.145l.165.165c-.015.023-.029.046-.044.07a2.41,2.41,0,0,0,.038,2.644,1.921,1.921,0,0,0,1.985.79,9.836,9.836,0,0,0,2.53-1.1C157.2,208.469,157.756,208.253,158.082,208.685Z" transform="translate(-133.647 -182.954)" fill="#fff"/>
  </g>
</svg>
