<svg xmlns="http://www.w3.org/2000/svg" width="22.469" height="22.454" viewBox="0 0 22.469 22.454">
  <g id="Group_20281" data-name="Group 20281" transform="translate(-11.169 -10.346)">
    <path id="Path_87057" data-name="Path 87057" d="M24.08,20.345v-.007h-.027c-.421-.094-1.261-.187-2.926-.374a17.7,17.7,0,0,0-3.177-.019c.418-.777.855-1.738,1.377-2.891.587-1.295,1.253-2.763,2.093-4.407a9.571,9.571,0,0,0,1.163-4.284C22.583,4.854,20.065,2,16.969,2a5.59,5.59,0,0,0-3.221,1.2.705.705,0,0,1-1.041,0A6.2,6.2,0,0,0,10.9,2.247a.374.374,0,0,0-.471.238L9.878,4.128a.374.374,0,0,0,.034.311l.915,1.524L8.943,6.9a.374.374,0,0,0-.207.335V9.363L6.593,8.751a.374.374,0,0,0-.367.1L4.433,10.638a.374.374,0,0,0-.089.386,12.663,12.663,0,0,0,.69,1.624c.835,1.638,1.5,3.1,2.084,4.394.461,1.018.873,1.926,1.263,2.674a24.592,24.592,0,0,0-6.1.632A.374.374,0,0,0,2,20.712V24.08a.374.374,0,0,0,.374.374H24.08a.374.374,0,0,0,.374-.374V20.8a.365.365,0,0,0,.012-.075C24.477,20.537,24.482,20.439,24.08,20.345ZM7.8,16.733c-.589-1.3-1.256-2.772-2.1-4.424A12.087,12.087,0,0,1,5.13,11l1.1-1.1.268,1.879.741-.106L6.943,9.627l1.793.514v1.485L7.667,13.409a.374.374,0,0,0-.027.332l.748,1.871.7-.278-.68-1.7.849-1.415,1.1.549.693,1.04.623-.415-.748-1.123a.378.378,0,0,0-.144-.127L9.485,11.5V8.018l1.076.861-.316,1.264a.374.374,0,0,0,.272.454l1.5.374.181-.726-1.134-.284.283-1.134a.374.374,0,0,0-.129-.383L9.8,7.314l1.609-.8,1.265.253-.53,1.059a.374.374,0,0,0,0,.335l.748,1.5.67-.335L12.9,7.988l.625-1.251,1.426-1.069-.449-.6L13.136,6.091l-1.545-.309L10.643,4.2l.37-1.114a5.474,5.474,0,0,1,1.238.707,1.434,1.434,0,0,0,1.951,0,4.825,4.825,0,0,1,2.767-1.045c2.683,0,4.865,2.518,4.865,5.614a8.835,8.835,0,0,1-1.082,3.946c-.847,1.659-1.516,3.135-2.107,4.438-.619,1.365-1.116,2.458-1.593,3.267l-.479.04c-.6.051-1.211.1-1.827.134-.022-.444-.022-1-.022-1.721,0-2.607-.245-4.117-1.5-4.117s-1.5,1.509-1.5,4.117c0,.663,0,1.218-.02,1.66-.341-.037-.683-.087-1.03-.156a13.135,13.135,0,0,0-1.422-.2c-.438-.79-.913-1.835-1.458-3.037ZM14,20.217c-.509.013-1.022.007-1.541-.024.022-.457.022-1.015.022-1.726,0-2.968.378-3.368.748-3.368s.748.4.748,3.368c0,.721,0,1.289.022,1.75Zm9.708,3.489H2.748V21.011a21.31,21.31,0,0,1,7.784-.306,21.115,21.115,0,0,0,6.1.1,22.579,22.579,0,0,1,4.408-.09c1.588.176,2.32.267,2.661.314Z" transform="translate(9.169 8.346)" fill="#fff"/>
    <path id="Path_87058" data-name="Path 87058" d="M7,56H8.5v.748H7Z" transform="translate(6.04 -25.445)" fill="#fff"/>
    <path id="Path_87059" data-name="Path 87059" d="M15,54h1.5v.748H15Z" transform="translate(1.034 -24.195)" fill="#fff"/>
    <path id="Path_87060" data-name="Path 87060" d="M44,56h1.5v.748H44Z" transform="translate(-17.113 -25.445)" fill="#fff"/>
    <path id="Path_87061" data-name="Path 87061" d="M51,54h1.5v.748H51Z" transform="translate(-21.494 -24.195)" fill="#fff"/>
    <path id="Path_87062" data-name="Path 87062" d="M12.814,2.182a.37.37,0,0,0-.318-.164C9.465,2.089,7,4.94,7,8.373a7.043,7.043,0,0,0,.044.746.374.374,0,0,0,.636.225L9.027,8h1.715a.374.374,0,0,0,.374-.374V6.359l1.29-.643a.374.374,0,0,0,.2-.426l-.344-1.375.589-1.375a.374.374,0,0,0-.034-.359ZM11.5,3.973l.3,1.205-1.228.614a.374.374,0,0,0-.207.335V7.25h-1.5a.374.374,0,0,0-.265.11l-.856.856a5.43,5.43,0,0,1,4.161-5.393l-.39.911a.374.374,0,0,0-.019.238Z" transform="translate(6.04 8.334)" fill="#fff"/>
    <path id="Path_87063" data-name="Path 87063" d="M34.607,21a.374.374,0,0,0,.529,0l1.607-1.607.858.858a.374.374,0,0,0,.529,0l1.5-1.5a.374.374,0,0,0,0-.529l-.858-.858L40,16.136a.374.374,0,0,0,0-.529l-1.5-1.5a.374.374,0,0,0-.529,0l-1.232,1.232-.858-.858a.374.374,0,0,0-.529,0l-1.5,1.5a.374.374,0,0,0,0,.529l.858.858L33.11,18.975a.374.374,0,0,0,0,.529Zm4.226-2.51-.968.968-.594-.594.968-.968Zm-4.181-2.245.968-.968.594.594-.968.968ZM38.239,14.9l.968.968-4.336,4.336-.968-.968Z" transform="translate(-10.23 0.836)" fill="#fff"/>
    <path id="Path_87064" data-name="Path 87064" d="M43,9h.748v.748H43Z" transform="translate(-16.487 3.965)" fill="#fff"/>
    <path id="Path_87065" data-name="Path 87065" d="M23,35h.748v.748H23Z" transform="translate(-3.972 -12.305)" fill="#fff"/>
    <path id="Path_87066" data-name="Path 87066" d="M44,34h.748v.748H44Z" transform="translate(-17.113 -11.68)" fill="#fff"/>
  </g>
</svg>
