<svg xmlns="http://www.w3.org/2000/svg" width="22.169" height="22.149" viewBox="0 0 22.169 22.149">
  <g id="Group_20280" data-name="Group 20280" transform="translate(-11.169 -11.167)">
    <path id="Path_87047" data-name="Path 87047" d="M48.345,42a.469.469,0,0,0-.192.9C48.746,43.09,48.963,42.1,48.345,42Z" transform="translate(-18.845 -15.5)" fill="#fff"/>
    <path id="Path_87048" data-name="Path 87048" d="M29.062,12.2c-.072-.788-.754-3.475-1.542-3.28-.111.026-.089.026-.818.571-.038.03.094-.1-1.657,1.653l-.643.124c.426-.426.068.141,2.019-3.373a.426.426,0,0,0-.072-.5,6.635,6.635,0,0,0-3.48-1.367,6.866,6.866,0,0,0-2.824.345,6.176,6.176,0,0,1-4.1,0A6.84,6.84,0,0,0,7.686,9.692a.427.427,0,0,0,.758.392,5.963,5.963,0,0,1,7.241-2.909,7.066,7.066,0,0,0,4.655,0,5.925,5.925,0,0,1,5.171.639l-1.452,2.611c-1.631,1.631-1.1.814-2.074,3.241-.92,0-.584-.153-1.7.975a.428.428,0,0,0,.6.6l.711-.728c1.086,0,.907.145,1.363-1l.592.379v.618a.426.426,0,0,0,.852,0c0-1.278.175-.975-1.12-1.8l.153-.383,1.9-.371c.307-.06,1.4-1.427,2.159-2a5.933,5.933,0,0,1-.622,6.64,9.025,9.025,0,0,0-1.7,3.407.426.426,0,0,0,.426.537c.733,0,.251-1.325,1.963-3.407a6.815,6.815,0,0,0,1.5-4.941Z" transform="translate(4.246 5.168)" fill="#fff"/>
    <path id="Path_87049" data-name="Path 87049" d="M23.474,30.184c-.524,2.556-.494,3.033-1.12,3.535a1.7,1.7,0,0,1-2.747-.894l-.92-3.757a1.7,1.7,0,0,0-3.305,0L14.5,32.824a1.7,1.7,0,0,1-3.322-.06c-1.052-5.111-1.214-7.241-2.981-9.345a5.963,5.963,0,0,1-1.231-5.034.436.436,0,1,0-.852-.187,6.815,6.815,0,0,0,1.406,5.75c1.618,1.959,1.729,3.833,2.79,8.97a2.558,2.558,0,0,0,4.983.089l.92-3.757a.852.852,0,0,1,1.653,0l.92,3.757a2.556,2.556,0,0,0,4.093,1.376c.92-.707.9-1.427,1.418-4.029a.426.426,0,0,0-.818-.17Z" transform="translate(5.209 -1.639)" fill="#fff"/>
    <path id="Path_87050" data-name="Path 87050" d="M25.2,13.178a10.341,10.341,0,0,0,4.907-1.342.426.426,0,0,0-.426-.724,9.059,9.059,0,0,1-8.944,0,.426.426,0,0,0-.426.724A10.341,10.341,0,0,0,25.2,13.178Z" transform="translate(-2.945 2.248)" fill="#fff"/>
  </g>
</svg>
