<svg xmlns="http://www.w3.org/2000/svg" width="21.997" height="21.996" viewBox="0 0 21.997 21.996">
  <g id="Group_20279" data-name="Group 20279" transform="translate(-10.803 -11.203)">
    <g id="freezing" transform="translate(10.803 11.203)">
      <path id="Path_87051" data-name="Path 87051" d="M9.3,12.565c.287,0,.347-.211.6-.507a.423.423,0,1,0-.642-.549c-.106.127-.211.258-.3.393a.423.423,0,0,0,.347.664Z" transform="translate(-7.656 -9.096)" fill="#fff"/>
      <path id="Path_87052" data-name="Path 87052" d="M14.76,30.084l-.317,1.378a1.691,1.691,0,0,1-3.3-.059c-1.086-5.283-1.226-7.185-2.959-9.273a5.917,5.917,0,0,1-.972-5.854.429.429,0,0,0-.8-.3,6.763,6.763,0,0,0,1.12,6.682c1.551,1.877,1.631,3.381,2.768,8.9a2.538,2.538,0,0,0,4.945.089l.334-1.357a.423.423,0,0,0-.82-.2Z" transform="translate(-5.982 -11.598)" fill="#fff"/>
      <path id="Path_87053" data-name="Path 87053" d="M25.166,13.162a10.262,10.262,0,0,0,4.869-1.331.423.423,0,0,0-.423-.719,8.989,8.989,0,0,1-8.876,0,.423.423,0,0,0-.423.719A10.262,10.262,0,0,0,25.166,13.162Z" transform="translate(-14.169 -8.937)" fill="#fff"/>
      <path id="Path_87054" data-name="Path 87054" d="M43.23,25.395l-.6-.334.173-.042a.423.423,0,1,0-.207-.82l-1.036.266-.655-.359v-.913l.651-.359,1.04.266a.423.423,0,1,0,.211-.82l-.173-.042.6-.334a.424.424,0,0,0-.423-.735l-.634.368.051-.182a.423.423,0,1,0-.812-.241l-.275.985-.626.347-.875-.486V21.3l.748-.723a.423.423,0,0,0-.583-.609l-.165.156v-.7a.423.423,0,1,0-.845,0v.7l-.161-.156a.423.423,0,1,0-.587.609l.748.723v.664l-.875.5-.626-.347-.275-1a.423.423,0,0,0-.812.228l.051.194-.638-.351a.424.424,0,1,0-.423.735l.6.334-.173.042a.423.423,0,0,0,.216.8l1.036-.266.651.359v.913l-.651.359L35.837,24.2a.423.423,0,1,0-.211.82l.173.042-.6.334a.424.424,0,1,0,.423.735l.634-.368-.051.178a.423.423,0,0,0,.423.537c.385,0,.393-.254.68-1.293l.626-.347.858.5v.647l-.748.723a.423.423,0,1,0,.587.609l.161-.156v.714a.423.423,0,1,0,.845,0v-.7l.165.156a.423.423,0,0,0,.583-.609L39.641,26V25.34l.875-.5.626.347.275,1a.423.423,0,0,0,.812-.228l-.051-.194c.664.368.7.423.845.423a.423.423,0,0,0,.207-.79Zm-3.166-1.268-.845.49-.845-.49v-.972l.845-.49.845.49Z" transform="translate(-22.727 -13.507)" fill="#fff"/>
      <path id="Path_87055" data-name="Path 87055" d="M37.482,28.265l-2.511,1.458-4.649-2.709V21.579l1.188-.693a.423.423,0,0,0-.423-.727c-1.467.845-1.61.845-1.61,1.179,0,6.34-.089,6.107.211,6.281,5.495,3.208,5.19,3.136,5.495,2.959l.947-.549-.8,3.914a1.691,1.691,0,0,1-3.314.076L31.1,30.29a1.691,1.691,0,0,0-3.28,0l-.182.74a.423.423,0,0,0,.82.2l.182-.74a.845.845,0,0,1,1.64,0l.913,3.728a2.536,2.536,0,0,0,4.945-.089l.955-4.649.795-.465a.427.427,0,1,0-.406-.752Z" transform="translate(-18.48 -14.154)" fill="#fff"/>
      <path id="Path_87056" data-name="Path 87056" d="M22.794,6.37a6.129,6.129,0,0,1-4.066,0,6.72,6.72,0,0,0-6.031.845.423.423,0,0,0,.482.693,5.888,5.888,0,0,1,5.271-.744,7.012,7.012,0,0,0,4.62,0A5.917,5.917,0,0,1,30.9,12.448c-4.738-2.76-4.565-2.76-4.861-2.582-2.4,1.391-2.426,1.327-2.426,1.657a.423.423,0,0,0,.664.347l1.974-1.15L30.9,13.429V18.86l-.7.423a.423.423,0,0,0,.211.786c.173,0,.224-.063,1.12-.587.3-.169.211.072.211-6.281C31.75,7.735,26.9,4.954,22.794,6.37Z" transform="translate(-9.764 -6.004)" fill="#fff"/>
    </g>
  </g>
</svg>
