<svg xmlns="http://www.w3.org/2000/svg" width="28.109" height="28.333" viewBox="0 0 28.109 28.333">
  <g id="Group_20242" data-name="Group 20242" transform="translate(-149.832 -362)">
    <path id="Path_84880" data-name="Path 84880" d="M98.981,354.76a.416.416,0,0,0-.571.142l-1.065,1.77a2.343,2.343,0,0,0-.311.873c0,.006,0,.012,0,.018l-.332,3.3v.008a1.787,1.787,0,0,1-3.558.047v-.008l-.536-4.176v-.006a1.3,1.3,0,0,0-.343-.713L92.248,356a1.309,1.309,0,0,0-2.247.7v.006l-.565,4.212v.008a1.8,1.8,0,0,1-1.83,1.585h-.021a1.786,1.786,0,0,1-1.727-1.641v-.008l-.048-.475a.416.416,0,1,0-.828.083l.047.471a2.617,2.617,0,0,0,2.531,2.4h.1a2.636,2.636,0,0,0,2.6-2.32l.564-4.2a.477.477,0,0,1,.464-.4.47.47,0,0,1,.353.149l.012.012a.474.474,0,0,1,.125.257l.535,4.169a2.634,2.634,0,0,0,2.6,2.333h.07a2.615,2.615,0,0,0,2.54-2.4l.331-3.285a1.516,1.516,0,0,1,.2-.556l1.065-1.769A.416.416,0,0,0,98.981,354.76Z" transform="translate(69.458 26.982)" fill="#fff"/>
    <path id="Path_84881" data-name="Path 84881" d="M30.132,7.4a7.4,7.4,0,0,0-14.8-.194l-2.4.521-2.765-.619A6.439,6.439,0,0,0,3.8,9.266l-.068.081a6.658,6.658,0,0,0-.607,7.722l.242.4a3.647,3.647,0,0,1-.979.739A.687.687,0,0,0,2.4,19.429a3.253,3.253,0,0,1,1.49,1.49.681.681,0,0,0,.606.375h0a.687.687,0,0,0,.612-.371c.051-.1.106-.192.163-.282l.866,1.441a1.516,1.516,0,0,1,.2.556l.105,1.048a.416.416,0,0,0,.414.375l.042,0a.416.416,0,0,0,.372-.456l-.106-1.057c0-.006,0-.012,0-.018a2.343,2.343,0,0,0-.311-.873L5.843,19.964a3.537,3.537,0,0,1,.791-.543.687.687,0,0,0,.022-1.211,3.854,3.854,0,0,1-1.542-1.52.687.687,0,0,0-1.214.016l-.01.018-.052-.087A5.825,5.825,0,0,1,4.37,9.881L4.438,9.8A5.61,5.61,0,0,1,9.98,7.924l2.855.639a.416.416,0,0,0,.179,0l2.34-.508a7.345,7.345,0,0,0,1.322,3.614.416.416,0,0,0,.68-.48,6.524,6.524,0,0,1-1.2-3.642s0-.01,0-.015c0-.043,0-.086,0-.129a6.571,6.571,0,1,1,7.071,6.552h0q-.246.019-.5.019a6.574,6.574,0,0,1-4.244-1.554.416.416,0,0,0-.538.635,7.408,7.408,0,0,0,4.781,1.752h.034a5.593,5.593,0,0,1-.679,1.713l-1.107,1.84a.416.416,0,1,0,.713.429l1.107-1.84a6.417,6.417,0,0,0,.825-2.2A7.414,7.414,0,0,0,30.132,7.4ZM4.514,17.313a4.65,4.65,0,0,0,1.511,1.492,4.254,4.254,0,0,0-.986.79.409.409,0,0,0-.038.04,4.284,4.284,0,0,0-.5.671,4.08,4.08,0,0,0-1.5-1.494,4.352,4.352,0,0,0,1.178-1.025.406.406,0,0,0,.027-.034,4.205,4.205,0,0,0,.3-.439Z" transform="translate(147.809 362)" fill="#fff"/>
    <path id="Path_84882" data-name="Path 84882" d="M295.941,48.368h-2.23a.856.856,0,0,0-.855.855v1.894h-1.894a.856.856,0,0,0-.855.855V54.2a.856.856,0,0,0,.855.855h1.894v1.894a.856.856,0,0,0,.855.855h2.23a.856.856,0,0,0,.855-.855V55.058h1.894a.856.856,0,0,0,.855-.855v-2.23a.856.856,0,0,0-.855-.855H296.8V49.223A.856.856,0,0,0,295.941,48.368Zm2.749,3.581a.023.023,0,0,1,.023.023V54.2a.023.023,0,0,1-.023.023h-2.31a.416.416,0,0,0-.416.416v2.31a.023.023,0,0,1-.023.023h-2.23a.023.023,0,0,1-.023-.023v-2.31a.416.416,0,0,0-.416-.416h-2.31a.023.023,0,0,1-.023-.023v-2.23a.023.023,0,0,1,.023-.023h2.31a.416.416,0,0,0,.416-.416v-2.31a.023.023,0,0,1,.023-.023h2.23a.023.023,0,0,1,.023.023v2.31a.416.416,0,0,0,.416.416h2.31Z" transform="translate(-124.289 316.316)" fill="#fff"/>
  </g>
</svg>
