<svg xmlns="http://www.w3.org/2000/svg" width="28.251" height="28.264" viewBox="0 0 28.251 28.264">
  <g id="Group_20245" data-name="Group 20245" transform="translate(-149.749 -362.748)">
    <path id="Path_87041" data-name="Path 87041" d="M23.507,214.509a1.161,1.161,0,0,0-.578.14,7.7,7.7,0,0,0,.419-2.4,3.267,3.267,0,0,0-4.912-2.76,1.565,1.565,0,0,1-1.528,0,3.211,3.211,0,0,0-1.77-.443,3.267,3.267,0,0,0-2.729,1.682,3.262,3.262,0,0,0-4.5-1.239,1.477,1.477,0,0,1-1.527,0,3.282,3.282,0,0,0-2.726-.26.414.414,0,0,0,.277.78,2.444,2.444,0,0,1,2.035.2l.011.006a2.288,2.288,0,0,0,2.24.048,2.143,2.143,0,0,0,1.34,1.037,1.307,1.307,0,0,1,.992,1.063c.173.648.487,1.334,1.232,1.443-.548,2.148-1.8,4.118-2.141,6.319-.132.867-.592.542-.807-.1s-.375-1.291-.563-1.935a1.155,1.155,0,0,0-2.252,0c-.188.645-.35,1.3-.563,1.935s-.674.967-.807.1c-.409-2.68-2.414-5.092-2.352-7.855a2.416,2.416,0,0,1,.252-1.025.414.414,0,0,0-.742-.367,3.238,3.238,0,0,0-.338,1.374,7.49,7.49,0,0,0,.383,2.279,1.265,1.265,0,0,0-1.32.79c-.275.516-.413,2.276-.41,5.229a3.472,3.472,0,0,0,1.71,2.836c1.808,1.278,5.077,2.127,8.969,2.329a26.677,26.677,0,0,0,10.146-1.172.414.414,0,0,0-.276-.781,27.279,27.279,0,0,1-9.828,1.125c-3.739-.194-6.85-.988-8.534-2.178a2.7,2.7,0,0,1-1.36-2.161,19.078,19.078,0,0,1,.313-4.839c.311-.584.839-.436,1.022.083a25.272,25.272,0,0,1,1.546,4.457c.26,1.7,1.9,1.549,2.41.038.216-.647.382-1.311.573-1.966.124-.424.538-.424.662,0,.191.655.357,1.319.573,1.966.5,1.506,2.152,1.656,2.41-.038a17.889,17.889,0,0,1,1.27-3.743.72.72,0,0,1,1.354-.011,17.95,17.95,0,0,1,1.274,3.754c.26,1.7,1.9,1.549,2.41.038.217-.647.382-1.311.573-1.966.124-.424.538-.424.662,0,.191.655.357,1.319.573,1.966.5,1.506,2.152,1.656,2.41-.038a16.459,16.459,0,0,1,1.054-3.2c.19-.477.825-1.744,1.436-1.717.113,0,.253.143.384.381.074.133.314.875.31,4.834a2.767,2.767,0,0,1-1.466,2.234.414.414,0,0,0,.462.687A3.535,3.535,0,0,0,25,220.552c0-4.48-.3-5.028-.413-5.235A1.322,1.322,0,0,0,23.507,214.509Zm-4.13-3.99c.024.4-.314.565-.666.47-.951-.256-1.314.062-2.037.7-.412.362-.664-.269-.551-.6a1.848,1.848,0,0,0,.093-1.013,3.377,3.377,0,0,0,1.6.459,8.126,8.126,0,0,0,1.613-.564,1.636,1.636,0,0,0-.053.554Zm-7.432,2.475c-.41-.029-.54-.588-.614-.909a1.986,1.986,0,0,0-1.5-1.562,1.376,1.376,0,0,1-.852-.578,2.438,2.438,0,0,1,3.011,2.328,4.435,4.435,0,0,1-.048.722Zm.476,2.2h-.012a1.6,1.6,0,0,0-.189.012q.1-.287.188-.572.088.284.188.571a1.593,1.593,0,0,0-.176-.012Zm7.747,4.938c-.132.868-.592.542-.807-.1-.111-.331-.273-.908-.4-1.371-.061-.215-.116-.413-.16-.564a1.153,1.153,0,0,0-2.252,0c-.188.645-.35,1.3-.563,1.935s-.674.967-.807.1a16.941,16.941,0,0,0-1.1-3.38,13.117,13.117,0,0,1-1.249-4.474,2.448,2.448,0,0,1,2.269-2.39.664.664,0,0,1,.251.927,1.325,1.325,0,0,0,.431,1.594,1.187,1.187,0,0,0,1.446-.1c.7-.613.764-.656,1.275-.519a1.3,1.3,0,0,0,1.708-1.32c-.018-.3.137-.589.473-.518a2.452,2.452,0,0,1,1.844,2.322,11.774,11.774,0,0,1-1.092,4.078v0l-.157.394a16.941,16.941,0,0,0-1.1,3.381Z" transform="translate(149.628 165.241)" fill="#fff"/>
    <path id="Path_87042" data-name="Path 87042" d="M204.589,188.787a.412.412,0,0,0,.264-.1l.782-.647a.414.414,0,0,0-.528-.638l-.782.647A.422.422,0,0,0,204.589,188.787Z" transform="translate(-43.173 185.778)" fill="#fff"/>
    <path id="Path_87043" data-name="Path 87043" d="M181.882,171.734a.445.445,0,0,0,.451-.373l.094-.982a.414.414,0,0,0-.824-.079l-.094.982A.414.414,0,0,0,181.882,171.734Z" transform="translate(-21.746 202.19)" fill="#fff"/>
    <path id="Path_87044" data-name="Path 87044" d="M321.762,9.572l-2.548-1.263.886-1.787a.414.414,0,0,0-.742-.368l-.886,1.787-2.247-1.114a34.523,34.523,0,0,0,2.664-2.721l2.506,1.242a.414.414,0,0,0,.368-.742l-2.423-1.2a1.123,1.123,0,0,0-.593-1.244L314.611.112a1.134,1.134,0,0,0-1.494.5l-1.5,3.017a2.813,2.813,0,0,0,.753,3.587l-1.446,2.916a.414.414,0,0,0,.742.368l1.442-2.909a2.825,2.825,0,0,0,2.338-.226l5.943,2.947A.415.415,0,0,0,321.762,9.572ZM313.1,6.69A1.935,1.935,0,0,1,312.364,4l1.5-3.017a.29.29,0,0,1,.384-.129l4.134,2.05c.341,0,.074.429.038.5l-2.239,2.345C315,6.917,314.108,7.19,313.1,6.69Z" transform="translate(-143.982 362.748)" fill="#fff"/>
  </g>
</svg>
