<svg xmlns="http://www.w3.org/2000/svg" width="19.903" height="27.117" viewBox="0 0 19.903 27.117">
  <g id="Group_20246" data-name="Group 20246" transform="translate(-153.43 -363)">
    <path id="Path_87034" data-name="Path 87034" d="M26.715,23.529a8.2,8.2,0,0,0-2.975-1.436c-.47-.817-.217-.709-1.571-.709V19.763a3.576,3.576,0,0,0,.853-.5,6.773,6.773,0,0,0,3.066-3.233c.284-.623.117-.519.37-.519a2.483,2.483,0,0,0,1.129-4.691V9.193a.452.452,0,0,0,.452-.452v-.9a5.87,5.87,0,0,0-5.87-5.87c-4.479,0-6.005-.293-7.947,1.106a.452.452,0,0,0-.1.628c.528.736,1.029-.831,3.535-.831h4.515a4.967,4.967,0,0,1,3.815,1.806A5.061,5.061,0,0,1,27.135,8.29c-5.418,0-4.9.032-4.849-.068a2.709,2.709,0,1,0-4.75,0c.05.09.537.063-4.849.063a5.671,5.671,0,0,1,.167-1.725.452.452,0,0,0-.867-.244,8.023,8.023,0,0,0-.2,2.425.452.452,0,0,0,.452.452v1.634a2.483,2.483,0,0,0,1.291,4.687,6.773,6.773,0,0,0,3.282,3.766,3.721,3.721,0,0,0,.844.483v1.621c-1.332,0-1.106-.108-1.571.709a8.213,8.213,0,0,0-5.87,5.712l-.235.677a.452.452,0,0,0,.867.253l.194-.682a7.328,7.328,0,0,1,4.366-4.8l-.853,1.522a.452.452,0,0,0,.144.6l.98.655-.9,1.391c-.144.221-.068.325.2,1.309a.452.452,0,0,0,.871-.235l-.2-.75L16.7,26.147a.452.452,0,0,0-.131-.623l-1-.668,1.449-2.569h.75c1.806,6.813,1.693,6.47,1.833,6.615a.452.452,0,0,0,.727-.149c.068-.167.813-3.021,1.743-6.488h.745l1.467,2.569c-1.63,1.084-1.553.65-.081,2.885-.144.519-.452,1.151.113,1.3a.452.452,0,0,0,.452-.126c.117-.126.086-.1.37-1.133.068-.266-.063-.366-.975-1.756l.98-.655a.452.452,0,0,0,.144-.6l-.871-1.522a7.5,7.5,0,0,1,1.734.971C26.684,24.675,27.253,23.957,26.715,23.529Zm-6.8,3.328L19.27,24.45a2.212,2.212,0,0,0,1.282,0Zm5.35-11.184a5.747,5.747,0,0,1-.813,1.3c-.176.221,0,.072,0-.555v-2.09l1.355-1.58A6.226,6.226,0,0,1,25.262,15.672Zm1.287-1.061a7.676,7.676,0,0,0,.135-1.355c0-1.806-.054-1.5.163-1.752a1.576,1.576,0,0,1-.3,3.106Zm.135-4.064a3.973,3.973,0,0,1-2.565-1.355h2.565ZM22.972,9.193a5.012,5.012,0,0,0,2.808,2.068c0,.14.221-.158-2.014,2.447h-.7a.452.452,0,1,0,0,.9h.452v1.806a2.56,2.56,0,0,1-1.115,2.154,5.906,5.906,0,0,1-4.578.172c-1.779-.6-1.531-2.479-1.531-4.131h4.967a.452.452,0,0,0,0-.9h-5.21l-1.937-2.258a9.491,9.491,0,0,0,5.418-1.264c.682-.4.768-.56,1.029-.628a2.384,2.384,0,0,0,.659-.253C21.491,9.157,21.13,9.193,22.972,9.193ZM19.911,5.129a1.806,1.806,0,1,1-1.806,1.806A1.806,1.806,0,0,1,19.911,5.129Zm-1.5,4.064c.524.352.646.235.474.33-2.136,1.192-3.9,1.025-5.748,1.025V9.193ZM12.994,11.5c.226.262.163-.05.163,1.752a7.626,7.626,0,0,0,.135,1.355,1.576,1.576,0,0,1-.316-3.106Zm1.048,2.2c-.023-.284,0-.307,0-.975l1.355,1.58a17.634,17.634,0,0,0,.063,2.745,5.793,5.793,0,0,1-1.418-3.35Zm7.224,6.276a6.745,6.745,0,0,1-.393,3.237,1.386,1.386,0,0,1-1.928,0A6.839,6.839,0,0,1,18.557,20a23.528,23.528,0,0,0,2.709,0Z" transform="translate(143.471 361.057)" fill="#fff"/>
    <path id="Path_87035" data-name="Path 87035" d="M50.912,56.135a8.874,8.874,0,0,0-1.7-3.585.465.465,0,1,0-.75.551,7.1,7.1,0,0,1,.989,1.594c.61,1.246.406,2.018,1.011,2.018a.452.452,0,0,0,.452-.578Z" transform="translate(122.403 333.404)" fill="#fff"/>
    <path id="Path_87036" data-name="Path 87036" d="M16.887,7.791l.036-.077a.453.453,0,1,0-.7-.569C15.641,7.891,16.6,8.315,16.887,7.791Z" transform="translate(140.137 358.296)" fill="#fff"/>
  </g>
</svg>
