<svg xmlns="http://www.w3.org/2000/svg" width="20.461" height="26.106" viewBox="0 0 20.461 26.106">
  <g id="Group_20235" data-name="Group 20235" transform="translate(-153.539 -363.227)">
    <path id="path18171-0" d="M7.291,284.5a5.31,5.31,0,0,0-4.634,3.2c-.865,1.951-.877,4.667.279,7.887,1.168,3.257,1.792,5.273,2.411,6.544a2.815,2.815,0,0,0,2.514,1.843,2.309,2.309,0,0,0,1.992-1.118,9.64,9.64,0,0,0,.879-2.442.431.431,0,1,0-.839-.191,8.012,8.012,0,0,1-.75,2.181,1.348,1.348,0,0,1-1.281.728A2,2,0,0,1,6.1,301.76c-.56-1.151-1.2-3.19-2.375-6.46-1.1-3.076-1.049-5.574-.3-7.262,1.1-2.364,4.393-3.677,6.374-1.418.158.181.439.474.617.659a9.391,9.391,0,0,1-1.517-.318c-.564-.205-.755.652-.32.779,1.2.443,3.963.875,5.232-.176a5.585,5.585,0,0,0,.919-.944,2.94,2.94,0,0,1,2.568-1.185,4.767,4.767,0,0,1,3.806,2.6c.747,1.687.8,4.185-.3,7.262-1.173,3.27-1.814,5.309-2.375,6.46a1.988,1.988,0,0,1-1.757,1.369c-1.893,0-1.968-3.343-2.664-4.76a1.9,1.9,0,0,0-3.484,0c-.21.584.576.77.783.32a1.076,1.076,0,0,1,1.956.073c.812,1.659.664,5.209,3.409,5.209a2.715,2.715,0,0,0,2.514-1.843c.619-1.271,1.242-3.287,2.411-6.544,1.155-3.22,1.143-5.936.279-7.887-1.427-2.979-5.591-4.458-7.778-1.631-1.074,1.547-2.57,1.275-3.663,0A4.091,4.091,0,0,0,7.291,284.5Z" transform="translate(151.504 85.362)" fill="#fff"/>
    <path id="path4537" d="M8.694,281.316a.421.421,0,1,0,.606.584l.534-.556c.236-.26.393-.176.556.013l1.451,1.51a.421.421,0,0,0,.391.118l1-.212a.329.329,0,0,1,.4.429l-.5,2.181H7.075l-.541-2.276c-.051-.3.188-.4.445-.334l1,.211a.421.421,0,0,0,.177-.823l-.991-.208a1.117,1.117,0,0,0-1.432,1.33l.6,2.613a.421.421,0,0,0,.41.329h6.729a.421.421,0,0,0,.41-.329l.572-2.492a1.188,1.188,0,0,0-1.42-1.448l-.746.158-1.268-1.32a1.118,1.118,0,0,0-1.79-.034c-.182.185-.366.379-.533.556Z" transform="translate(153.665 82.899)" fill="#fff"/>
  </g>
</svg>
