<svg xmlns="http://www.w3.org/2000/svg" width="20.539" height="28" viewBox="0 0 20.539 28">
  <g id="Group_20237" data-name="Group 20237" transform="translate(-153.219 -362)">
    <path id="Path_87037" data-name="Path 87037" d="M22.095,2.33C19.135,3.374,18.516,1.747,15.733,2a6.217,6.217,0,0,0-3.127,1.207.466.466,0,0,0-.093.652c.522.708.979-.718,3.3-.932a5.336,5.336,0,0,1,2.246.275,6.464,6.464,0,0,0,4.334,0c5.164-1.818,9.344,4.507,5.919,8.762-.657.82-1.067,3.034-1.37,3.915A1.533,1.533,0,0,1,25.5,16.889H23.493a.466.466,0,0,0,0,.932h.932L24.3,19.56l-8.2-.685-.065-1.053h5.593a.466.466,0,0,0,0-.932H14.96a1.524,1.524,0,0,1-1.44-1.007c-.308-.881-.718-3.095-1.4-3.915a5.644,5.644,0,0,1-.979-5.21.466.466,0,0,0-.886-.28,6.567,6.567,0,0,0,1.137,6.059,20.149,20.149,0,0,1,1.221,3.635,2.47,2.47,0,0,0,2.489,1.65l.065.974-.494-.042a.468.468,0,0,0-.075.932l.629.051.093,1.4-.648-.051a.468.468,0,0,0-.075.932l.788.065.093,1.366-.336-.033a.468.468,0,1,0-.084.932l.466.042a2.079,2.079,0,0,0,.378,1.4l-.289-.042a.468.468,0,1,0-.093.932l.932.1c1.654,3.165,1.561,3.165,1.934,3.165,3.686,0,3.906.107,4.092-.247.433-.825.788-1.5,1.137-2.167l.76.084a.468.468,0,0,0,.093-.932l-.387-.042c.615-1.17.676-1.291.736-1.4l.536.042a.467.467,0,1,0,.042-.932l-.466-.042.1-1.4.792.042a.466.466,0,1,0,.037-.932l-.778-.065.093-1.4.648.065a.466.466,0,0,0,.037-.932l-.62-.051.117-1.813a2.465,2.465,0,0,0,2.461-1.631c.289-.825.736-3.034,1.221-3.635C33.057,7.568,28.121.2,22.095,2.33Zm-.3,26.677H18.669L17.56,26.886l5.061.536Zm2.2-4.786-5.127-.466a.468.468,0,1,0-.084.932l5.038.466c-.266.5-.5.932-.732,1.4l-6.059-.634c-.625-1.193-.513-.89-.55-1.426l.527.047a.467.467,0,0,0,.042-.932l-.634-.056-.093-1.37,7.76.643Zm.158-2.33-7.886-.671-.1-1.4,8.081.671Z" transform="translate(143.261 360.046)" fill="#fff"/>
    <path id="Path_87038" data-name="Path 87038" d="M22.022,7.086A9.591,9.591,0,0,0,26.571,8.33a9.591,9.591,0,0,0,4.549-1.244.466.466,0,0,0-.466-.792,8.822,8.822,0,0,1-4.083,1.1,8.822,8.822,0,0,1-4.064-1.1.466.466,0,0,0-.485.792Z" transform="translate(136.921 357.755)" fill="#fff"/>
    <path id="Path_87039" data-name="Path 87039" d="M12.936,8.2a.466.466,0,1,0-.466-.466A.466.466,0,0,0,12.936,8.2Z" transform="translate(141.92 357.208)" fill="#fff"/>
  </g>
</svg>
