<svg xmlns="http://www.w3.org/2000/svg" width="28.351" height="27.9" viewBox="0 0 28.351 27.9">
  <g id="Group_20239" data-name="Group 20239" transform="translate(-149.041 -362.6)">
    <path id="Path_87015" data-name="Path 87015" d="M11.175,32.563a.481.481,0,1,0-.383.562A.481.481,0,0,0,11.175,32.563Z" transform="translate(142.704 344.685)" fill="#fff"/>
    <path id="Path_87016" data-name="Path 87016" d="M23.084,42.914l-.189-.765a1.663,1.663,0,0,0-3.232,0l-.855,3.5A1.512,1.512,0,0,1,15.86,45.6c-.279-1.342-.68-3.308-1-4.876-.586-2.788-1.753-3.653-2.3-4.607a.474.474,0,1,0-.822.473c.6,1.044,1.654,1.758,2.192,4.328.321,1.573.732,3.525,1,4.872a2.457,2.457,0,0,0,4.791.071l.855-3.5a.69.69,0,0,1,.7-.529c.69,0,.723.643.888,1.314a.473.473,0,0,0,.917-.227Z" transform="translate(141.937 342.73)" fill="#fff"/>
    <path id="Path_87017" data-name="Path 87017" d="M30.684,22.03a2.6,2.6,0,0,1,1.578-.543.473.473,0,1,0,0-.945,2.594,2.594,0,0,1-2.6-2.6.473.473,0,1,0-.945,0,2.736,2.736,0,0,1-.08.652,6.35,6.35,0,0,0-3.643-1.573c-2.835-.246-3.445,1.356-6.431.326a6.44,6.44,0,0,0-8.458,5.264.476.476,0,0,0,.945.118,5.491,5.491,0,0,1,7.21-4.489,6.7,6.7,0,0,0,4.394,0,5.448,5.448,0,0,1,5.566,1.247,2.585,2.585,0,0,1-2.1,1.054.473.473,0,1,0,0,.945,2.6,2.6,0,0,1,2.6,2.6.473.473,0,1,0,.945,0,2.613,2.613,0,0,1,.208-1.011,5.325,5.325,0,0,1-1.219,3.846,8.817,8.817,0,0,0-1.781,3.87c-1.077,5.283-.983,5.3-1.526,5.736a1.512,1.512,0,0,1-2.424-.813l-.227-.945a.473.473,0,0,0-.917.227L22,35.94a2.462,2.462,0,0,0,3.936,1.323c.893-.723.813-1.177,1.857-6.284a7.853,7.853,0,0,1,1.583-3.454,6.355,6.355,0,0,0,1.3-5.5Zm-1.493.288a3.558,3.558,0,0,0-1.3-1.3,4.484,4.484,0,0,0,.742-.562c.945-.945.151-.983,1.129,0s.945.161,0,1.129A3.388,3.388,0,0,0,29.19,22.318Z" transform="translate(142.767 352.69)" fill="#fff"/>
    <path id="Path_87018" data-name="Path 87018" d="M26.684,23.38A9.724,9.724,0,0,0,31.3,22.118a.473.473,0,0,0-.473-.8,8.978,8.978,0,0,1-4.139,1.12,8.978,8.978,0,0,1-4.12-1.12.473.473,0,0,0-.473.8A9.724,9.724,0,0,0,26.684,23.38Z" transform="translate(136.532 350.428)" fill="#fff"/>
    <path id="Path_87019" data-name="Path 87019" d="M3.89,31H2.473a.473.473,0,0,0,0,.945H3.89a.473.473,0,0,0,0-.945Z" transform="translate(147.041 345.303)" fill="#fff"/>
    <path id="Path_87020" data-name="Path 87020" d="M58.89,31H57.473a.473.473,0,0,0,0,.945H58.89a.473.473,0,1,0,0-.945Z" transform="translate(118.029 345.303)" fill="#fff"/>
    <path id="Path_87021" data-name="Path 87021" d="M31.945,3.89V2.473a.473.473,0,0,0-.945,0V3.89a.473.473,0,0,0,.945,0Z" transform="translate(131.744 360.6)" fill="#fff"/>
    <path id="Path_87022" data-name="Path 87022" d="M7.368,44.06l-1.224.709a.474.474,0,0,0,.473.822l1.224-.709a.474.474,0,1,0-.473-.822Z" transform="translate(144.98 338.447)" fill="#fff"/>
    <path id="Path_87023" data-name="Path 87023" d="M53.978,18.152c.17,0,.113,0,1.46-.77a.474.474,0,1,0-.473-.822l-1.233.709a.473.473,0,0,0,.246.884Z" transform="translate(119.879 352.953)" fill="#fff"/>
    <path id="Path_87024" data-name="Path 87024" d="M17.268,7.841a.474.474,0,0,0,.822-.473l-.709-1.224a.474.474,0,1,0-.822.473Z" transform="translate(139.394 358.539)" fill="#fff"/>
    <path id="Path_87025" data-name="Path 87025" d="M44.882,7.841l.709-1.224a.474.474,0,0,0-.822-.473L44.06,7.368a.474.474,0,0,0,.822.473Z" transform="translate(124.888 358.539)" fill="#fff"/>
    <path id="Path_87026" data-name="Path 87026" d="M6.124,17.382c1.347.77,1.295.77,1.46.77a.473.473,0,0,0,.236-.884L6.6,16.56a.474.474,0,1,0-.473.822Z" transform="translate(144.991 352.953)" fill="#fff"/>
    <path id="Path_87027" data-name="Path 87027" d="M55.44,44.768l-1.233-.709a.474.474,0,1,0-.473.822l1.224.709a.477.477,0,0,0,.482-.822Z" transform="translate(119.877 338.447)" fill="#fff"/>
  </g>
</svg>
