<svg xmlns="http://www.w3.org/2000/svg" width="25.667" height="26.614" viewBox="0 0 25.667 26.614">
  <g id="Group_20241" data-name="Group 20241" transform="translate(-150.667 -363)">
    <path id="Path_84886" data-name="Path 84886" d="M88.406,177.566H99.67a.39.39,0,1,0,0-.781H88.406a.39.39,0,1,0,0,.781Zm0,0" transform="translate(67.226 195.404)" fill="#fff"/>
    <path id="Path_84887" data-name="Path 84887" d="M88.406,209.609H99.67a.39.39,0,1,0,0-.781H88.406a.39.39,0,1,0,0,.781Zm0,0" transform="translate(67.226 165.027)" fill="#fff"/>
    <path id="Path_84888" data-name="Path 84888" d="M88.406,241.652h1.839a.39.39,0,0,0,0-.781H88.406a.39.39,0,1,0,0,.781Zm0,0" transform="translate(67.226 134.649)" fill="#fff"/>
    <path id="Path_84889" data-name="Path 84889" d="M88.406,273.7h4.706a.39.39,0,1,0,0-.781H88.406a.39.39,0,1,0,0,.781Zm0,0" transform="translate(67.226 104.272)" fill="#fff"/>
    <path id="Path_84890" data-name="Path 84890" d="M88.406,305.734h4.706a.39.39,0,1,0,0-.781H88.406a.39.39,0,1,0,0,.781Zm0,0" transform="translate(67.226 73.898)" fill="#fff"/>
    <path id="Path_84891" data-name="Path 84891" d="M96.452,369.43a.391.391,0,0,0-.39-.391H88.406a.39.39,0,1,0,0,.781h7.655A.391.391,0,0,0,96.452,369.43Zm0,0" transform="translate(67.226 13.144)" fill="#fff"/>
    <path id="Path_84892" data-name="Path 84892" d="M176.693,29.586a1.49,1.49,0,1,0,1.49,1.49A1.492,1.492,0,0,0,176.693,29.586Zm0,2.2a.709.709,0,1,1,.709-.709A.71.71,0,0,1,176.693,31.785Zm0,0" transform="translate(-15.429 334.952)" fill="#fff"/>
    <path id="Path_84893" data-name="Path 84893" d="M25.4,14.01a2.919,2.919,0,0,0-4.016-1.935l-.068.024-.12.039V4.583a1.948,1.948,0,0,0-1.945-1.945H13.6a3.028,3.028,0,0,0-6.006,0H1.945A1.948,1.948,0,0,0,0,4.583V24.669a1.948,1.948,0,0,0,1.945,1.946h17.3a1.948,1.948,0,0,0,1.946-1.945V22.1a1.257,1.257,0,0,0,.428.511,1.232,1.232,0,0,0,1.3,0,1.329,1.329,0,0,0,.512-.908l.018-.076a8.249,8.249,0,0,1,.94-2.116c.089-.159.182-.324.273-.492a8.171,8.171,0,0,0,.93-2.469,5.194,5.194,0,0,0-.19-2.542ZM5.622,3.418H7.959a.39.39,0,0,0,.39-.39,2.247,2.247,0,0,1,4.494,0,.39.39,0,0,0,.39.39h2.337V6.361H5.622ZM20.413,24.669a1.166,1.166,0,0,1-1.165,1.165H1.945A1.166,1.166,0,0,1,.78,24.669V4.583A1.166,1.166,0,0,1,1.945,3.418h2.9V4.655H3.487A1.445,1.445,0,0,0,2.043,6.1V21.707a.435.435,0,0,0,.117.279l1.224,1.2.847.831.3.29c.024.023.047.048.071.07a.631.631,0,0,0,.474.122H6.913a.39.39,0,0,0,0-.781H5.271v-1.5a.907.907,0,0,0-.905-.906H2.824V6.1a.663.663,0,0,1,.663-.663H4.841V6.491a.651.651,0,0,0,.651.651H15.7a.651.651,0,0,0,.651-.651V5.436h1.355a.663.663,0,0,1,.663.663V8.345a.39.39,0,1,0,.781,0V6.1a1.445,1.445,0,0,0-1.443-1.443H16.352V3.418h2.9a1.166,1.166,0,0,1,1.165,1.165v7.7a3.6,3.6,0,0,1-1.263-.13V10.141a.39.39,0,1,0-.781,0V11.92a2.959,2.959,0,0,0-1.773.126,2.8,2.8,0,0,0-.745.475H8.573a.39.39,0,0,0,0,.781h6.643a3.985,3.985,0,0,0-.324.708c-.02.058-.039.117-.057.176H11.5a.39.39,0,0,0,0,.781h3.169a5.364,5.364,0,0,0-.042.885H11.5a.39.39,0,1,0,0,.781h3.217a6.555,6.555,0,0,0,.238.885H4.965a.39.39,0,1,0,0,.781H15.27c.106.233.226.473.362.722l.09.163H14.373a.39.39,0,0,0,0,.781h1.783a6.777,6.777,0,0,1,.689,1.664l.018.076a1.329,1.329,0,0,0,.512.908,1.269,1.269,0,0,0,1,.138v.305a.663.663,0,0,1-.663.663H8.7a.39.39,0,1,0,0,.781h9.012a1.445,1.445,0,0,0,1.443-1.443V21.977a3.467,3.467,0,0,0,.162-1.22,2.729,2.729,0,0,1,.09-.729,1.494,1.494,0,0,1,.241-.526.478.478,0,0,1,.1-.093.7.7,0,0,1,.668-.072ZM3.389,22.1h.977a.126.126,0,0,1,.125.125v.956L3.9,22.594Zm21.433-5.683a7.417,7.417,0,0,1-.847,2.234c-.088.163-.18.325-.268.482a8.854,8.854,0,0,0-1.018,2.315l-.019.083c-.036.157-.086.372-.167.423a.462.462,0,0,1-.442.015c-.3-.2-.3-.884-.3-1.211a3.493,3.493,0,0,0-.117-.935,2.247,2.247,0,0,0-.376-.8,1.239,1.239,0,0,0-.272-.255,1.481,1.481,0,0,0-1.694,0,1.244,1.244,0,0,0-.273.255,2.25,2.25,0,0,0-.376.8,3.541,3.541,0,0,0-.118.935c0,.326,0,1.006-.3,1.21a.462.462,0,0,1-.442-.015c-.081-.051-.131-.266-.167-.423l-.019-.083c-.327-1.361-1.233-2.392-1.713-3.674q-.006-.016-.013-.032c-.713-1.486-.784-4.194,1.03-4.978a2.425,2.425,0,0,1,1.733.045l.083.03a4.383,4.383,0,0,0,2.847,0l.083-.03a2.425,2.425,0,0,1,1.733-.045c1.261.545,1.681,2.289,1.436,3.652Zm0,0" transform="translate(150.667 363)" fill="#fff"/>
  </g>
</svg>
