<svg xmlns="http://www.w3.org/2000/svg" width="28.092" height="26.25" viewBox="0 0 28.092 26.25">
  <g id="Group_20247" data-name="Group 20247" transform="translate(-149 -363.5)">
    <path id="Path_87033" data-name="Path 87033" d="M53.7,54.85H48.409a4.978,4.978,0,0,0,.567-2.891h0a5.04,5.04,0,0,0-7.8-3.639,5.036,5.036,0,0,0-2.763-.838v-.924a2.3,2.3,0,1,0-.921,0v1a5.039,5.039,0,0,0-4.117,4.4,4.977,4.977,0,0,0,.567,2.891H29.114A1.757,1.757,0,0,0,27.359,56.6v8.968a1.757,1.757,0,0,0,1.755,1.755h6.995a.461.461,0,0,0,0-.921H29.114a.835.835,0,0,1-.834-.834V56.6a.835.835,0,0,1,.834-.834h5.46a3.77,3.77,0,0,1,.653,1.09,7.39,7.39,0,0,1,.545,2.158,13.914,13.914,0,0,0,.741,4.977,1.668,1.668,0,0,0,1.364,1.015.433.433,0,0,0,.074.015c.012,0,.023-.006.035-.007.033,0,.065.007.1.007a1.707,1.707,0,0,0,1.709-1.7V59.217a1.39,1.39,0,1,1,2.763,0v4.106a1.707,1.707,0,0,0,1.709,1.7c.033,0,.065-.005.1-.007.012,0,.023.007.035.007a.433.433,0,0,0,.074-.015,1.668,1.668,0,0,0,1.364-1.016,13.916,13.916,0,0,0,.741-4.977,7.4,7.4,0,0,1,.545-2.158,3.772,3.772,0,0,1,.654-1.089H53.7a.835.835,0,0,1,.834.834v8.968a.835.835,0,0,1-.834.834H44.859a.461.461,0,0,0-.921,0H38.412a.461.461,0,0,0-.921,0v1.382a.461.461,0,1,0,.921,0v-.461h5.526v.461a.461.461,0,1,0,.921,0v-.461H53.7a1.757,1.757,0,0,0,1.755-1.755V56.6A1.758,1.758,0,0,0,53.7,54.85ZM36.57,44.3a1.382,1.382,0,1,1,1.382,1.382A1.383,1.383,0,0,1,36.57,44.3Zm.8,19.344a13.251,13.251,0,0,1-.672-4.634,7.957,7.957,0,0,0-.6-2.472,4.73,4.73,0,0,0-.851-1.411,4.052,4.052,0,0,1-.95-3.076,4.112,4.112,0,0,1,3.2-3.559V63.842A.687.687,0,0,1,37.366,63.646Zm6.112-.323V59.217a2.479,2.479,0,0,0-2.258-2.467l-.045,0-.045,0a2.479,2.479,0,0,0-2.258,2.467v4.106a.78.78,0,0,1-.461.708V55.815a2.763,2.763,0,1,1,5.526,0v8.217A.78.78,0,0,1,43.477,63.323Zm3.633-8.195a4.732,4.732,0,0,0-.851,1.411,7.958,7.958,0,0,0-.6,2.473,13.248,13.248,0,0,1-.672,4.634.687.687,0,0,1-.125.2V55.815a3.679,3.679,0,0,0-6.447-2.429V48.4a4.12,4.12,0,0,1,2.408.792.46.46,0,0,0,.272.089h.166a.459.459,0,0,0,.272-.089,4.119,4.119,0,0,1,6.53,2.859h0a4.053,4.053,0,0,1-.95,3.075Z" transform="translate(121.641 321.501)" fill="#fff"/>
  </g>
</svg>
