<svg xmlns="http://www.w3.org/2000/svg" width="21.8" height="25.84" viewBox="0 0 21.8 25.84">
  <g id="Group_20240" data-name="Group 20240" transform="translate(-153 -363.428)">
    <g id="Group_7331" data-name="Group 7331" transform="translate(153 363.428)">
      <g id="Group_7330" data-name="Group 7330" transform="translate(0 0)">
        <path id="Path_84883" data-name="Path 84883" d="M148.508,125.208A.378.378,0,0,0,149,125c1.666-4.138-1.908-7.923-5.55-5.762-3.522-2.089-7.273,1.482-5.55,5.762a5.449,5.449,0,0,0,1.736,2.315c-.23,2.346.7,4.929,1.728,4.93.364,0,.592-.291.694-.647a19.985,19.985,0,0,1,.289-2.2,1.172,1.172,0,0,1,.706-.742h0c1.215-.349,1.658.7,1.691,1.969a3.659,3.659,0,0,0,.112,1.023c.212.667.825.837,1.363.224a6.731,6.731,0,0,0,1.045-4.553,5.269,5.269,0,0,0,1.111-1.161.379.379,0,0,0-.619-.436c-.788,1.12-1.325,1.03-1.268,1.469a5.867,5.867,0,0,1-.9,4.249,14.487,14.487,0,0,1-.144-1.58h0a2.164,2.164,0,0,0-1.381-1.932c-.976-.294-2.312.035-2.6,1.923h0a15.083,15.083,0,0,1-.145,1.589,5.867,5.867,0,0,1-.9-4.249.379.379,0,0,0-.16-.36,4.66,4.66,0,0,1-1.651-2.11c-1.464-3.637,1.67-6.687,4.638-4.717.4.262.561-.332,1.762-.559,2.728-.5,4.418,2.488,3.3,5.276A.379.379,0,0,0,148.508,125.208Z" transform="translate(-132.551 -112.622)" fill="#fff"/>
        <path id="Path_84884" data-name="Path 84884" d="M89.445,45.334a.378.378,0,0,0,.379-.379V33.882a.378.378,0,0,0-.3-.37c-9.57-2.114-8.993-2-9.113-1.977l-8.95,1.977a.379.379,0,0,0-.3.37V47.564c0,2.353,2.52,4.027,4.633,5.017a20.847,20.847,0,0,0,4.782,1.59c3.453-.818,9.241-3.045,9.241-6.608v-1.4a.379.379,0,1,0-.757,0v1.4c0,3.065-5.583,5.125-8.572,5.85-2.991-.724-8.571-2.788-8.571-5.85V34.186L80.5,32.292l8.571,1.894V44.955A.378.378,0,0,0,89.445,45.334Z" transform="translate(-69.595 -29.934)" fill="#fff"/>
        <path id="Path_84885" data-name="Path 84885" d="M60.913,2.18,54.8.828a.378.378,0,1,0-.163.739L60.75,2.919a.4.4,0,0,1,.319.4V17.63c0,2.742-2.644,4.6-5.1,5.755a21.444,21.444,0,0,1-5.126,1.689c-2.248-.48-6.268-1.854-8.414-3.956a4.847,4.847,0,0,1-1.644-3.488V3.317a.41.41,0,0,1,.319-.4L50.838.768c.123-.027-.026-.045,2.556.526a.378.378,0,1,0,.163-.739c-2.567-.567-2.547-.6-2.882-.526L40.939,2.18a1.157,1.157,0,0,0-.913,1.137V17.63A5.573,5.573,0,0,0,41.9,21.659c2.163,2.117,6.146,3.591,8.787,4.155a1.167,1.167,0,0,0,.485,0,26.57,26.57,0,0,0,5.119-1.744c2.791-1.307,5.538-3.374,5.538-6.441V3.317A1.157,1.157,0,0,0,60.913,2.18Z" transform="translate(-40.026 0)" fill="#fff"/>
      </g>
    </g>
  </g>
</svg>
