<svg xmlns="http://www.w3.org/2000/svg" width="27.051" height="26.764" viewBox="0 0 27.051 26.764">
  <g id="Group_20238" data-name="Group 20238" transform="translate(-149.616 -363)">
    <path id="Path_87028" data-name="Path 87028" d="M25.767,24.293c3.318,3.323,3.508,3.812,4.66,3.812a2.058,2.058,0,0,0,1.384-3.6c-3.724-3.719-3.884-4.012-4.985-4.563V9.072a3.086,3.086,0,0,0-3.086-3.086,25.929,25.929,0,0,0-3.8.041c-.134.041-.123.067-.622.566a3.637,3.637,0,0,0-4.727.571.514.514,0,0,0,0,.73l.838.838a.517.517,0,1,0,.73-.73L15.7,7.529a2.572,2.572,0,0,1,3.632,3.637L17.609,9.437a.517.517,0,0,0-.73.73c2.32,2.32,2.181,2.253,2.469,2.253.772,0,2.618-2.87.736-5.144l.267-.262h3.39A2.058,2.058,0,0,1,25.8,9.072V19.566c-1-.273-.782-.206-8.7-.206l1.229-1.543h5.412a.514.514,0,0,0,0-1.029H18.082c-.334,0-.231,0-2.248,2.505-.967-.216-1.127-.556-3.9-3.333.237-1.348-.746-1.98-2.022-3.261A2.058,2.058,0,0,0,7,12.7L5.912,13.789a1.543,1.543,0,0,0,0,2.186l.37.37a.517.517,0,1,0,.73-.73l-.37-.37a.514.514,0,0,1,0-.725l1.091-1.091a1.029,1.029,0,0,1,1.451,0l1.456,1.456a1.029,1.029,0,0,1,.242,1.07c-.108.319-.247.391-1.327,1.471a.514.514,0,0,1-.725,0l-.37-.37a.517.517,0,1,0-.73.73,2.443,2.443,0,0,0,.952.73c3.359,3.364,3.945,4.249,5.808,4.758v.715a2.058,2.058,0,0,0,2.058,2.058h3.369L23,29.134H19.625a.514.514,0,0,0,0,1.029h8.23A1.543,1.543,0,0,1,29.4,31.706H11.909a1.543,1.543,0,0,1,1.543-1.543H15a.514.514,0,1,0,0-1.029H13.453a2.572,2.572,0,0,0-2.572,2.572H9.337a.514.514,0,1,0,0,1.029h21.6a.514.514,0,0,0,0-1.029h-.514a2.572,2.572,0,0,0-2.31-2.572l-3.385-3.38A2.058,2.058,0,0,0,25.767,24.293Zm-1.322,4.841-3.086-3.086H23.55l3.086,3.086Zm-.7-4.115h-7.2A1.029,1.029,0,0,1,15.51,23.99v-.514c.334.031.041,0,5.658,0a.514.514,0,0,0,0-1.029c-7.978,0-6.512.6-11.178-4.064a18.518,18.518,0,0,0,1.481-1.43c2.361,2.366,3.045,3.436,4.928,3.436,8.632,0,8.565-.113,9.691.355,1.209.6.787.3,4.99,4.506a1.07,1.07,0,0,1,.093,1.451,1.029,1.029,0,0,1-1.5.046c-3.925-3.925-3.812-4.3-6.451-4.3a.514.514,0,1,0,0,1.029,4.162,4.162,0,0,1,1.543.159v.355A1.029,1.029,0,0,1,23.741,25.019Z" transform="translate(144.158 357.029)" fill="#fff"/>
    <path id="Path_87029" data-name="Path 87029" d="M28.029,52.029a.514.514,0,1,0,0-1.029h-.514a.514.514,0,1,0,0,1.029Z" transform="translate(133.697 335.163)" fill="#fff"/>
  </g>
</svg>
