<svg xmlns="http://www.w3.org/2000/svg" width="23" height="28.313" viewBox="0 0 23 28.313">
  <g id="Group_20244" data-name="Group 20244" transform="translate(-152 -362.687)">
    <path id="Path_84869" data-name="Path 84869" d="M367.127,242.384a.415.415,0,0,0-.411-.418l-.619,0a.415.415,0,0,0-.006.83l.619,0h0A.415.415,0,0,0,367.127,242.384Zm0,0" transform="translate(-193.485 134.106)" fill="#fff"/>
    <path id="Path_84870" data-name="Path 84870" d="M361.447,210.769a.412.412,0,0,0,.2-.054l.538-.305a.415.415,0,0,0-.409-.721l-.538.305a.415.415,0,0,0,.205.776Zm0,0" transform="translate(-189.095 164.646)" fill="#fff"/>
    <path id="Path_84871" data-name="Path 84871" d="M360.834,269.461l.534.313a.415.415,0,1,0,.42-.715l-.534-.313a.415.415,0,1,0-.42.715Zm0,0" transform="translate(-188.715 108.857)" fill="#fff"/>
    <path id="Path_84872" data-name="Path 84872" d="M2.165,242.8h0l.619,0a.415.415,0,0,0,0-.829h0l-.619,0a.415.415,0,0,0,0,.829Zm0,0" transform="translate(150.319 134.106)" fill="#fff"/>
    <path id="Path_84873" data-name="Path 84873" d="M8.06,210.409l.538.305a.415.415,0,1,0,.409-.721l-.538-.305a.415.415,0,0,0-.409.721Zm0,0" transform="translate(144.556 164.646)" fill="#fff"/>
    <path id="Path_84874" data-name="Path 84874" d="M9.075,268.748l-.534.313a.415.415,0,1,0,.42.715l.533-.313a.415.415,0,1,0-.42-.715Zm0,0" transform="translate(144.096 108.854)" fill="#fff"/>
    <path id="Path_84875" data-name="Path 84875" d="M23.379,5.3a.415.415,0,0,0-.586,0l-1.05,1.05A9.08,9.08,0,0,0,20.1,6.1a10.323,10.323,0,0,0-7,2.474q-.823.657-1.642,1.2L10.3,8.615l.8-.8.693.693a.415.415,0,0,0,.586-.587l-.693-.693.8-.8.693.693a.415.415,0,0,0,.587-.586l-.693-.693.8-.8.693.693a.415.415,0,0,0,.586-.586l-.693-.693.8-.8L16.6,5.021a.415.415,0,0,0,.586-.586L15.833,3.08,18.2.709a.415.415,0,0,0-.586-.587L10.58,7.159h-.01A9.229,9.229,0,0,1,8.8,6.829,4.482,4.482,0,0,0,3.11,10.547a.415.415,0,1,0,.823.108,3.653,3.653,0,0,1,4.633-3.03,10,10,0,0,0,1.27.279L7.444,10.3a1.678,1.678,0,0,0,0,2.371l.5.5L6.188,14.918a1.032,1.032,0,0,0,0,1.459l.175.175-.857.857c-.191-.878-.345-1.509-.459-1.886l0-.015L4.091,12.29a.415.415,0,1,0-.8.235l.953,3.222,0,.008,0,.005c.081.266.186.682.312,1.236A2.175,2.175,0,0,0,3,17.219L.943,18.367a.862.862,0,0,0-.442.753v8.333a.862.862,0,0,0,.861.861H21.35a.862.862,0,0,0,.861-.861V22.773a.415.415,0,1,0-.829,0v4.679a.032.032,0,0,1-.032.032H1.362a.032.032,0,0,1-.032-.032V19.119a.032.032,0,0,1,.016-.028l2.06-1.147a1.354,1.354,0,0,1,1.361.017l.01,0,.03.141L3.38,19.535a.415.415,0,0,0,.586.586L5.008,19.08q.135.666.287,1.443c.322,1.65.63,3.32.832,4.43A1.758,1.758,0,0,0,7.778,26.4a1.732,1.732,0,0,0,1.768-1.466l.785-5.084a1.037,1.037,0,0,1,2.049,0l.785,5.084a1.731,1.731,0,0,0,3.414.046c.29-1.6.875-4.755,1.355-7.014l.021-.011a1.356,1.356,0,0,1,1.35-.011l2.06,1.147a.032.032,0,0,1,.016.028v1.848a.415.415,0,1,0,.829,0V19.119a.862.862,0,0,0-.442-.753l-2.06-1.147A2.178,2.178,0,0,0,18.147,17c.119-.521.226-.949.312-1.233l.007-.022.989-3.344a4.441,4.441,0,0,0-.01-2.579l3.935-3.935a.415.415,0,0,0,0-.587ZM8.031,10.882,9.711,9.2l1.025,1.025A15.048,15.048,0,0,1,7.793,11.6.846.846,0,0,1,8.031,10.882ZM6.775,15.5l1.754-1.754L9.75,14.972,8,16.727a.2.2,0,0,1-.286,0l-.936-.936a.2.2,0,0,1,0-.286Zm11.885-3.343-.991,3.35v0l0,0c-.449,1.474-1.385,6.467-1.9,9.312a.9.9,0,0,1-1.778-.024L13.2,19.723a1.866,1.866,0,0,0-3.689,0l-.785,5.084a.9.9,0,0,1-.921.764.924.924,0,0,1-.863-.766c-.2-1.112-.512-2.785-.834-4.44q-.216-1.109-.4-1.988l1.238-1.238.175.175a1.032,1.032,0,0,0,1.459,0l1.754-1.754.5.5a1.677,1.677,0,0,0,2.371,0l1.443-1.443a.415.415,0,1,0-.586-.586l-1.443,1.443a.847.847,0,0,1-1.2,0L8.268,12.316a18.613,18.613,0,0,0,5.348-3.091,9.384,9.384,0,0,1,6.439-2.293,8.2,8.2,0,0,1,.988.116l-5.624,5.624a.415.415,0,0,0,.587.587L18.758,10.5a3.637,3.637,0,0,1-.1,1.657Zm0,0" transform="translate(151.5 362.686)" fill="#fff"/>
    <path id="Path_84876" data-name="Path 84876" d="M178.083,214.691h-.008a.415.415,0,0,0,0,.829h.008a.415.415,0,0,0,0-.829Zm0,0" transform="translate(-15.864 159.868)" fill="#fff"/>
    <path id="Path_84877" data-name="Path 84877" d="M250.265,173a.415.415,0,0,0-.413-.417h-.006a.415.415,0,1,0,0,.829h.008A.414.414,0,0,0,250.265,173Zm0,0" transform="translate(-83.664 199.645)" fill="#fff"/>
    <path id="Path_84878" data-name="Path 84878" d="M260.187,200.27a.414.414,0,0,0-.411-.418h-.01a.415.415,0,0,0,0,.829h.01A.414.414,0,0,0,260.187,200.27Zm0,0" transform="translate(-93.037 173.887)" fill="#fff"/>
  </g>
</svg>
