<svg xmlns="http://www.w3.org/2000/svg" width="24.704" height="19.08" viewBox="0 0 24.704 19.08">
  <g id="Group_20236" data-name="Group 20236" transform="translate(-151 -367.254)">
    <path id="Path_87040" data-name="Path 87040" d="M24.7,66.112c-.039-3.842-.676-6.117-2-7.157a4.492,4.492,0,0,0-3.894-.436,28.263,28.263,0,0,1-12.908,0,5.07,5.07,0,0,0-3.265.058.362.362,0,0,0,.294.661,4.419,4.419,0,0,1,2.8-.014,28.99,28.99,0,0,0,13.24,0c1.541-.363,2.553-.271,3.281.3.951.746,1.5,2.4,1.671,5.044a1.992,1.992,0,0,0-2.653.2,2.366,2.366,0,0,0-4.031-.622,2.722,2.722,0,0,0-4.889-.353,2.723,2.723,0,0,0-4.889.353,2.367,2.367,0,0,0-4.031.622,1.993,1.993,0,0,0-2.653-.2,8.833,8.833,0,0,1,1.173-4.521.362.362,0,1,0-.584-.428C.48,60.831.033,62.953,0,66.108q0,.02,0,.04v4.5a1.993,1.993,0,0,0,2.641,1.887v.885a3.935,3.935,0,0,0,4.518,3.892,38.092,38.092,0,0,1,7.173-.307.362.362,0,0,0,.035-.723A38.773,38.773,0,0,0,7.05,76.6a3.211,3.211,0,0,1-3.686-3.177V72.1l.068-.067a2.366,2.366,0,0,0,4.03.622,2.722,2.722,0,0,0,4.889.353,2.722,2.722,0,0,0,4.889-.353,2.365,2.365,0,0,0,4.03-.622l.068.067v1.322A3.211,3.211,0,0,1,17.653,76.6c-.576-.087-1.19-.16-1.825-.216a.362.362,0,1,0-.064.721c.62.055,1.219.126,1.781.211a3.935,3.935,0,0,0,4.518-3.892v-.885a2,2,0,0,0,2.64-1.887C24.7,70.63,24.7,66.139,24.7,66.112ZM5.63,72.8a1.643,1.643,0,0,1-1.641-1.641v-2.4H7.271c0,2.552.007,2.42-.008,2.568A1.643,1.643,0,0,1,5.63,72.8ZM.736,65.977a1.257,1.257,0,0,1,.227-.569,1.271,1.271,0,0,1,2.3.74v1.89H.724c0-1.963-.007-1.922.012-2.061ZM5.63,64a1.643,1.643,0,0,1,1.641,1.641v2.4H3.989v-2.4A1.643,1.643,0,0,1,5.63,64Zm4.362-.848a2,2,0,0,1,2,2v2.892H8V65.147A2,2,0,0,1,9.993,63.15ZM8,68.762H11.99v2.892a2,2,0,1,1-3.995,0Zm4.718,2.892V68.762h3.995v2.892a2,2,0,0,1-3.995,0ZM19.073,64a1.643,1.643,0,0,1,1.641,1.641v2.4H17.432v-2.4A1.643,1.643,0,0,1,19.073,64Zm-1.641,4.765h3.282v2.4a1.641,1.641,0,1,1-3.282,0v-2.4Zm4.006-2.614a1.271,1.271,0,0,1,2.514-.266,15.44,15.44,0,0,1,.028,2.156H21.438Zm-4.73-1v2.892H12.714V65.147a2,2,0,0,1,3.995,0ZM.724,70.652v-1.89H3.266c0,1.974.123,2.395-.472,2.877A1.272,1.272,0,0,1,.724,70.652Zm23.256,0a1.271,1.271,0,0,1-2.541.05c0-.051,0-.467,0-1.94H23.98Z" transform="translate(151 308.973)" fill="#fff"/>
  </g>
</svg>
