<svg xmlns="http://www.w3.org/2000/svg" width="26.479" height="28.333" viewBox="0 0 26.479 28.333">
  <g id="Group_20243" data-name="Group 20243" transform="translate(-150.506 -362)">
    <path id="Path_84865" data-name="Path 84865" d="M267.584,182.544a4.048,4.048,0,0,1-2.2-.645.416.416,0,1,1,.452-.7,3.229,3.229,0,0,0,3.447.028.416.416,0,0,1,.44.707A4.047,4.047,0,0,1,267.584,182.544Z" transform="translate(-100.897 190.921)" fill="#fff"/>
    <path id="Path_84866" data-name="Path 84866" d="M21.488.63H19.34a1.443,1.443,0,0,0-2.635.813V6.525A3.533,3.533,0,0,0,17.747,9.04L19.21,10.5a.666.666,0,0,1,.2.474v5.48a.416.416,0,1,0,.833,0v-5.48a1.493,1.493,0,0,0-.44-1.063L18.335,8.452a2.706,2.706,0,0,1-.8-1.926V1.443a.611.611,0,0,1,1.221,0V6.525a1.493,1.493,0,0,0,.44,1.063l1.463,1.463a2.706,2.706,0,0,1,.8,1.926V26.81a.611.611,0,0,1-1.221,0V18.123a.416.416,0,0,0-.833,0V26.81a1.443,1.443,0,0,0,2.886,0V10.978a3.533,3.533,0,0,0-1.042-2.515L19.969,7.18h1.519a1.268,1.268,0,0,0,1.266-1.266V1.9A1.268,1.268,0,0,0,21.488.63Zm0,5.717H19.64V1.463h1.848a.434.434,0,0,1,.434.434v.057h-.447a.416.416,0,0,0,0,.833h.447v.794h-.447a.416.416,0,0,0,0,.833h.447v.794h-.447a.416.416,0,0,0,0,.833H21.9A.434.434,0,0,1,21.488,6.348Z" transform="translate(133.801 362)" fill="#fff"/>
    <path id="Path_84867" data-name="Path 84867" d="M269.284,181.229a3.23,3.23,0,0,1-3.447-.028.416.416,0,1,0-.452.7,4.065,4.065,0,0,0,4.339.036.416.416,0,0,0-.44-.707Z" transform="translate(-100.897 190.921)" fill="#fff"/>
    <path id="Path_84868" data-name="Path 84868" d="M164.358,132.483a5.053,5.053,0,0,0-3.613-1.443,5.172,5.172,0,0,0-5.64-.018,1.946,1.946,0,0,1-2.109,0,5.187,5.187,0,0,0-7.29,6.974,20.965,20.965,0,0,1,1.4,2.888,1.947,1.947,0,0,0-.638,3.508,2.049,2.049,0,0,0,1.947,1.743l.354,3.134a2.289,2.289,0,0,0,2.276,2.033h.008a2.29,2.29,0,0,0,2.218-1.719c0-.011.005-.023.007-.034l.586-3.451a.247.247,0,0,1,.259-.219h0a.247.247,0,0,1,.259.22l.573,3.441c0,.011,0,.023.007.034a2.291,2.291,0,0,0,4.5-.306l.382-3.4a20.142,20.142,0,0,1,.355-2.12.416.416,0,1,0-.813-.181,20.962,20.962,0,0,0-.369,2.208l-.382,3.4a1.458,1.458,0,0,1-2.858.21l-.57-3.423a1.08,1.08,0,0,0-1.079-.916h0a1.08,1.08,0,0,0-1.08.912l-.583,3.433a1.458,1.458,0,0,1-1.408,1.078h-.008a1.457,1.457,0,0,1-1.449-1.294l-.355-3.135,0-.04a2.058,2.058,0,0,0,1.268-2.389,1.946,1.946,0,0,0-2.574-2.9,21.784,21.784,0,0,0-1.51-3.136,4.354,4.354,0,0,1,6.12-5.854,2.78,2.78,0,0,0,3.012,0,4.344,4.344,0,0,1,4.163-.3,1.945,1.945,0,0,0,.073,3.175,2.055,2.055,0,0,0,2.377,1.716,4.3,4.3,0,0,1-.45,1.189,22.828,22.828,0,0,0-1.894,4.412.416.416,0,1,0,.8.245,21.99,21.99,0,0,1,1.825-4.251,5.132,5.132,0,0,0,.622-1.935.406.406,0,0,0,0-.051,2.056,2.056,0,0,0,.759-2.1A1.933,1.933,0,0,0,164.358,132.483Zm-16.64,9.191c.034,0,.07.012.106.021a.416.416,0,0,0,.416-.136,1.114,1.114,0,1,1,1.538,1.6.416.416,0,0,0-.131.479,1.225,1.225,0,1,1-2.365.492.416.416,0,0,0-.227-.355,1.114,1.114,0,0,1,.5-2.107A1.132,1.132,0,0,1,147.718,141.675ZM163.1,133.36a.416.416,0,0,0-.131.479,1.225,1.225,0,1,1-2.365.492.416.416,0,0,0-.227-.355,1.114,1.114,0,0,1,.664-2.1c.034,0,.07.012.106.021a.416.416,0,0,0,.416-.136,1.114,1.114,0,1,1,1.538,1.6Z" transform="translate(12.627 239.032)" fill="#fff"/>
  </g>
</svg>
