<svg xmlns="http://www.w3.org/2000/svg" width="34.857" height="44.989" viewBox="0 0 34.857 44.989">
    <defs>
        <style>
            .prefix__cls-1{fill:#fff}
        </style>
    </defs>
    <g id="prefix__pdf" transform="translate(-57.653)">
        <path id="prefix__Path_28734" d="M92.509 12.144a.664.664 0 0 0-.194-.445L80.676.19a.668.668 0 0 0-.464-.19H62.367a3 3 0 0 0-3.008 2.982v3.432a.659.659 0 0 0 1.318 0V2.982a1.679 1.679 0 0 1 1.69-1.664h17.186V9.2a3.65 3.65 0 0 0 3.663 3.629h7.976v29.18a1.679 1.679 0 0 1-1.69 1.664H62.367a1.679 1.679 0 0 1-1.69-1.664v-2.084h17.568a.659.659 0 0 0 0-1.318H60.069a1.1 1.1 0 0 1-1.1-1.1V26.825a1.1 1.1 0 0 1 1.1-1.1H84.5a1.1 1.1 0 0 1 1.1 1.1v10.683a1.1 1.1 0 0 1-1.1 1.1h-2.618a.659.659 0 0 0 0 1.318H84.5a2.419 2.419 0 0 0 2.416-2.416V26.825a2.419 2.419 0 0 0-2.416-2.416H60.677V9.884a.659.659 0 0 0-1.318 0v14.631a2.421 2.421 0 0 0-1.706 2.31v10.683a2.421 2.421 0 0 0 1.706 2.31v2.189a3 3 0 0 0 3.008 2.982H89.5a3 3 0 0 0 3.008-2.982V12.168v-.024zM80.871 9.2V2.237l9.376 9.271h-7.031A2.33 2.33 0 0 1 80.871 9.2z" class="prefix__cls-1" data-name="Path 28734"/>
        <path id="prefix__Path_28735" d="M290.4 322.155a.659.659 0 0 0 0-1.318h-2.688a.659.659 0 0 0-.659.659v6.632a.659.659 0 0 0 1.318 0v-2.72h1.815a.659.659 0 0 0 0-1.318h-1.815v-1.935z" class="prefix__cls-1" data-name="Path 28735" transform="translate(-209.243 -292.645)"/>
        <path id="prefix__Path_28736" d="M197.523 328.719a.688.688 0 0 0 .672.764c.055 0 1.364-.005 1.886-.014 1.861-.033 3.212-1.667 3.212-3.886 0-2.333-1.317-3.9-3.277-3.9h-1.836a.659.659 0 0 0-.659.66v6.376zm2.5-5.719c1.444 0 1.959 1.334 1.959 2.583 0 1.221-.6 2.545-1.917 2.568-.275 0-.789.009-1.209.011 0-.763-.006-1.992-.006-2.587v-2.576z" class="prefix__cls-1" data-name="Path 28736" transform="translate(-127.58 -293.416)"/>
        <path id="prefix__Path_28737" d="M116.3 320.558a.665.665 0 0 0-.659.659v6.683a.659.659 0 0 0 1.318 0v-2.247h1.2a2.545 2.545 0 1 0 0-5.089H116.3zm3.124 2.544a1.262 1.262 0 0 1-1.263 1.226h-1.192v-1.231-1.226h1.2a1.262 1.262 0 0 1 1.254 1.229z" class="prefix__cls-1" data-name="Path 28737" transform="translate(-52.892 -292.391)"/>
    </g>
</svg>
