<svg xmlns="http://www.w3.org/2000/svg" width="26.732" height="26.78" viewBox="0 0 26.732 26.78">
  <g id="Group_20236" data-name="Group 20236" transform="translate(-154.857 -513.698)">
    <g id="Group_20235" data-name="Group 20235">
      <path id="phone-call" d="M17.691,5.816a6.021,6.021,0,0,1,4.756,4.756M17.691,1a10.837,10.837,0,0,1,9.573,9.561m-1.2,9.609v3.612a2.408,2.408,0,0,1-2.625,2.408,23.829,23.829,0,0,1-10.391-3.7,23.48,23.48,0,0,1-7.225-7.225,23.829,23.829,0,0,1-3.7-10.44A2.408,2.408,0,0,1,4.518,2.2H8.13a2.408,2.408,0,0,1,2.408,2.071,15.461,15.461,0,0,0,.843,3.384,2.408,2.408,0,0,1-.542,2.541L9.31,11.729a19.266,19.266,0,0,0,7.225,7.225l1.529-1.529a2.408,2.408,0,0,1,2.541-.542,15.461,15.461,0,0,0,3.384.843A2.408,2.408,0,0,1,26.059,20.169Z" transform="translate(153.496 513.526)" fill="none" stroke="#bcd38b" stroke-linecap="round" stroke-linejoin="round" stroke-width="1.5"/>
    </g>
  </g>
</svg>
