<svg xmlns="http://www.w3.org/2000/svg" width="25.711" height="25.758" viewBox="0 0 25.711 25.758">
  <g id="Group_20238" data-name="Group 20238" transform="translate(-1064.249 -49.121)">
    <g id="Group_20237" data-name="Group 20237">
      <path id="phone-call" d="M17.059,5.621a5.776,5.776,0,0,1,4.563,4.563M17.059,1a10.4,10.4,0,0,1,9.184,9.173m-1.155,9.219v3.466a2.311,2.311,0,0,1-2.518,2.311,22.863,22.863,0,0,1-9.97-3.547A22.528,22.528,0,0,1,5.668,14.69,22.863,22.863,0,0,1,2.121,4.674a2.311,2.311,0,0,1,2.3-2.518H7.886A2.311,2.311,0,0,1,10.2,4.142a14.834,14.834,0,0,0,.809,3.246,2.311,2.311,0,0,1-.52,2.438L9.018,11.293a18.484,18.484,0,0,0,6.932,6.932l1.467-1.467a2.311,2.311,0,0,1,2.438-.52,14.833,14.833,0,0,0,3.246.809A2.311,2.311,0,0,1,25.088,19.392Z" transform="translate(1062.888 48.949)" fill="none" stroke="#bcd38b" stroke-linecap="round" stroke-linejoin="round" stroke-width="1.5"/>
    </g>
  </g>
</svg>
