<svg xmlns="http://www.w3.org/2000/svg" id="prefix__communications" width="20.454" height="20.454" viewBox="0 0 20.454 20.454">
    <g id="prefix__Group_175" data-name="Group 175">
        <path id="prefix__Path_1357" fill="#fff" d="M18.813 13.426a11.613 11.613 0 0 1-3.647-.581 1.667 1.667 0 0 0-1.621.342l-2.3 1.736A12.71 12.71 0 0 1 5.53 9.21l1.685-2.24a1.653 1.653 0 0 0 .407-1.675 11.631 11.631 0 0 1-.583-3.653A1.643 1.643 0 0 0 5.4 0H1.641A1.643 1.643 0 0 0 0 1.641a18.834 18.834 0 0 0 18.813 18.813 1.643 1.643 0 0 0 1.641-1.641v-3.746a1.643 1.643 0 0 0-1.641-1.641z" data-name="Path 1357"/>
    </g>
</svg>
