<svg xmlns="http://www.w3.org/2000/svg" width="29.619" height="29.619" viewBox="0 0 29.619 29.619">
  <g id="Group_7518" data-name="Group 7518" transform="translate(-188.356 -355.131)">
    <g id="communications" transform="translate(188.356 355.131)">
      <g id="Group_175" data-name="Group 175">
        <path id="Path_1357" data-name="Path 1357" d="M27.242,19.441a16.817,16.817,0,0,1-5.281-.841,2.414,2.414,0,0,0-2.348.495l-3.33,2.514a18.4,18.4,0,0,1-8.275-8.273l2.44-3.244a2.394,2.394,0,0,0,.589-2.426,16.842,16.842,0,0,1-.844-5.29A2.379,2.379,0,0,0,7.816,0H2.377A2.379,2.379,0,0,0,0,2.377,27.273,27.273,0,0,0,27.242,29.619a2.379,2.379,0,0,0,2.377-2.377V21.818A2.379,2.379,0,0,0,27.242,19.441Z" transform="translate(0 0)" fill="#fff"/>
      </g>
    </g>
  </g>
</svg>
