<svg xmlns="http://www.w3.org/2000/svg" width="38" height="51.805" viewBox="0 0 38 51.805">
  <g id="Group_20241" data-name="Group 20241" transform="translate(-833.758 -2225)">
    <path id="Path_87037" data-name="Path 87037" d="M32.413,2.649c-5.475,1.931-6.622-1.078-11.77-.612A11.5,11.5,0,0,0,14.857,4.27a.862.862,0,0,0-.172,1.207C15.651,6.788,16.5,4.149,20.8,3.753a9.873,9.873,0,0,1,4.156.509,11.96,11.96,0,0,0,8.019,0C42.528.9,50.263,12.6,43.925,20.472c-1.216,1.518-1.975,5.613-2.535,7.243a2.837,2.837,0,0,1-2.673,1.871H35a.862.862,0,0,0,0,1.725h1.725L36.5,34.527,21.325,33.26,21.2,31.311H31.551a.862.862,0,0,0,0-1.725H19.212a2.82,2.82,0,0,1-2.664-1.863c-.569-1.63-1.328-5.726-2.587-7.243a10.442,10.442,0,0,1-1.811-9.64.862.862,0,0,0-1.638-.517,12.149,12.149,0,0,0,2.1,11.21c.862,1.112,1.725,5.174,2.259,6.726a4.57,4.57,0,0,0,4.6,3.052l.121,1.8-.914-.078a.865.865,0,0,0-.138,1.725l1.164.095.172,2.587-1.2-.095a.865.865,0,1,0-.138,1.725l1.457.121.172,2.526-.621-.06a.866.866,0,1,0-.155,1.725l.862.078a3.847,3.847,0,0,0,.7,2.587l-.535-.078a.867.867,0,1,0-.172,1.725l1.725.181c3.061,5.855,2.889,5.855,3.578,5.855,6.821,0,7.226.2,7.571-.457.8-1.526,1.457-2.768,2.1-4.01l1.406.155a.867.867,0,0,0,.172-1.725l-.716-.078c1.138-2.164,1.25-2.389,1.362-2.587l.992.078a.863.863,0,1,0,.078-1.725l-.862-.078.181-2.587,1.466.078a.863.863,0,1,0,.069-1.725l-1.44-.121.172-2.587,1.2.121a.863.863,0,0,0,.069-1.725l-1.147-.095.216-3.354A4.561,4.561,0,0,0,43,28.293c.535-1.526,1.362-5.613,2.259-6.726C52.694,12.341,43.563-1.283,32.413,2.649Zm-.56,49.357H26.076l-2.052-3.923,9.364.992Zm4.07-8.856-9.485-.862a.866.866,0,1,0-.155,1.725l9.321.862c-.491.923-.931,1.725-1.354,2.587L23.04,46.289c-1.155-2.207-.949-1.647-1.017-2.639l.974.086a.863.863,0,0,0,.078-1.725l-1.173-.1-.172-2.535,14.357,1.19Zm.293-4.311L21.626,37.6l-.181-2.587L36.4,36.252Z" transform="translate(823.8 2223.046)" fill="#bcd38b"/>
    <path id="Path_87038" data-name="Path 87038" d="M22.184,7.8A17.746,17.746,0,0,0,30.6,10.1a17.746,17.746,0,0,0,8.416-2.3.862.862,0,0,0-.862-1.466A16.323,16.323,0,0,1,30.6,8.379a16.323,16.323,0,0,1-7.519-2.044.862.862,0,0,0-.9,1.466Z" transform="translate(822.165 2222.455)" fill="#bcd38b"/>
    <path id="Path_87039" data-name="Path 87039" d="M13.332,8.995a.862.862,0,1,0-.862-.862A.862.862,0,0,0,13.332,8.995Z" transform="translate(823.454 2222.314)" fill="#bcd38b"/>
  </g>
</svg>
