<svg xmlns="http://www.w3.org/2000/svg" width="52.241" height="55.9" viewBox="0 0 52.241 55.9">
  <g id="toothbrush" transform="translate(-16.705)">
    <path id="Path_84865" data-name="Path 84865" d="M269.907,183.917a7.986,7.986,0,0,1-4.336-1.273.821.821,0,1,1,.892-1.38,6.371,6.371,0,0,0,6.8.056.821.821,0,0,1,.869,1.394,7.984,7.984,0,0,1-4.224,1.2Z" transform="translate(-221.278 -161.297)" fill="#616161"/>
    <path id="Path_84866" data-name="Path 84866" d="M26.141,1.244H21.9a2.846,2.846,0,0,0-5.2,1.6V12.874a6.971,6.971,0,0,0,2.055,4.962l2.887,2.887a1.314,1.314,0,0,1,.387.935V32.471a.821.821,0,1,0,1.643,0V21.658a2.945,2.945,0,0,0-.869-2.1l-2.887-2.887a5.34,5.34,0,0,1-1.574-3.8V2.847a1.2,1.2,0,0,1,2.409,0V12.874a2.945,2.945,0,0,0,.869,2.1l2.887,2.887a5.34,5.34,0,0,1,1.574,3.8V52.894a1.2,1.2,0,0,1-2.409,0V35.756a.821.821,0,1,0-1.643,0V52.894a2.847,2.847,0,0,0,5.695,0V21.658A6.971,6.971,0,0,0,25.674,16.7l-2.53-2.53h3a2.5,2.5,0,0,0,2.5-2.5V3.742a2.5,2.5,0,0,0-2.5-2.5Zm0,11.28H22.5V2.886h3.646A.857.857,0,0,1,27,3.742v.113h-.881a.821.821,0,1,0,0,1.643H27V7.065h-.881a.821.821,0,1,0,0,1.643H27v1.566h-.881a.821.821,0,1,0,0,1.643h.844A.857.857,0,0,1,26.141,12.524Z" fill="#616161"/>
    <path id="Path_84867" data-name="Path 84867" d="M273.263,181.321a6.372,6.372,0,0,1-6.8-.056.821.821,0,1,0-.892,1.38,8.021,8.021,0,0,0,8.56.07.821.821,0,0,0-.869-1.394Z" transform="translate(-221.278 -161.297)" fill="#616161"/>
    <path id="Path_84868" data-name="Path 84868" d="M183.191,134.71a3.84,3.84,0,0,0-6.433-2.833,3.83,3.83,0,0,0-.694-.014,10.2,10.2,0,0,0-11.127-.036,3.839,3.839,0,0,1-4.16,0,10.234,10.234,0,0,0-14.383,13.759,41.352,41.352,0,0,1,2.767,5.7,3.84,3.84,0,0,0-1.258,6.92,4.042,4.042,0,0,0,3.841,3.438l.7,6.183a4.516,4.516,0,0,0,4.491,4.012h.016a4.518,4.518,0,0,0,4.376-3.391c.006-.022.011-.045.014-.068l1.156-6.809a.487.487,0,0,1,.512-.432h0a.487.487,0,0,1,.511.434l1.13,6.788c0,.022.008.045.014.067a4.519,4.519,0,0,0,8.873-.6l.755-6.715a39.72,39.72,0,0,1,.7-4.183.821.821,0,1,0-1.6-.357,41.348,41.348,0,0,0-.729,4.356l-.755,6.715a2.877,2.877,0,0,1-5.64.415L165.14,161.3a2.13,2.13,0,0,0-2.129-1.807h0a2.13,2.13,0,0,0-2.131,1.8l-1.15,6.773a2.876,2.876,0,0,1-2.777,2.127h-.016a2.875,2.875,0,0,1-2.859-2.553l-.7-6.185c0-.026-.006-.053-.01-.079a4.059,4.059,0,0,0,2.5-4.713,3.84,3.84,0,0,0-5.078-5.719,42.98,42.98,0,0,0-2.979-6.188,8.591,8.591,0,0,1,12.074-11.55,5.484,5.484,0,0,0,5.943,0,8.57,8.57,0,0,1,8.213-.592,3.836,3.836,0,0,0,.143,6.263,4.055,4.055,0,0,0,4.69,3.385,8.486,8.486,0,0,1-.888,2.346,45.032,45.032,0,0,0-3.737,8.705.821.821,0,1,0,1.57.483,43.388,43.388,0,0,1,3.6-8.387,10.125,10.125,0,0,0,1.228-3.818.826.826,0,0,0,0-.1,4.056,4.056,0,0,0,1.5-4.152,3.813,3.813,0,0,0,1.041-2.628Zm-32.83,18.134c.067.01.137.023.209.04a.821.821,0,0,0,.82-.268,2.2,2.2,0,1,1,3.034,3.148.821.821,0,0,0-.258.944,2.417,2.417,0,1,1-4.666.97.821.821,0,0,0-.448-.7,2.2,2.2,0,0,1,1-4.157,2.228,2.228,0,0,1,.314.023Zm30.345-16.4a.821.821,0,0,0-.258.944,2.417,2.417,0,1,1-4.666.97.821.821,0,0,0-.448-.7,2.2,2.2,0,0,1,1.31-4.134c.067.01.137.023.209.041a.822.822,0,0,0,.82-.268,2.2,2.2,0,1,1,3.034,3.148Z" transform="translate(-114.245 -115.937)" fill="#616161"/>
  </g>
</svg>
