<svg xmlns="http://www.w3.org/2000/svg" width="20.607" height="16.737" viewBox="0 0 20.607 16.737">
  <g id="Group_20235" data-name="Group 20235" transform="translate(-9.257 -10.657)">
    <g id="twitter-black-shape" transform="translate(9.257 10.657)">
      <path id="Path_425" data-name="Path 425" d="M20.606,44.247a8.427,8.427,0,0,1-2.432.654,4.1,4.1,0,0,0,1.857-2.327,8.29,8.29,0,0,1-2.681,1.02,4.234,4.234,0,0,0-6.074-.1,4.071,4.071,0,0,0-1.236,2.988,4.688,4.688,0,0,0,.1.968,11.769,11.769,0,0,1-4.858-1.3A11.974,11.974,0,0,1,1.437,43.03a4.233,4.233,0,0,0-.065,4.145,4.219,4.219,0,0,0,1.373,1.5,4.19,4.19,0,0,1-1.909-.536V48.2A4.082,4.082,0,0,0,1.8,50.882,4.155,4.155,0,0,0,4.222,52.34a4.376,4.376,0,0,1-1.111.144,5.387,5.387,0,0,1-.8-.065,4.233,4.233,0,0,0,3.949,2.929,8.269,8.269,0,0,1-5.243,1.8A8.988,8.988,0,0,1,0,57.1,11.729,11.729,0,0,0,6.485,59a12.339,12.339,0,0,0,4.223-.712,10.734,10.734,0,0,0,3.374-1.909,12.775,12.775,0,0,0,2.412-2.752A12.274,12.274,0,0,0,18,50.372a12,12,0,0,0,.5-3.393q0-.366-.013-.549A8.845,8.845,0,0,0,20.606,44.247Z" transform="translate(0.001 -42.259)" fill="#fff"/>
    </g>
  </g>
</svg>
