<svg xmlns="http://www.w3.org/2000/svg" width="19.573" height="15.333" viewBox="0 0 19.573 15.333">
  <g id="Group_20242" data-name="Group 20242" transform="translate(-543 -5107)">
    <g id="Group_20241" data-name="Group 20241">
      <g id="Group_20143" data-name="Group 20143" transform="translate(479 5096.996)">
        <path id="Path_89532" data-name="Path 89532" d="M70.98,10v3.49q-3.359.306-3.359,4.864h3.36a.671.671,0,0,1,.671.671v5.637a.671.671,0,0,1-.671.671H64.671A.671.671,0,0,1,64,24.666V18.6Q64,10.4,70.98,10Z" transform="translate(0)" fill="#bcd38b"/>
        <path id="Path_89533" data-name="Path 89533" d="M173.215,10v3.49q-3.359.306-3.359,4.864h3.36a.671.671,0,0,1,.671.671v5.637a.671.671,0,0,1-.671.671h-6.309a.671.671,0,0,1-.671-.671V18.6Q166.235,10.4,173.215,10Z" transform="translate(-90.313)" fill="#bcd38b"/>
      </g>
    </g>
  </g>
</svg>
